M48
;DRILL file {KiCad 5.0.2+dfsg1-1} date Mon 11 May 2020 02:21:16 AM PDT
;FORMAT={-:-/ absolute / inch / decimal}
FMAT,2
INCH,TZ
T1C0.0256
T2C0.0689
T3C0.1200
T4C0.1570
%
G90
G05
T1
X11.1762Y-2.6961
X11.4038Y-2.6961
T2
X8.425Y-2.9375
X8.825Y-2.9375
X6.925Y-2.9375
X7.325Y-2.9375
X-0.7475Y-4.4375
X-0.3475Y-4.4375
X11.5187Y-4.4375
X11.9187Y-4.4375
X6.3625Y-3.6875
X6.7625Y-3.6875
X10.1125Y-3.6875
X10.5125Y-3.6875
X7.675Y-4.4375
X8.075Y-4.4375
X1.5025Y-3.6875
X1.9025Y-3.6875
X9.925Y-4.4375
X10.325Y-4.4375
X10.675Y-4.4375
X11.075Y-4.4375
X-0.7475Y-5.1875
X-0.3475Y-5.1875
X9.175Y-4.4375
X9.575Y-4.4375
X0.7525Y-2.9375
X1.1525Y-2.9375
X6.925Y-4.4375
X7.325Y-4.4375
X4.8625Y-3.6875
X5.2625Y-3.6875
X6.175Y-4.4375
X6.575Y-4.4375
X2.5187Y-3.6875
X2.9187Y-3.6875
X4.1125Y-3.6875
X4.5125Y-3.6875
X6.175Y-2.9375
X6.575Y-2.9375
X0.0025Y-3.6875
X0.4025Y-3.6875
X7.8625Y-3.6875
X8.2625Y-3.6875
X7.9562Y-5.1875
X8.3562Y-5.1875
X5.425Y-2.9375
X5.825Y-2.9375
X0.0025Y-4.4375
X0.4025Y-4.4375
X2.8Y-4.4375
X3.2Y-4.4375
X10.675Y-2.9375
X11.075Y-2.9375
X11.6125Y-5.1875
X12.0125Y-5.1875
X10.8625Y-5.1875
X11.2625Y-5.1875
X3.175Y-5.1875
X3.575Y-5.1875
X0.7525Y-5.1875
X1.1525Y-5.1875
X0.7525Y-4.4375
X1.1525Y-4.4375
X0.7525Y-3.6875
X1.1525Y-3.6875
X4.675Y-2.9375
X5.075Y-2.9375
X4.7687Y-5.1875
X5.1688Y-5.1875
X5.425Y-4.4375
X5.825Y-4.4375
X5.6125Y-3.6875
X6.0125Y-3.6875
X9.175Y-2.9375
X9.575Y-2.9375
X1.5025Y-5.1875
X1.9025Y-5.1875
X1.5025Y-4.4375
X1.9025Y-4.4375
X9.925Y-2.9375
X10.325Y-2.9375
X3.3625Y-3.6875
X3.7625Y-3.6875
X3.175Y-2.9375
X3.575Y-2.9375
X11.5187Y-2.9375
X11.9187Y-2.9375
X2.425Y-5.1875
X2.825Y-5.1875
X11.6125Y-3.6875
X12.0125Y-3.6875
X2.425Y-2.9375
X2.825Y-2.9375
X7.1125Y-3.6875
X7.5125Y-3.6875
X3.925Y-4.4375
X4.325Y-4.4375
X4.675Y-4.4375
X5.075Y-4.4375
X-0.7475Y-3.6875
X-0.3475Y-3.6875
X6.3625Y-5.1875
X6.7625Y-5.1875
X7.675Y-2.9375
X8.075Y-2.9375
X8.6125Y-3.6875
X9.0125Y-3.6875
X3.925Y-2.9375
X4.325Y-2.9375
X9.3625Y-3.6875
X9.7625Y-3.6875
X10.8625Y-3.6875
X11.2625Y-3.6875
X10.1125Y-5.1875
X10.5125Y-5.1875
X0.0025Y-2.9375
X0.4025Y-2.9375
X0.0025Y-5.1875
X0.4025Y-5.1875
X3.925Y-5.1875
X4.325Y-5.1875
X1.5025Y-2.9375
X1.9025Y-2.9375
X9.0812Y-5.1875
X9.4812Y-5.1875
X-0.7475Y-2.9375
X-0.3475Y-2.9375
X8.425Y-4.4375
X8.825Y-4.4375
T3
X2.53Y-4.1625
X3.47Y-4.1625
X5.8125Y-4.9125
X7.3125Y-4.9125
T4
X2.7188Y-3.6875
X4.3125Y-3.6875
X6.375Y-2.9375
X0.2025Y-3.6875
X8.0625Y-3.6875
X8.1562Y-5.1875
X5.625Y-2.9375
X0.2025Y-4.4375
X2.53Y-4.7625
X3.Y-4.4375
X3.47Y-4.7625
X10.875Y-2.9375
X11.8125Y-5.1875
X11.0625Y-5.1875
X3.375Y-5.1875
X0.9525Y-5.1875
X0.9525Y-4.4375
X0.9525Y-3.6875
X4.875Y-2.9375
X4.9688Y-5.1875
X5.625Y-4.4375
X5.8125Y-3.6875
X9.375Y-2.9375
X1.7025Y-5.1875
X1.7025Y-4.4375
X10.125Y-2.9375
X3.5625Y-3.6875
X3.375Y-2.9375
X11.7188Y-2.9375
X2.625Y-5.1875
X11.8125Y-3.6875
X2.625Y-2.9375
X7.3125Y-3.6875
X4.125Y-4.4375
X4.875Y-4.4375
X-0.5475Y-3.6875
X5.8125Y-5.5125
X6.5625Y-5.1875
X7.3125Y-5.5125
X7.875Y-2.9375
X8.8125Y-3.6875
X4.125Y-2.9375
X9.5625Y-3.6875
X11.0625Y-3.6875
X10.3125Y-5.1875
X0.2025Y-2.9375
X0.2025Y-5.1875
X4.125Y-5.1875
X1.7025Y-2.9375
X9.2812Y-5.1875
X-0.5475Y-2.9375
X8.625Y-4.4375
X8.625Y-2.9375
X7.125Y-2.9375
X-0.5475Y-4.4375
X11.7188Y-4.4375
X6.5625Y-3.6875
X10.3125Y-3.6875
X7.875Y-4.4375
X1.7025Y-3.6875
X10.125Y-4.4375
X10.875Y-4.4375
X-0.5475Y-5.1875
X9.375Y-4.4375
X0.9525Y-2.9375
X7.125Y-4.4375
X5.0625Y-3.6875
X6.375Y-4.4375
T0
M30
