G04 #@! TF.GenerationSoftware,KiCad,Pcbnew,5.0.2+dfsg1-1*
G04 #@! TF.CreationDate,2020-05-11T02:21:25-07:00*
G04 #@! TF.ProjectId,keyboard,6b657962-6f61-4726-942e-6b696361645f,rev?*
G04 #@! TF.SameCoordinates,Original*
G04 #@! TF.FileFunction,Profile,NP*
%FSLAX46Y46*%
G04 Gerber Fmt 4.6, Leading zero omitted, Abs format (unit mm)*
G04 Created by KiCad (PCBNEW 5.0.2+dfsg1-1) date Mon 11 May 2020 02:21:25 AM PDT*
%MOMM*%
%LPD*%
G01*
G04 APERTURE LIST*
%ADD10C,0.200000*%
%ADD11C,0.150000*%
G04 APERTURE END LIST*
D10*
X77700000Y-124714000D02*
G75*
G03X77700000Y-124714000I-1500000J0D01*
G01*
X172950000Y-105664000D02*
G75*
G03X172950000Y-105664000I-1500000J0D01*
G01*
X172950000Y-67564000D02*
G75*
G03X172950000Y-67564000I-1500000J0D01*
G01*
X16232000Y-105640000D02*
G75*
G03X16232000Y-105640000I-1500000J0D01*
G01*
X96750000Y-105664000D02*
G75*
G03X96750000Y-105664000I-1500000J0D01*
G01*
X249150000Y-105664000D02*
G75*
G03X249150000Y-105664000I-1500000J0D01*
G01*
X77700000Y-67564000D02*
G75*
G03X77700000Y-67564000I-1500000J0D01*
G01*
X181332000Y-140208000D02*
G75*
G03X181332000Y-140208000I-1500000J0D01*
G01*
X-20344000Y-139700000D02*
G75*
G03X-20344000Y-139700000I-1500000J0D01*
G01*
X309602000Y-139700000D02*
G75*
G03X309602000Y-139700000I-1500000J0D01*
G01*
X-20344000Y-66548000D02*
G75*
G03X-20344000Y-66548000I-1500000J0D01*
G01*
X309626000Y-66548000D02*
G75*
G03X309626000Y-66548000I-1500000J0D01*
G01*
D11*
X-20320000Y-144526000D02*
G75*
G02X-26670000Y-138176000I0J6350000D01*
G01*
X-26416000Y-68326000D02*
G75*
G02X-20066000Y-61976000I6350000J0D01*
G01*
X306324000Y-62230000D02*
G75*
G02X312674000Y-68580000I0J-6350000D01*
G01*
X312420000Y-137922000D02*
G75*
G02X306070000Y-144272000I-6350000J0D01*
G01*
X-20320000Y-144526000D02*
X306070000Y-144272000D01*
X-26416000Y-68326000D02*
X-26670000Y-138176000D01*
X306324000Y-62230000D02*
X-20066000Y-61976000D01*
X312420000Y-137922000D02*
X312674000Y-68580000D01*
M02*
