M48
;DRILL file {KiCad 5.0.2+dfsg1-1} date Mon 11 May 2020 02:21:16 AM PDT
;FORMAT={-:-/ absolute / inch / decimal}
FMAT,2
INCH,TZ
T1C0.0157
T2C0.0236
T3C0.0256
T4C0.0409
T5C0.0579
%
G90
G05
T1
X5.05Y-5.6
X5.15Y-5.3385
X5.15Y-5.3779
X5.15Y-5.42
X5.15Y-5.47
X5.15Y-5.56
X5.1502Y-5.5198
X5.2Y-4.87
X5.22Y-5.56
X5.27Y-5.56
X5.31Y-4.87
X5.32Y-5.53
X5.4Y-5.53
X5.4098Y-5.0898
X5.41Y-4.88
X5.43Y-5.22
X5.46Y-4.69
X5.46Y-4.81
X5.46Y-5.19
X5.51Y-5.04
X5.51Y-5.19
X5.54Y-5.51
X5.55Y-5.19
X5.59Y-5.19
X5.5944Y-4.8056
X5.6Y-5.03
X5.63Y-5.06
X5.64Y-5.23
X5.6598Y-5.1898
X5.6898Y-5.1302
X5.7Y-5.19
X5.82Y-4.69
X5.82Y-4.8
X5.9Y-3.18
X5.9Y-3.31
X5.91Y-4.93
X5.94Y-5.12
X5.9456Y-5.2244
X5.96Y-4.93
X5.97Y-4.86
X5.9944Y-5.1756
X6.Y-3.2478
X6.01Y-5.37
X6.03Y-4.86
X6.1Y-3.18
X6.1Y-3.31
X6.1875Y-3.9978
X6.32Y-3.94
X6.32Y-4.06
X6.36Y-4.85
X6.46Y-4.85
X6.84Y-3.93
X6.84Y-4.06
X11.18Y-2.9389
X11.28Y-2.64
X11.31Y-2.61
T3
X6.0746Y-4.9946
X6.11Y-5.03
T4
X0.9025Y-3.1375
X1.0025Y-3.1375
X7.075Y-4.6375
X7.175Y-4.6375
X5.0125Y-3.8875
X5.1125Y-3.8875
X6.325Y-4.6375
X6.425Y-4.6375
X2.6687Y-3.8875
X2.7687Y-3.8875
X4.2625Y-3.8875
X4.3625Y-3.8875
X6.325Y-3.1375
X6.425Y-3.1375
X0.1525Y-3.8875
X0.2525Y-3.8875
X8.0125Y-3.8875
X8.1125Y-3.8875
X8.1062Y-5.3875
X8.2062Y-5.3875
X5.575Y-3.1375
X5.675Y-3.1375
X0.1525Y-4.6375
X0.2525Y-4.6375
X2.95Y-4.6375
X3.05Y-4.6375
X10.825Y-3.1375
X10.925Y-3.1375
X11.7625Y-5.3875
X11.8625Y-5.3875
X11.0125Y-5.3875
X11.1125Y-5.3875
X3.325Y-5.3875
X3.425Y-5.3875
X0.9025Y-5.3875
X1.0025Y-5.3875
X0.9025Y-4.6375
X1.0025Y-4.6375
X0.9025Y-3.8875
X1.0025Y-3.8875
X4.825Y-3.1375
X4.925Y-3.1375
X4.9188Y-5.3875
X5.0187Y-5.3875
X5.575Y-4.6375
X5.675Y-4.6375
X5.7625Y-3.8875
X5.8625Y-3.8875
X9.325Y-3.1375
X9.425Y-3.1375
X1.6525Y-5.3875
X1.7525Y-5.3875
X1.6525Y-4.6375
X1.7525Y-4.6375
X10.075Y-3.1375
X10.175Y-3.1375
X3.5125Y-3.8875
X3.6125Y-3.8875
X3.325Y-3.1375
X3.425Y-3.1375
X11.6687Y-3.1375
X11.7687Y-3.1375
X2.575Y-5.3875
X2.675Y-5.3875
X11.7625Y-3.8875
X11.8625Y-3.8875
X2.575Y-3.1375
X2.675Y-3.1375
X7.2625Y-3.8875
X7.3625Y-3.8875
X4.075Y-4.6375
X4.175Y-4.6375
X4.825Y-4.6375
X4.925Y-4.6375
X-0.5975Y-3.8875
X-0.4975Y-3.8875
X6.5125Y-5.3875
X6.6125Y-5.3875
X7.825Y-3.1375
X7.925Y-3.1375
X8.7625Y-3.8875
X8.8625Y-3.8875
X4.075Y-3.1375
X4.175Y-3.1375
X9.5125Y-3.8875
X9.6125Y-3.8875
X11.0125Y-3.8875
X11.1125Y-3.8875
X10.2625Y-5.3875
X10.3625Y-5.3875
X0.1525Y-3.1375
X0.2525Y-3.1375
X0.1525Y-5.3875
X0.2525Y-5.3875
X4.075Y-5.3875
X4.175Y-5.3875
X1.6525Y-3.1375
X1.7525Y-3.1375
X9.2312Y-5.3875
X9.3312Y-5.3875
X-0.5975Y-3.1375
X-0.4975Y-3.1375
X8.575Y-4.6375
X8.675Y-4.6375
X8.575Y-3.1375
X8.675Y-3.1375
X7.075Y-3.1375
X7.175Y-3.1375
X-0.5975Y-4.6375
X-0.4975Y-4.6375
X11.6687Y-4.6375
X11.7687Y-4.6375
X6.5125Y-3.8875
X6.6125Y-3.8875
X10.2625Y-3.8875
X10.3625Y-3.8875
X7.825Y-4.6375
X7.925Y-4.6375
X1.6525Y-3.8875
X1.7525Y-3.8875
X10.075Y-4.6375
X10.175Y-4.6375
X10.825Y-4.6375
X10.925Y-4.6375
X-0.5975Y-5.3875
X-0.4975Y-5.3875
X9.325Y-4.6375
X9.425Y-4.6375
T5
X10.1625Y-3.5875
X10.2141Y-3.53
X10.4109Y-3.5103
X10.4125Y-3.4875
X7.725Y-4.3375
X7.7766Y-4.28
X7.9734Y-4.2603
X7.975Y-4.2375
X1.5525Y-3.5875
X1.6041Y-3.53
X1.8009Y-3.5103
X1.8025Y-3.4875
X9.975Y-4.3375
X10.0266Y-4.28
X10.2234Y-4.2603
X10.225Y-4.2375
X10.725Y-4.3375
X10.7766Y-4.28
X10.9734Y-4.2603
X10.975Y-4.2375
X-0.6975Y-5.0875
X-0.6459Y-5.03
X-0.4491Y-5.0103
X-0.4475Y-4.9875
X9.225Y-4.3375
X9.2766Y-4.28
X9.4734Y-4.2603
X9.475Y-4.2375
X0.8025Y-2.8375
X0.8541Y-2.78
X1.0509Y-2.7603
X1.0525Y-2.7375
X6.975Y-4.3375
X7.0266Y-4.28
X7.2234Y-4.2603
X7.225Y-4.2375
X4.9125Y-3.5875
X4.9641Y-3.53
X5.1609Y-3.5103
X5.1625Y-3.4875
X6.225Y-4.3375
X6.2766Y-4.28
X6.4734Y-4.2603
X6.475Y-4.2375
X2.5688Y-3.5875
X2.6203Y-3.53
X2.8172Y-3.5103
X2.8188Y-3.4875
X4.1625Y-3.5875
X4.2141Y-3.53
X4.4109Y-3.5103
X4.4125Y-3.4875
X6.225Y-2.8375
X6.2766Y-2.78
X6.4734Y-2.7603
X6.475Y-2.7375
X0.0525Y-3.5875
X0.1041Y-3.53
X0.3009Y-3.5103
X0.3025Y-3.4875
X7.9125Y-3.5875
X7.9641Y-3.53
X8.1609Y-3.5103
X8.1625Y-3.4875
X8.0062Y-5.0875
X8.0578Y-5.03
X8.2547Y-5.0103
X8.2562Y-4.9875
X5.475Y-2.8375
X5.5266Y-2.78
X5.7234Y-2.7603
X5.725Y-2.7375
X0.0525Y-4.3375
X0.1041Y-4.28
X0.3009Y-4.2603
X0.3025Y-4.2375
X2.85Y-4.3375
X2.9016Y-4.28
X3.0984Y-4.2603
X3.1Y-4.2375
X10.725Y-2.8375
X10.7766Y-2.78
X10.9734Y-2.7603
X10.975Y-2.7375
X11.6625Y-5.0875
X11.7141Y-5.03
X11.9109Y-5.0103
X11.9125Y-4.9875
X10.9125Y-5.0875
X10.9641Y-5.03
X11.1609Y-5.0103
X11.1625Y-4.9875
X3.225Y-5.0875
X3.2766Y-5.03
X3.4734Y-5.0103
X3.475Y-4.9875
X0.8025Y-5.0875
X0.8541Y-5.03
X1.0509Y-5.0103
X1.0525Y-4.9875
X0.8025Y-4.3375
X0.8541Y-4.28
X1.0509Y-4.2603
X1.0525Y-4.2375
X0.8025Y-3.5875
X0.8541Y-3.53
X1.0509Y-3.5103
X1.0525Y-3.4875
X4.725Y-2.8375
X4.7766Y-2.78
X4.9734Y-2.7603
X4.975Y-2.7375
X4.8187Y-5.0875
X4.8703Y-5.03
X5.0672Y-5.0103
X5.0687Y-4.9875
X5.475Y-4.3375
X5.5266Y-4.28
X5.7234Y-4.2603
X5.725Y-4.2375
X5.6625Y-3.5875
X5.7141Y-3.53
X5.9109Y-3.5103
X5.9125Y-3.4875
X9.225Y-2.8375
X9.2766Y-2.78
X9.4734Y-2.7603
X9.475Y-2.7375
X1.5525Y-5.0875
X1.6041Y-5.03
X1.8009Y-5.0103
X1.8025Y-4.9875
X1.5525Y-4.3375
X1.6041Y-4.28
X1.8009Y-4.2603
X1.8025Y-4.2375
X9.975Y-2.8375
X10.0266Y-2.78
X10.2234Y-2.7603
X10.225Y-2.7375
X3.4125Y-3.5875
X3.4641Y-3.53
X3.6609Y-3.5103
X3.6625Y-3.4875
X3.225Y-2.8375
X3.2766Y-2.78
X3.4734Y-2.7603
X3.475Y-2.7375
X11.5687Y-2.8375
X11.6203Y-2.78
X11.8172Y-2.7603
X11.8187Y-2.7375
X2.475Y-5.0875
X2.5266Y-5.03
X2.7234Y-5.0103
X2.725Y-4.9875
X11.6625Y-3.5875
X11.7141Y-3.53
X11.9109Y-3.5103
X11.9125Y-3.4875
X2.475Y-2.8375
X2.5266Y-2.78
X2.7234Y-2.7603
X2.725Y-2.7375
X7.1625Y-3.5875
X7.2141Y-3.53
X7.4109Y-3.5103
X7.4125Y-3.4875
X3.975Y-4.3375
X4.0266Y-4.28
X4.2234Y-4.2603
X4.225Y-4.2375
X4.725Y-4.3375
X4.7766Y-4.28
X4.9734Y-4.2603
X4.975Y-4.2375
X-0.6975Y-3.5875
X-0.6459Y-3.53
X-0.4491Y-3.5103
X-0.4475Y-3.4875
X6.4125Y-5.0875
X6.4641Y-5.03
X6.6609Y-5.0103
X6.6625Y-4.9875
X7.725Y-2.8375
X7.7766Y-2.78
X7.9734Y-2.7603
X7.975Y-2.7375
X8.6625Y-3.5875
X8.7141Y-3.53
X8.9109Y-3.5103
X8.9125Y-3.4875
X3.975Y-2.8375
X4.0266Y-2.78
X4.2234Y-2.7603
X4.225Y-2.7375
X9.4125Y-3.5875
X9.4641Y-3.53
X9.6609Y-3.5103
X9.6625Y-3.4875
X10.9125Y-3.5875
X10.9641Y-3.53
X11.1609Y-3.5103
X11.1625Y-3.4875
X10.1625Y-5.0875
X10.2141Y-5.03
X10.4109Y-5.0103
X10.4125Y-4.9875
X0.0525Y-2.8375
X0.1041Y-2.78
X0.3009Y-2.7603
X0.3025Y-2.7375
X0.0525Y-5.0875
X0.1041Y-5.03
X0.3009Y-5.0103
X0.3025Y-4.9875
X3.975Y-5.0875
X4.0266Y-5.03
X4.2234Y-5.0103
X4.225Y-4.9875
X1.5525Y-2.8375
X1.6041Y-2.78
X1.8009Y-2.7603
X1.8025Y-2.7375
X9.1312Y-5.0875
X9.1828Y-5.03
X9.3797Y-5.0103
X9.3812Y-4.9875
X-0.6975Y-2.8375
X-0.6459Y-2.78
X-0.4491Y-2.7603
X-0.4475Y-2.7375
X8.475Y-4.3375
X8.5266Y-4.28
X8.7234Y-4.2603
X8.725Y-4.2375
X8.475Y-2.8375
X8.5266Y-2.78
X8.7234Y-2.7603
X8.725Y-2.7375
X6.975Y-2.8375
X7.0266Y-2.78
X7.2234Y-2.7603
X7.225Y-2.7375
X-0.6975Y-4.3375
X-0.6459Y-4.28
X-0.4491Y-4.2603
X-0.4475Y-4.2375
X11.5687Y-4.3375
X11.6203Y-4.28
X11.8172Y-4.2603
X11.8187Y-4.2375
X6.4125Y-3.5875
X6.4641Y-3.53
X6.6609Y-3.5103
X6.6625Y-3.4875
T2
X11.1199Y-2.5406G85X11.1199Y-2.5642
G05
X11.1199Y-2.6953G85X11.1199Y-2.7386
G05
X11.4601Y-2.5406G85X11.4601Y-2.5642
G05
X11.4601Y-2.6953G85X11.4601Y-2.7386
G05
T0
M30
