%FSLAX45Y45*%
G04 Gerber Fmt 4.5, Leading zero omitted, Abs format (unit mm)*
G04 Created by KiCad (PCBNEW 5.0.2+dfsg1-1) date Mon 11 May 2020 02:21:16 AM PDT*
%MOMM*%
%LPD*%
G01*
G04 APERTURE LIST*
%ADD10C,0.200000*%
%ADD11C,0.150000*%
%ADD12C,0.300000*%
G04 APERTURE END LIST*
D10*
X7770000Y-12471400D02*
G75*
G03X7770000Y-12471400I-150000J0D01*
G01*
X17295000Y-10566400D02*
G75*
G03X17295000Y-10566400I-150000J0D01*
G01*
X17295000Y-6756400D02*
G75*
G03X17295000Y-6756400I-150000J0D01*
G01*
X1623200Y-10564000D02*
G75*
G03X1623200Y-10564000I-150000J0D01*
G01*
X9675000Y-10566400D02*
G75*
G03X9675000Y-10566400I-150000J0D01*
G01*
X24915000Y-10566400D02*
G75*
G03X24915000Y-10566400I-150000J0D01*
G01*
X7770000Y-6756400D02*
G75*
G03X7770000Y-6756400I-150000J0D01*
G01*
X18133200Y-14020800D02*
G75*
G03X18133200Y-14020800I-150000J0D01*
G01*
X-2034400Y-13970000D02*
G75*
G03X-2034400Y-13970000I-150000J0D01*
G01*
X30960200Y-13970000D02*
G75*
G03X30960200Y-13970000I-150000J0D01*
G01*
X-2034400Y-6654800D02*
G75*
G03X-2034400Y-6654800I-150000J0D01*
G01*
X30962600Y-6654800D02*
G75*
G03X30962600Y-6654800I-150000J0D01*
G01*
D11*
X-2032000Y-14452600D02*
G75*
G02X-2667000Y-13817600I0J635000D01*
G01*
X-2641600Y-6832600D02*
G75*
G02X-2006600Y-6197600I635000J0D01*
G01*
X30632400Y-6223000D02*
G75*
G02X31267400Y-6858000I0J-635000D01*
G01*
X31242000Y-13792200D02*
G75*
G02X30607000Y-14427200I-635000J0D01*
G01*
X-2032000Y-14452600D02*
X30607000Y-14427200D01*
X-2641600Y-6832600D02*
X-2667000Y-13817600D01*
X30632400Y-6223000D02*
X-2006600Y-6197600D01*
X31242000Y-13792200D02*
X31267400Y-6858000D01*
D10*
X28355100Y-6815500D02*
X28420100Y-6880500D01*
X28420100Y-6815500D02*
X28355100Y-6880500D01*
X28933100Y-6815500D02*
X28998100Y-6880500D01*
X28998100Y-6815500D02*
X28933100Y-6880500D01*
X21487000Y-7461250D02*
G75*
G03X21487000Y-7461250I-87500J0D01*
G01*
X22503000Y-7461250D02*
G75*
G03X22503000Y-7461250I-87500J0D01*
G01*
X17677000Y-7461250D02*
G75*
G03X17677000Y-7461250I-87500J0D01*
G01*
X18693000Y-7461250D02*
G75*
G03X18693000Y-7461250I-87500J0D01*
G01*
X-1811150Y-11271250D02*
G75*
G03X-1811150Y-11271250I-87500J0D01*
G01*
X-795150Y-11271250D02*
G75*
G03X-795150Y-11271250I-87500J0D01*
G01*
X29345125Y-11271250D02*
G75*
G03X29345125Y-11271250I-87500J0D01*
G01*
X30361125Y-11271250D02*
G75*
G03X30361125Y-11271250I-87500J0D01*
G01*
X16248250Y-9366250D02*
G75*
G03X16248250Y-9366250I-87500J0D01*
G01*
X17264250Y-9366250D02*
G75*
G03X17264250Y-9366250I-87500J0D01*
G01*
X25773250Y-9366250D02*
G75*
G03X25773250Y-9366250I-87500J0D01*
G01*
X26789250Y-9366250D02*
G75*
G03X26789250Y-9366250I-87500J0D01*
G01*
X19582000Y-11271250D02*
G75*
G03X19582000Y-11271250I-87500J0D01*
G01*
X20598000Y-11271250D02*
G75*
G03X20598000Y-11271250I-87500J0D01*
G01*
X3903850Y-9366250D02*
G75*
G03X3903850Y-9366250I-87500J0D01*
G01*
X4919850Y-9366250D02*
G75*
G03X4919850Y-9366250I-87500J0D01*
G01*
X25297000Y-11271250D02*
G75*
G03X25297000Y-11271250I-87500J0D01*
G01*
X26313000Y-11271250D02*
G75*
G03X26313000Y-11271250I-87500J0D01*
G01*
X27202000Y-11271250D02*
G75*
G03X27202000Y-11271250I-87500J0D01*
G01*
X28218000Y-11271250D02*
G75*
G03X28218000Y-11271250I-87500J0D01*
G01*
X-1811150Y-13176250D02*
G75*
G03X-1811150Y-13176250I-87500J0D01*
G01*
X-795150Y-13176250D02*
G75*
G03X-795150Y-13176250I-87500J0D01*
G01*
X23392000Y-11271250D02*
G75*
G03X23392000Y-11271250I-87500J0D01*
G01*
X24408000Y-11271250D02*
G75*
G03X24408000Y-11271250I-87500J0D01*
G01*
X1998850Y-7461250D02*
G75*
G03X1998850Y-7461250I-87500J0D01*
G01*
X3014850Y-7461250D02*
G75*
G03X3014850Y-7461250I-87500J0D01*
G01*
X17677000Y-11271250D02*
G75*
G03X17677000Y-11271250I-87500J0D01*
G01*
X18693000Y-11271250D02*
G75*
G03X18693000Y-11271250I-87500J0D01*
G01*
X12438250Y-9366250D02*
G75*
G03X12438250Y-9366250I-87500J0D01*
G01*
X13454250Y-9366250D02*
G75*
G03X13454250Y-9366250I-87500J0D01*
G01*
X15772000Y-11271250D02*
G75*
G03X15772000Y-11271250I-87500J0D01*
G01*
X16788000Y-11271250D02*
G75*
G03X16788000Y-11271250I-87500J0D01*
G01*
X6485125Y-9366250D02*
G75*
G03X6485125Y-9366250I-87500J0D01*
G01*
X7501125Y-9366250D02*
G75*
G03X7501125Y-9366250I-87500J0D01*
G01*
X10533250Y-9366250D02*
G75*
G03X10533250Y-9366250I-87500J0D01*
G01*
X11549250Y-9366250D02*
G75*
G03X11549250Y-9366250I-87500J0D01*
G01*
X15772000Y-7461250D02*
G75*
G03X15772000Y-7461250I-87500J0D01*
G01*
X16788000Y-7461250D02*
G75*
G03X16788000Y-7461250I-87500J0D01*
G01*
X93850Y-9366250D02*
G75*
G03X93850Y-9366250I-87500J0D01*
G01*
X1109850Y-9366250D02*
G75*
G03X1109850Y-9366250I-87500J0D01*
G01*
X20058250Y-9366250D02*
G75*
G03X20058250Y-9366250I-87500J0D01*
G01*
X21074250Y-9366250D02*
G75*
G03X21074250Y-9366250I-87500J0D01*
G01*
X20296375Y-13176250D02*
G75*
G03X20296375Y-13176250I-87500J0D01*
G01*
X21312375Y-13176250D02*
G75*
G03X21312375Y-13176250I-87500J0D01*
G01*
X13867000Y-7461250D02*
G75*
G03X13867000Y-7461250I-87500J0D01*
G01*
X14883000Y-7461250D02*
G75*
G03X14883000Y-7461250I-87500J0D01*
G01*
X93850Y-11271250D02*
G75*
G03X93850Y-11271250I-87500J0D01*
G01*
X1109850Y-11271250D02*
G75*
G03X1109850Y-11271250I-87500J0D01*
G01*
X7199500Y-11271250D02*
G75*
G03X7199500Y-11271250I-87500J0D01*
G01*
X8215500Y-11271250D02*
G75*
G03X8215500Y-11271250I-87500J0D01*
G01*
X27202000Y-7461250D02*
G75*
G03X27202000Y-7461250I-87500J0D01*
G01*
X28218000Y-7461250D02*
G75*
G03X28218000Y-7461250I-87500J0D01*
G01*
X29583250Y-13176250D02*
G75*
G03X29583250Y-13176250I-87500J0D01*
G01*
X30599250Y-13176250D02*
G75*
G03X30599250Y-13176250I-87500J0D01*
G01*
X27678250Y-13176250D02*
G75*
G03X27678250Y-13176250I-87500J0D01*
G01*
X28694250Y-13176250D02*
G75*
G03X28694250Y-13176250I-87500J0D01*
G01*
X8152000Y-13176250D02*
G75*
G03X8152000Y-13176250I-87500J0D01*
G01*
X9168000Y-13176250D02*
G75*
G03X9168000Y-13176250I-87500J0D01*
G01*
X1998850Y-13176250D02*
G75*
G03X1998850Y-13176250I-87500J0D01*
G01*
X3014850Y-13176250D02*
G75*
G03X3014850Y-13176250I-87500J0D01*
G01*
X1998850Y-11271250D02*
G75*
G03X1998850Y-11271250I-87500J0D01*
G01*
X3014850Y-11271250D02*
G75*
G03X3014850Y-11271250I-87500J0D01*
G01*
X1998850Y-9366250D02*
G75*
G03X1998850Y-9366250I-87500J0D01*
G01*
X3014850Y-9366250D02*
G75*
G03X3014850Y-9366250I-87500J0D01*
G01*
X11962000Y-7461250D02*
G75*
G03X11962000Y-7461250I-87500J0D01*
G01*
X12978000Y-7461250D02*
G75*
G03X12978000Y-7461250I-87500J0D01*
G01*
X12200125Y-13176250D02*
G75*
G03X12200125Y-13176250I-87500J0D01*
G01*
X13216125Y-13176250D02*
G75*
G03X13216125Y-13176250I-87500J0D01*
G01*
X13867000Y-11271250D02*
G75*
G03X13867000Y-11271250I-87500J0D01*
G01*
X14883000Y-11271250D02*
G75*
G03X14883000Y-11271250I-87500J0D01*
G01*
X14343250Y-9366250D02*
G75*
G03X14343250Y-9366250I-87500J0D01*
G01*
X15359250Y-9366250D02*
G75*
G03X15359250Y-9366250I-87500J0D01*
G01*
X23392000Y-7461250D02*
G75*
G03X23392000Y-7461250I-87500J0D01*
G01*
X24408000Y-7461250D02*
G75*
G03X24408000Y-7461250I-87500J0D01*
G01*
X3903850Y-13176250D02*
G75*
G03X3903850Y-13176250I-87500J0D01*
G01*
X4919850Y-13176250D02*
G75*
G03X4919850Y-13176250I-87500J0D01*
G01*
X3903850Y-11271250D02*
G75*
G03X3903850Y-11271250I-87500J0D01*
G01*
X4919850Y-11271250D02*
G75*
G03X4919850Y-11271250I-87500J0D01*
G01*
X25297000Y-7461250D02*
G75*
G03X25297000Y-7461250I-87500J0D01*
G01*
X26313000Y-7461250D02*
G75*
G03X26313000Y-7461250I-87500J0D01*
G01*
X8628250Y-9366250D02*
G75*
G03X8628250Y-9366250I-87500J0D01*
G01*
X9644250Y-9366250D02*
G75*
G03X9644250Y-9366250I-87500J0D01*
G01*
X8152000Y-7461250D02*
G75*
G03X8152000Y-7461250I-87500J0D01*
G01*
X9168000Y-7461250D02*
G75*
G03X9168000Y-7461250I-87500J0D01*
G01*
X29345125Y-7461250D02*
G75*
G03X29345125Y-7461250I-87500J0D01*
G01*
X30361125Y-7461250D02*
G75*
G03X30361125Y-7461250I-87500J0D01*
G01*
X6247000Y-13176250D02*
G75*
G03X6247000Y-13176250I-87500J0D01*
G01*
X7263000Y-13176250D02*
G75*
G03X7263000Y-13176250I-87500J0D01*
G01*
X29583250Y-9366250D02*
G75*
G03X29583250Y-9366250I-87500J0D01*
G01*
X30599250Y-9366250D02*
G75*
G03X30599250Y-9366250I-87500J0D01*
G01*
X6247000Y-7461250D02*
G75*
G03X6247000Y-7461250I-87500J0D01*
G01*
X7263000Y-7461250D02*
G75*
G03X7263000Y-7461250I-87500J0D01*
G01*
X18153250Y-9366250D02*
G75*
G03X18153250Y-9366250I-87500J0D01*
G01*
X19169250Y-9366250D02*
G75*
G03X19169250Y-9366250I-87500J0D01*
G01*
X10057000Y-11271250D02*
G75*
G03X10057000Y-11271250I-87500J0D01*
G01*
X11073000Y-11271250D02*
G75*
G03X11073000Y-11271250I-87500J0D01*
G01*
X11962000Y-11271250D02*
G75*
G03X11962000Y-11271250I-87500J0D01*
G01*
X12978000Y-11271250D02*
G75*
G03X12978000Y-11271250I-87500J0D01*
G01*
X-1811150Y-9366250D02*
G75*
G03X-1811150Y-9366250I-87500J0D01*
G01*
X-795150Y-9366250D02*
G75*
G03X-795150Y-9366250I-87500J0D01*
G01*
X16248250Y-13176250D02*
G75*
G03X16248250Y-13176250I-87500J0D01*
G01*
X17264250Y-13176250D02*
G75*
G03X17264250Y-13176250I-87500J0D01*
G01*
X19582000Y-7461250D02*
G75*
G03X19582000Y-7461250I-87500J0D01*
G01*
X20598000Y-7461250D02*
G75*
G03X20598000Y-7461250I-87500J0D01*
G01*
X21963250Y-9366250D02*
G75*
G03X21963250Y-9366250I-87500J0D01*
G01*
X22979250Y-9366250D02*
G75*
G03X22979250Y-9366250I-87500J0D01*
G01*
X10057000Y-7461250D02*
G75*
G03X10057000Y-7461250I-87500J0D01*
G01*
X11073000Y-7461250D02*
G75*
G03X11073000Y-7461250I-87500J0D01*
G01*
X23868250Y-9366250D02*
G75*
G03X23868250Y-9366250I-87500J0D01*
G01*
X24884250Y-9366250D02*
G75*
G03X24884250Y-9366250I-87500J0D01*
G01*
X27678250Y-9366250D02*
G75*
G03X27678250Y-9366250I-87500J0D01*
G01*
X28694250Y-9366250D02*
G75*
G03X28694250Y-9366250I-87500J0D01*
G01*
X25773250Y-13176250D02*
G75*
G03X25773250Y-13176250I-87500J0D01*
G01*
X26789250Y-13176250D02*
G75*
G03X26789250Y-13176250I-87500J0D01*
G01*
X93850Y-7461250D02*
G75*
G03X93850Y-7461250I-87500J0D01*
G01*
X1109850Y-7461250D02*
G75*
G03X1109850Y-7461250I-87500J0D01*
G01*
X93850Y-13176250D02*
G75*
G03X93850Y-13176250I-87500J0D01*
G01*
X1109850Y-13176250D02*
G75*
G03X1109850Y-13176250I-87500J0D01*
G01*
X10057000Y-13176250D02*
G75*
G03X10057000Y-13176250I-87500J0D01*
G01*
X11073000Y-13176250D02*
G75*
G03X11073000Y-13176250I-87500J0D01*
G01*
X3903850Y-7461250D02*
G75*
G03X3903850Y-7461250I-87500J0D01*
G01*
X4919850Y-7461250D02*
G75*
G03X4919850Y-7461250I-87500J0D01*
G01*
X23153875Y-13176250D02*
G75*
G03X23153875Y-13176250I-87500J0D01*
G01*
X24169875Y-13176250D02*
G75*
G03X24169875Y-13176250I-87500J0D01*
G01*
X-1811150Y-7461250D02*
G75*
G03X-1811150Y-7461250I-87500J0D01*
G01*
X-795150Y-7461250D02*
G75*
G03X-795150Y-7461250I-87500J0D01*
G01*
X21487000Y-11271250D02*
G75*
G03X21487000Y-11271250I-87500J0D01*
G01*
X22503000Y-11271250D02*
G75*
G03X22503000Y-11271250I-87500J0D01*
G01*
X6426200Y-10420350D02*
X6426200Y-10725150D01*
X6273800Y-10572750D02*
X6578600Y-10572750D01*
X8813800Y-10420350D02*
X8813800Y-10725150D01*
X8661400Y-10572750D02*
X8966200Y-10572750D01*
X14763750Y-12325350D02*
X14763750Y-12630150D01*
X14611350Y-12477750D02*
X14916150Y-12477750D01*
X18573750Y-12325350D02*
X18573750Y-12630150D01*
X18421350Y-12477750D02*
X18726150Y-12477750D01*
X7046616Y-9507241D02*
X7046616Y-9225259D01*
X6764634Y-9225259D01*
X6764634Y-9507241D01*
X7046616Y-9507241D01*
X11094741Y-9507241D02*
X11094741Y-9225259D01*
X10812759Y-9225259D01*
X10812759Y-9507241D01*
X11094741Y-9507241D01*
X16333491Y-7602241D02*
X16333491Y-7320259D01*
X16051509Y-7320259D01*
X16051509Y-7602241D01*
X16333491Y-7602241D01*
X655341Y-9507241D02*
X655341Y-9225259D01*
X373359Y-9225259D01*
X373359Y-9507241D01*
X655341Y-9507241D01*
X20619741Y-9507241D02*
X20619741Y-9225259D01*
X20337759Y-9225259D01*
X20337759Y-9507241D01*
X20619741Y-9507241D01*
X20857866Y-13317241D02*
X20857866Y-13035259D01*
X20575884Y-13035259D01*
X20575884Y-13317241D01*
X20857866Y-13317241D01*
X14428491Y-7602241D02*
X14428491Y-7320259D01*
X14146509Y-7320259D01*
X14146509Y-7602241D01*
X14428491Y-7602241D01*
X655341Y-11412241D02*
X655341Y-11130259D01*
X373359Y-11130259D01*
X373359Y-11412241D01*
X655341Y-11412241D01*
X6567191Y-12237741D02*
X6567191Y-11955759D01*
X6285209Y-11955759D01*
X6285209Y-12237741D01*
X6567191Y-12237741D01*
X7760991Y-11412241D02*
X7760991Y-11130259D01*
X7479009Y-11130259D01*
X7479009Y-11412241D01*
X7760991Y-11412241D01*
X8954791Y-12237741D02*
X8954791Y-11955759D01*
X8672809Y-11955759D01*
X8672809Y-12237741D01*
X8954791Y-12237741D01*
X27763491Y-7602241D02*
X27763491Y-7320259D01*
X27481509Y-7320259D01*
X27481509Y-7602241D01*
X27763491Y-7602241D01*
X30144741Y-13317241D02*
X30144741Y-13035259D01*
X29862759Y-13035259D01*
X29862759Y-13317241D01*
X30144741Y-13317241D01*
X28239741Y-13317241D02*
X28239741Y-13035259D01*
X27957759Y-13035259D01*
X27957759Y-13317241D01*
X28239741Y-13317241D01*
X8713491Y-13317241D02*
X8713491Y-13035259D01*
X8431509Y-13035259D01*
X8431509Y-13317241D01*
X8713491Y-13317241D01*
X2560341Y-13317241D02*
X2560341Y-13035259D01*
X2278359Y-13035259D01*
X2278359Y-13317241D01*
X2560341Y-13317241D01*
X2560341Y-11412241D02*
X2560341Y-11130259D01*
X2278359Y-11130259D01*
X2278359Y-11412241D01*
X2560341Y-11412241D01*
X2560341Y-9507241D02*
X2560341Y-9225259D01*
X2278359Y-9225259D01*
X2278359Y-9507241D01*
X2560341Y-9507241D01*
X12523491Y-7602241D02*
X12523491Y-7320259D01*
X12241509Y-7320259D01*
X12241509Y-7602241D01*
X12523491Y-7602241D01*
X12761616Y-13317241D02*
X12761616Y-13035259D01*
X12479634Y-13035259D01*
X12479634Y-13317241D01*
X12761616Y-13317241D01*
X14428491Y-11412241D02*
X14428491Y-11130259D01*
X14146509Y-11130259D01*
X14146509Y-11412241D01*
X14428491Y-11412241D01*
X14904741Y-9507241D02*
X14904741Y-9225259D01*
X14622759Y-9225259D01*
X14622759Y-9507241D01*
X14904741Y-9507241D01*
X23953491Y-7602241D02*
X23953491Y-7320259D01*
X23671509Y-7320259D01*
X23671509Y-7602241D01*
X23953491Y-7602241D01*
X4465341Y-13317241D02*
X4465341Y-13035259D01*
X4183359Y-13035259D01*
X4183359Y-13317241D01*
X4465341Y-13317241D01*
X4465341Y-11412241D02*
X4465341Y-11130259D01*
X4183359Y-11130259D01*
X4183359Y-11412241D01*
X4465341Y-11412241D01*
X25858491Y-7602241D02*
X25858491Y-7320259D01*
X25576509Y-7320259D01*
X25576509Y-7602241D01*
X25858491Y-7602241D01*
X9189741Y-9507241D02*
X9189741Y-9225259D01*
X8907759Y-9225259D01*
X8907759Y-9507241D01*
X9189741Y-9507241D01*
X8713491Y-7602241D02*
X8713491Y-7320259D01*
X8431509Y-7320259D01*
X8431509Y-7602241D01*
X8713491Y-7602241D01*
X29906616Y-7602241D02*
X29906616Y-7320259D01*
X29624634Y-7320259D01*
X29624634Y-7602241D01*
X29906616Y-7602241D01*
X6808491Y-13317241D02*
X6808491Y-13035259D01*
X6526509Y-13035259D01*
X6526509Y-13317241D01*
X6808491Y-13317241D01*
X30144741Y-9507241D02*
X30144741Y-9225259D01*
X29862759Y-9225259D01*
X29862759Y-9507241D01*
X30144741Y-9507241D01*
X6808491Y-7602241D02*
X6808491Y-7320259D01*
X6526509Y-7320259D01*
X6526509Y-7602241D01*
X6808491Y-7602241D01*
X18714741Y-9507241D02*
X18714741Y-9225259D01*
X18432759Y-9225259D01*
X18432759Y-9507241D01*
X18714741Y-9507241D01*
X10618491Y-11412241D02*
X10618491Y-11130259D01*
X10336509Y-11130259D01*
X10336509Y-11412241D01*
X10618491Y-11412241D01*
X12523491Y-11412241D02*
X12523491Y-11130259D01*
X12241509Y-11130259D01*
X12241509Y-11412241D01*
X12523491Y-11412241D01*
X-1249659Y-9507241D02*
X-1249659Y-9225259D01*
X-1531641Y-9225259D01*
X-1531641Y-9507241D01*
X-1249659Y-9507241D01*
X14904741Y-14142741D02*
X14904741Y-13860759D01*
X14622759Y-13860759D01*
X14622759Y-14142741D01*
X14904741Y-14142741D01*
X16809741Y-13317241D02*
X16809741Y-13035259D01*
X16527759Y-13035259D01*
X16527759Y-13317241D01*
X16809741Y-13317241D01*
X18714741Y-14142741D02*
X18714741Y-13860759D01*
X18432759Y-13860759D01*
X18432759Y-14142741D01*
X18714741Y-14142741D01*
X20143491Y-7602241D02*
X20143491Y-7320259D01*
X19861509Y-7320259D01*
X19861509Y-7602241D01*
X20143491Y-7602241D01*
X22524741Y-9507241D02*
X22524741Y-9225259D01*
X22242759Y-9225259D01*
X22242759Y-9507241D01*
X22524741Y-9507241D01*
X10618491Y-7602241D02*
X10618491Y-7320259D01*
X10336509Y-7320259D01*
X10336509Y-7602241D01*
X10618491Y-7602241D01*
X24429741Y-9507241D02*
X24429741Y-9225259D01*
X24147759Y-9225259D01*
X24147759Y-9507241D01*
X24429741Y-9507241D01*
X28239741Y-9507241D02*
X28239741Y-9225259D01*
X27957759Y-9225259D01*
X27957759Y-9507241D01*
X28239741Y-9507241D01*
X26334741Y-13317241D02*
X26334741Y-13035259D01*
X26052759Y-13035259D01*
X26052759Y-13317241D01*
X26334741Y-13317241D01*
X655341Y-7602241D02*
X655341Y-7320259D01*
X373359Y-7320259D01*
X373359Y-7602241D01*
X655341Y-7602241D01*
X655341Y-13317241D02*
X655341Y-13035259D01*
X373359Y-13035259D01*
X373359Y-13317241D01*
X655341Y-13317241D01*
X10618491Y-13317241D02*
X10618491Y-13035259D01*
X10336509Y-13035259D01*
X10336509Y-13317241D01*
X10618491Y-13317241D01*
X4465341Y-7602241D02*
X4465341Y-7320259D01*
X4183359Y-7320259D01*
X4183359Y-7602241D01*
X4465341Y-7602241D01*
X23715366Y-13317241D02*
X23715366Y-13035259D01*
X23433384Y-13035259D01*
X23433384Y-13317241D01*
X23715366Y-13317241D01*
X-1249659Y-7602241D02*
X-1249659Y-7320259D01*
X-1531641Y-7320259D01*
X-1531641Y-7602241D01*
X-1249659Y-7602241D01*
X22048491Y-11412241D02*
X22048491Y-11130259D01*
X21766509Y-11130259D01*
X21766509Y-11412241D01*
X22048491Y-11412241D01*
X22048491Y-7602241D02*
X22048491Y-7320259D01*
X21766509Y-7320259D01*
X21766509Y-7602241D01*
X22048491Y-7602241D01*
X18238491Y-7602241D02*
X18238491Y-7320259D01*
X17956509Y-7320259D01*
X17956509Y-7602241D01*
X18238491Y-7602241D01*
X-1249659Y-11412241D02*
X-1249659Y-11130259D01*
X-1531641Y-11130259D01*
X-1531641Y-11412241D01*
X-1249659Y-11412241D01*
X29906616Y-11412241D02*
X29906616Y-11130259D01*
X29624634Y-11130259D01*
X29624634Y-11412241D01*
X29906616Y-11412241D01*
X16809741Y-9507241D02*
X16809741Y-9225259D01*
X16527759Y-9225259D01*
X16527759Y-9507241D01*
X16809741Y-9507241D01*
X26334741Y-9507241D02*
X26334741Y-9225259D01*
X26052759Y-9225259D01*
X26052759Y-9507241D01*
X26334741Y-9507241D01*
X20143491Y-11412241D02*
X20143491Y-11130259D01*
X19861509Y-11130259D01*
X19861509Y-11412241D01*
X20143491Y-11412241D01*
X4465341Y-9507241D02*
X4465341Y-9225259D01*
X4183359Y-9225259D01*
X4183359Y-9507241D01*
X4465341Y-9507241D01*
X25858491Y-11412241D02*
X25858491Y-11130259D01*
X25576509Y-11130259D01*
X25576509Y-11412241D01*
X25858491Y-11412241D01*
X27763491Y-11412241D02*
X27763491Y-11130259D01*
X27481509Y-11130259D01*
X27481509Y-11412241D01*
X27763491Y-11412241D01*
X-1249659Y-13317241D02*
X-1249659Y-13035259D01*
X-1531641Y-13035259D01*
X-1531641Y-13317241D01*
X-1249659Y-13317241D01*
X23953491Y-11412241D02*
X23953491Y-11130259D01*
X23671509Y-11130259D01*
X23671509Y-11412241D01*
X23953491Y-11412241D01*
X2560341Y-7602241D02*
X2560341Y-7320259D01*
X2278359Y-7320259D01*
X2278359Y-7602241D01*
X2560341Y-7602241D01*
X18238491Y-11412241D02*
X18238491Y-11130259D01*
X17956509Y-11130259D01*
X17956509Y-11412241D01*
X18238491Y-11412241D01*
X12999741Y-9507241D02*
X12999741Y-9225259D01*
X12717759Y-9225259D01*
X12717759Y-9507241D01*
X12999741Y-9507241D01*
X16333491Y-11412241D02*
X16333491Y-11130259D01*
X16051509Y-11130259D01*
X16051509Y-11412241D01*
X16333491Y-11412241D01*
D12*
X-2388072Y-14925814D02*
X-2388072Y-14625814D01*
X-2316643Y-14625814D01*
X-2273786Y-14640100D01*
X-2245214Y-14668671D01*
X-2230929Y-14697243D01*
X-2216643Y-14754386D01*
X-2216643Y-14797243D01*
X-2230929Y-14854386D01*
X-2245214Y-14882957D01*
X-2273786Y-14911529D01*
X-2316643Y-14925814D01*
X-2388072Y-14925814D01*
X-2088071Y-14925814D02*
X-2088071Y-14725814D01*
X-2088071Y-14782957D02*
X-2073786Y-14754386D01*
X-2059500Y-14740100D01*
X-2030929Y-14725814D01*
X-2002357Y-14725814D01*
X-1902357Y-14925814D02*
X-1902357Y-14725814D01*
X-1902357Y-14625814D02*
X-1916643Y-14640100D01*
X-1902357Y-14654386D01*
X-1888071Y-14640100D01*
X-1902357Y-14625814D01*
X-1902357Y-14654386D01*
X-1716643Y-14925814D02*
X-1745214Y-14911529D01*
X-1759500Y-14882957D01*
X-1759500Y-14625814D01*
X-1559500Y-14925814D02*
X-1588071Y-14911529D01*
X-1602357Y-14882957D01*
X-1602357Y-14625814D01*
X-1216643Y-14925814D02*
X-1216643Y-14625814D01*
X-1116643Y-14840100D01*
X-1016643Y-14625814D01*
X-1016643Y-14925814D01*
X-745214Y-14925814D02*
X-745214Y-14768671D01*
X-759500Y-14740100D01*
X-788071Y-14725814D01*
X-845214Y-14725814D01*
X-873786Y-14740100D01*
X-745214Y-14911529D02*
X-773786Y-14925814D01*
X-845214Y-14925814D01*
X-873786Y-14911529D01*
X-888071Y-14882957D01*
X-888071Y-14854386D01*
X-873786Y-14825814D01*
X-845214Y-14811529D01*
X-773786Y-14811529D01*
X-745214Y-14797243D01*
X-602357Y-14725814D02*
X-602357Y-15025814D01*
X-602357Y-14740100D02*
X-573786Y-14725814D01*
X-516643Y-14725814D01*
X-488071Y-14740100D01*
X-473786Y-14754386D01*
X-459500Y-14782957D01*
X-459500Y-14868671D01*
X-473786Y-14897243D01*
X-488071Y-14911529D01*
X-516643Y-14925814D01*
X-573786Y-14925814D01*
X-602357Y-14911529D01*
X-330929Y-14897243D02*
X-316643Y-14911529D01*
X-330929Y-14925814D01*
X-345214Y-14911529D01*
X-330929Y-14897243D01*
X-330929Y-14925814D01*
X-330929Y-14740100D02*
X-316643Y-14754386D01*
X-330929Y-14768671D01*
X-345214Y-14754386D01*
X-330929Y-14740100D01*
X-330929Y-14768671D01*
X-2739500Y-15387600D02*
X-2674500Y-15452600D01*
X-2674500Y-15387600D02*
X-2739500Y-15452600D01*
X-2330929Y-15255814D02*
X-2302357Y-15255814D01*
X-2273786Y-15270100D01*
X-2259500Y-15284386D01*
X-2245214Y-15312957D01*
X-2230929Y-15370100D01*
X-2230929Y-15441529D01*
X-2245214Y-15498671D01*
X-2259500Y-15527243D01*
X-2273786Y-15541529D01*
X-2302357Y-15555814D01*
X-2330929Y-15555814D01*
X-2359500Y-15541529D01*
X-2373786Y-15527243D01*
X-2388072Y-15498671D01*
X-2402357Y-15441529D01*
X-2402357Y-15370100D01*
X-2388072Y-15312957D01*
X-2373786Y-15284386D01*
X-2359500Y-15270100D01*
X-2330929Y-15255814D01*
X-2102357Y-15527243D02*
X-2088071Y-15541529D01*
X-2102357Y-15555814D01*
X-2116643Y-15541529D01*
X-2102357Y-15527243D01*
X-2102357Y-15555814D01*
X-1830929Y-15255814D02*
X-1888071Y-15255814D01*
X-1916643Y-15270100D01*
X-1930929Y-15284386D01*
X-1959500Y-15327243D01*
X-1973786Y-15384386D01*
X-1973786Y-15498671D01*
X-1959500Y-15527243D01*
X-1945214Y-15541529D01*
X-1916643Y-15555814D01*
X-1859500Y-15555814D01*
X-1830929Y-15541529D01*
X-1816643Y-15527243D01*
X-1802357Y-15498671D01*
X-1802357Y-15427243D01*
X-1816643Y-15398671D01*
X-1830929Y-15384386D01*
X-1859500Y-15370100D01*
X-1916643Y-15370100D01*
X-1945214Y-15384386D01*
X-1959500Y-15398671D01*
X-1973786Y-15427243D01*
X-1530929Y-15255814D02*
X-1673786Y-15255814D01*
X-1688071Y-15398671D01*
X-1673786Y-15384386D01*
X-1645214Y-15370100D01*
X-1573786Y-15370100D01*
X-1545214Y-15384386D01*
X-1530929Y-15398671D01*
X-1516643Y-15427243D01*
X-1516643Y-15498671D01*
X-1530929Y-15527243D01*
X-1545214Y-15541529D01*
X-1573786Y-15555814D01*
X-1645214Y-15555814D01*
X-1673786Y-15541529D01*
X-1688071Y-15527243D01*
X-1388072Y-15555814D02*
X-1388072Y-15355814D01*
X-1388072Y-15384386D02*
X-1373786Y-15370100D01*
X-1345214Y-15355814D01*
X-1302357Y-15355814D01*
X-1273786Y-15370100D01*
X-1259500Y-15398671D01*
X-1259500Y-15555814D01*
X-1259500Y-15398671D02*
X-1245214Y-15370100D01*
X-1216643Y-15355814D01*
X-1173786Y-15355814D01*
X-1145214Y-15370100D01*
X-1130929Y-15398671D01*
X-1130929Y-15555814D01*
X-988071Y-15555814D02*
X-988071Y-15355814D01*
X-988071Y-15384386D02*
X-973786Y-15370100D01*
X-945214Y-15355814D01*
X-902357Y-15355814D01*
X-873786Y-15370100D01*
X-859500Y-15398671D01*
X-859500Y-15555814D01*
X-859500Y-15398671D02*
X-845214Y-15370100D01*
X-816643Y-15355814D01*
X-773786Y-15355814D01*
X-745214Y-15370100D01*
X-730929Y-15398671D01*
X-730929Y-15555814D01*
X-145214Y-15241529D02*
X-402357Y-15627243D01*
X240500Y-15255814D02*
X269071Y-15255814D01*
X297643Y-15270100D01*
X311928Y-15284386D01*
X326214Y-15312957D01*
X340500Y-15370100D01*
X340500Y-15441529D01*
X326214Y-15498671D01*
X311928Y-15527243D01*
X297643Y-15541529D01*
X269071Y-15555814D01*
X240500Y-15555814D01*
X211928Y-15541529D01*
X197643Y-15527243D01*
X183357Y-15498671D01*
X169071Y-15441529D01*
X169071Y-15370100D01*
X183357Y-15312957D01*
X197643Y-15284386D01*
X211928Y-15270100D01*
X240500Y-15255814D01*
X469071Y-15527243D02*
X483357Y-15541529D01*
X469071Y-15555814D01*
X454786Y-15541529D01*
X469071Y-15527243D01*
X469071Y-15555814D01*
X669071Y-15255814D02*
X697643Y-15255814D01*
X726214Y-15270100D01*
X740500Y-15284386D01*
X754786Y-15312957D01*
X769071Y-15370100D01*
X769071Y-15441529D01*
X754786Y-15498671D01*
X740500Y-15527243D01*
X726214Y-15541529D01*
X697643Y-15555814D01*
X669071Y-15555814D01*
X640500Y-15541529D01*
X626214Y-15527243D01*
X611928Y-15498671D01*
X597643Y-15441529D01*
X597643Y-15370100D01*
X611928Y-15312957D01*
X626214Y-15284386D01*
X640500Y-15270100D01*
X669071Y-15255814D01*
X883357Y-15284386D02*
X897643Y-15270100D01*
X926214Y-15255814D01*
X997643Y-15255814D01*
X1026214Y-15270100D01*
X1040500Y-15284386D01*
X1054786Y-15312957D01*
X1054786Y-15341529D01*
X1040500Y-15384386D01*
X869071Y-15555814D01*
X1054786Y-15555814D01*
X1311928Y-15255814D02*
X1254786Y-15255814D01*
X1226214Y-15270100D01*
X1211928Y-15284386D01*
X1183357Y-15327243D01*
X1169071Y-15384386D01*
X1169071Y-15498671D01*
X1183357Y-15527243D01*
X1197643Y-15541529D01*
X1226214Y-15555814D01*
X1283357Y-15555814D01*
X1311928Y-15541529D01*
X1326214Y-15527243D01*
X1340500Y-15498671D01*
X1340500Y-15427243D01*
X1326214Y-15398671D01*
X1311928Y-15384386D01*
X1283357Y-15370100D01*
X1226214Y-15370100D01*
X1197643Y-15384386D01*
X1183357Y-15398671D01*
X1169071Y-15427243D01*
X1454786Y-15255814D02*
X1454786Y-15312957D01*
X1569071Y-15255814D02*
X1569071Y-15312957D01*
X2011928Y-15670100D02*
X1997643Y-15655814D01*
X1969071Y-15612957D01*
X1954786Y-15584386D01*
X1940500Y-15541529D01*
X1926214Y-15470100D01*
X1926214Y-15412957D01*
X1940500Y-15341529D01*
X1954786Y-15298671D01*
X1969071Y-15270100D01*
X1997643Y-15227243D01*
X2011928Y-15212957D01*
X2111928Y-15284386D02*
X2126214Y-15270100D01*
X2154786Y-15255814D01*
X2226214Y-15255814D01*
X2254786Y-15270100D01*
X2269071Y-15284386D01*
X2283357Y-15312957D01*
X2283357Y-15341529D01*
X2269071Y-15384386D01*
X2097643Y-15555814D01*
X2283357Y-15555814D01*
X2640500Y-15555814D02*
X2640500Y-15255814D01*
X2769071Y-15555814D02*
X2769071Y-15398671D01*
X2754786Y-15370100D01*
X2726214Y-15355814D01*
X2683357Y-15355814D01*
X2654786Y-15370100D01*
X2640500Y-15384386D01*
X2954786Y-15555814D02*
X2926214Y-15541529D01*
X2911928Y-15527243D01*
X2897643Y-15498671D01*
X2897643Y-15412957D01*
X2911928Y-15384386D01*
X2926214Y-15370100D01*
X2954786Y-15355814D01*
X2997643Y-15355814D01*
X3026214Y-15370100D01*
X3040500Y-15384386D01*
X3054786Y-15412957D01*
X3054786Y-15498671D01*
X3040500Y-15527243D01*
X3026214Y-15541529D01*
X2997643Y-15555814D01*
X2954786Y-15555814D01*
X3226214Y-15555814D02*
X3197643Y-15541529D01*
X3183357Y-15512957D01*
X3183357Y-15255814D01*
X3454786Y-15541529D02*
X3426214Y-15555814D01*
X3369071Y-15555814D01*
X3340500Y-15541529D01*
X3326214Y-15512957D01*
X3326214Y-15398671D01*
X3340500Y-15370100D01*
X3369071Y-15355814D01*
X3426214Y-15355814D01*
X3454786Y-15370100D01*
X3469071Y-15398671D01*
X3469071Y-15427243D01*
X3326214Y-15455814D01*
X3583357Y-15541529D02*
X3611928Y-15555814D01*
X3669071Y-15555814D01*
X3697643Y-15541529D01*
X3711928Y-15512957D01*
X3711928Y-15498671D01*
X3697643Y-15470100D01*
X3669071Y-15455814D01*
X3626214Y-15455814D01*
X3597643Y-15441529D01*
X3583357Y-15412957D01*
X3583357Y-15398671D01*
X3597643Y-15370100D01*
X3626214Y-15355814D01*
X3669071Y-15355814D01*
X3697643Y-15370100D01*
X3811928Y-15670100D02*
X3826214Y-15655814D01*
X3854786Y-15612957D01*
X3869071Y-15584386D01*
X3883357Y-15541529D01*
X3897643Y-15470100D01*
X3897643Y-15412957D01*
X3883357Y-15341529D01*
X3869071Y-15298671D01*
X3854786Y-15270100D01*
X3826214Y-15227243D01*
X3811928Y-15212957D01*
X4354786Y-15670100D02*
X4340500Y-15655814D01*
X4311928Y-15612957D01*
X4297643Y-15584386D01*
X4283357Y-15541529D01*
X4269071Y-15470100D01*
X4269071Y-15412957D01*
X4283357Y-15341529D01*
X4297643Y-15298671D01*
X4311928Y-15270100D01*
X4340500Y-15227243D01*
X4354786Y-15212957D01*
X4469071Y-15355814D02*
X4469071Y-15555814D01*
X4469071Y-15384386D02*
X4483357Y-15370100D01*
X4511928Y-15355814D01*
X4554786Y-15355814D01*
X4583357Y-15370100D01*
X4597643Y-15398671D01*
X4597643Y-15555814D01*
X4783357Y-15555814D02*
X4754786Y-15541529D01*
X4740500Y-15527243D01*
X4726214Y-15498671D01*
X4726214Y-15412957D01*
X4740500Y-15384386D01*
X4754786Y-15370100D01*
X4783357Y-15355814D01*
X4826214Y-15355814D01*
X4854786Y-15370100D01*
X4869071Y-15384386D01*
X4883357Y-15412957D01*
X4883357Y-15498671D01*
X4869071Y-15527243D01*
X4854786Y-15541529D01*
X4826214Y-15555814D01*
X4783357Y-15555814D01*
X4969071Y-15355814D02*
X5083357Y-15355814D01*
X5011928Y-15255814D02*
X5011928Y-15512957D01*
X5026214Y-15541529D01*
X5054786Y-15555814D01*
X5083357Y-15555814D01*
X5411928Y-15355814D02*
X5411928Y-15655814D01*
X5411928Y-15370100D02*
X5440500Y-15355814D01*
X5497643Y-15355814D01*
X5526214Y-15370100D01*
X5540500Y-15384386D01*
X5554786Y-15412957D01*
X5554786Y-15498671D01*
X5540500Y-15527243D01*
X5526214Y-15541529D01*
X5497643Y-15555814D01*
X5440500Y-15555814D01*
X5411928Y-15541529D01*
X5726214Y-15555814D02*
X5697643Y-15541529D01*
X5683357Y-15512957D01*
X5683357Y-15255814D01*
X5969071Y-15555814D02*
X5969071Y-15398671D01*
X5954786Y-15370100D01*
X5926214Y-15355814D01*
X5869071Y-15355814D01*
X5840500Y-15370100D01*
X5969071Y-15541529D02*
X5940500Y-15555814D01*
X5869071Y-15555814D01*
X5840500Y-15541529D01*
X5826214Y-15512957D01*
X5826214Y-15484386D01*
X5840500Y-15455814D01*
X5869071Y-15441529D01*
X5940500Y-15441529D01*
X5969071Y-15427243D01*
X6069071Y-15355814D02*
X6183357Y-15355814D01*
X6111928Y-15255814D02*
X6111928Y-15512957D01*
X6126214Y-15541529D01*
X6154786Y-15555814D01*
X6183357Y-15555814D01*
X6397643Y-15541529D02*
X6369071Y-15555814D01*
X6311928Y-15555814D01*
X6283357Y-15541529D01*
X6269071Y-15512957D01*
X6269071Y-15398671D01*
X6283357Y-15370100D01*
X6311928Y-15355814D01*
X6369071Y-15355814D01*
X6397643Y-15370100D01*
X6411928Y-15398671D01*
X6411928Y-15427243D01*
X6269071Y-15455814D01*
X6669071Y-15555814D02*
X6669071Y-15255814D01*
X6669071Y-15541529D02*
X6640500Y-15555814D01*
X6583357Y-15555814D01*
X6554786Y-15541529D01*
X6540500Y-15527243D01*
X6526214Y-15498671D01*
X6526214Y-15412957D01*
X6540500Y-15384386D01*
X6554786Y-15370100D01*
X6583357Y-15355814D01*
X6640500Y-15355814D01*
X6669071Y-15370100D01*
X6783357Y-15670100D02*
X6797643Y-15655814D01*
X6826214Y-15612957D01*
X6840500Y-15584386D01*
X6854786Y-15541529D01*
X6869071Y-15470100D01*
X6869071Y-15412957D01*
X6854786Y-15341529D01*
X6840500Y-15298671D01*
X6826214Y-15270100D01*
X6797643Y-15227243D01*
X6783357Y-15212957D01*
X-2674500Y-15816100D02*
G75*
G03X-2674500Y-15816100I-87500J0D01*
G01*
X-2230929Y-15951814D02*
X-2402357Y-15951814D01*
X-2316643Y-15951814D02*
X-2316643Y-15651814D01*
X-2345214Y-15694671D01*
X-2373786Y-15723243D01*
X-2402357Y-15737529D01*
X-2102357Y-15923243D02*
X-2088071Y-15937529D01*
X-2102357Y-15951814D01*
X-2116643Y-15937529D01*
X-2102357Y-15923243D01*
X-2102357Y-15951814D01*
X-1988071Y-15651814D02*
X-1788071Y-15651814D01*
X-1916643Y-15951814D01*
X-1530929Y-15651814D02*
X-1673786Y-15651814D01*
X-1688071Y-15794671D01*
X-1673786Y-15780386D01*
X-1645214Y-15766100D01*
X-1573786Y-15766100D01*
X-1545214Y-15780386D01*
X-1530929Y-15794671D01*
X-1516643Y-15823243D01*
X-1516643Y-15894671D01*
X-1530929Y-15923243D01*
X-1545214Y-15937529D01*
X-1573786Y-15951814D01*
X-1645214Y-15951814D01*
X-1673786Y-15937529D01*
X-1688071Y-15923243D01*
X-1388072Y-15951814D02*
X-1388072Y-15751814D01*
X-1388072Y-15780386D02*
X-1373786Y-15766100D01*
X-1345214Y-15751814D01*
X-1302357Y-15751814D01*
X-1273786Y-15766100D01*
X-1259500Y-15794671D01*
X-1259500Y-15951814D01*
X-1259500Y-15794671D02*
X-1245214Y-15766100D01*
X-1216643Y-15751814D01*
X-1173786Y-15751814D01*
X-1145214Y-15766100D01*
X-1130929Y-15794671D01*
X-1130929Y-15951814D01*
X-988071Y-15951814D02*
X-988071Y-15751814D01*
X-988071Y-15780386D02*
X-973786Y-15766100D01*
X-945214Y-15751814D01*
X-902357Y-15751814D01*
X-873786Y-15766100D01*
X-859500Y-15794671D01*
X-859500Y-15951814D01*
X-859500Y-15794671D02*
X-845214Y-15766100D01*
X-816643Y-15751814D01*
X-773786Y-15751814D01*
X-745214Y-15766100D01*
X-730929Y-15794671D01*
X-730929Y-15951814D01*
X-145214Y-15637529D02*
X-402357Y-16023243D01*
X240500Y-15651814D02*
X269071Y-15651814D01*
X297643Y-15666100D01*
X311928Y-15680386D01*
X326214Y-15708957D01*
X340500Y-15766100D01*
X340500Y-15837529D01*
X326214Y-15894671D01*
X311928Y-15923243D01*
X297643Y-15937529D01*
X269071Y-15951814D01*
X240500Y-15951814D01*
X211928Y-15937529D01*
X197643Y-15923243D01*
X183357Y-15894671D01*
X169071Y-15837529D01*
X169071Y-15766100D01*
X183357Y-15708957D01*
X197643Y-15680386D01*
X211928Y-15666100D01*
X240500Y-15651814D01*
X469071Y-15923243D02*
X483357Y-15937529D01*
X469071Y-15951814D01*
X454786Y-15937529D01*
X469071Y-15923243D01*
X469071Y-15951814D01*
X669071Y-15651814D02*
X697643Y-15651814D01*
X726214Y-15666100D01*
X740500Y-15680386D01*
X754786Y-15708957D01*
X769071Y-15766100D01*
X769071Y-15837529D01*
X754786Y-15894671D01*
X740500Y-15923243D01*
X726214Y-15937529D01*
X697643Y-15951814D01*
X669071Y-15951814D01*
X640500Y-15937529D01*
X626214Y-15923243D01*
X611928Y-15894671D01*
X597643Y-15837529D01*
X597643Y-15766100D01*
X611928Y-15708957D01*
X626214Y-15680386D01*
X640500Y-15666100D01*
X669071Y-15651814D01*
X1026214Y-15651814D02*
X969071Y-15651814D01*
X940500Y-15666100D01*
X926214Y-15680386D01*
X897643Y-15723243D01*
X883357Y-15780386D01*
X883357Y-15894671D01*
X897643Y-15923243D01*
X911928Y-15937529D01*
X940500Y-15951814D01*
X997643Y-15951814D01*
X1026214Y-15937529D01*
X1040500Y-15923243D01*
X1054786Y-15894671D01*
X1054786Y-15823243D01*
X1040500Y-15794671D01*
X1026214Y-15780386D01*
X997643Y-15766100D01*
X940500Y-15766100D01*
X911928Y-15780386D01*
X897643Y-15794671D01*
X883357Y-15823243D01*
X1197643Y-15951814D02*
X1254786Y-15951814D01*
X1283357Y-15937529D01*
X1297643Y-15923243D01*
X1326214Y-15880386D01*
X1340500Y-15823243D01*
X1340500Y-15708957D01*
X1326214Y-15680386D01*
X1311928Y-15666100D01*
X1283357Y-15651814D01*
X1226214Y-15651814D01*
X1197643Y-15666100D01*
X1183357Y-15680386D01*
X1169071Y-15708957D01*
X1169071Y-15780386D01*
X1183357Y-15808957D01*
X1197643Y-15823243D01*
X1226214Y-15837529D01*
X1283357Y-15837529D01*
X1311928Y-15823243D01*
X1326214Y-15808957D01*
X1340500Y-15780386D01*
X1454786Y-15651814D02*
X1454786Y-15708957D01*
X1569071Y-15651814D02*
X1569071Y-15708957D01*
X2011928Y-16066100D02*
X1997643Y-16051814D01*
X1969071Y-16008957D01*
X1954786Y-15980386D01*
X1940500Y-15937529D01*
X1926214Y-15866100D01*
X1926214Y-15808957D01*
X1940500Y-15737529D01*
X1954786Y-15694671D01*
X1969071Y-15666100D01*
X1997643Y-15623243D01*
X2011928Y-15608957D01*
X2283357Y-15951814D02*
X2111928Y-15951814D01*
X2197643Y-15951814D02*
X2197643Y-15651814D01*
X2169071Y-15694671D01*
X2140500Y-15723243D01*
X2111928Y-15737529D01*
X2397643Y-15680386D02*
X2411928Y-15666100D01*
X2440500Y-15651814D01*
X2511928Y-15651814D01*
X2540500Y-15666100D01*
X2554786Y-15680386D01*
X2569071Y-15708957D01*
X2569071Y-15737529D01*
X2554786Y-15780386D01*
X2383357Y-15951814D01*
X2569071Y-15951814D01*
X2740500Y-15780386D02*
X2711928Y-15766100D01*
X2697643Y-15751814D01*
X2683357Y-15723243D01*
X2683357Y-15708957D01*
X2697643Y-15680386D01*
X2711928Y-15666100D01*
X2740500Y-15651814D01*
X2797643Y-15651814D01*
X2826214Y-15666100D01*
X2840500Y-15680386D01*
X2854786Y-15708957D01*
X2854786Y-15723243D01*
X2840500Y-15751814D01*
X2826214Y-15766100D01*
X2797643Y-15780386D01*
X2740500Y-15780386D01*
X2711928Y-15794671D01*
X2697643Y-15808957D01*
X2683357Y-15837529D01*
X2683357Y-15894671D01*
X2697643Y-15923243D01*
X2711928Y-15937529D01*
X2740500Y-15951814D01*
X2797643Y-15951814D01*
X2826214Y-15937529D01*
X2840500Y-15923243D01*
X2854786Y-15894671D01*
X2854786Y-15837529D01*
X2840500Y-15808957D01*
X2826214Y-15794671D01*
X2797643Y-15780386D01*
X3211928Y-15951814D02*
X3211928Y-15651814D01*
X3340500Y-15951814D02*
X3340500Y-15794671D01*
X3326214Y-15766100D01*
X3297643Y-15751814D01*
X3254786Y-15751814D01*
X3226214Y-15766100D01*
X3211928Y-15780386D01*
X3526214Y-15951814D02*
X3497643Y-15937529D01*
X3483357Y-15923243D01*
X3469071Y-15894671D01*
X3469071Y-15808957D01*
X3483357Y-15780386D01*
X3497643Y-15766100D01*
X3526214Y-15751814D01*
X3569071Y-15751814D01*
X3597643Y-15766100D01*
X3611928Y-15780386D01*
X3626214Y-15808957D01*
X3626214Y-15894671D01*
X3611928Y-15923243D01*
X3597643Y-15937529D01*
X3569071Y-15951814D01*
X3526214Y-15951814D01*
X3797643Y-15951814D02*
X3769071Y-15937529D01*
X3754786Y-15908957D01*
X3754786Y-15651814D01*
X4026214Y-15937529D02*
X3997643Y-15951814D01*
X3940500Y-15951814D01*
X3911928Y-15937529D01*
X3897643Y-15908957D01*
X3897643Y-15794671D01*
X3911928Y-15766100D01*
X3940500Y-15751814D01*
X3997643Y-15751814D01*
X4026214Y-15766100D01*
X4040500Y-15794671D01*
X4040500Y-15823243D01*
X3897643Y-15851814D01*
X4154786Y-15937529D02*
X4183357Y-15951814D01*
X4240500Y-15951814D01*
X4269071Y-15937529D01*
X4283357Y-15908957D01*
X4283357Y-15894671D01*
X4269071Y-15866100D01*
X4240500Y-15851814D01*
X4197643Y-15851814D01*
X4169071Y-15837529D01*
X4154786Y-15808957D01*
X4154786Y-15794671D01*
X4169071Y-15766100D01*
X4197643Y-15751814D01*
X4240500Y-15751814D01*
X4269071Y-15766100D01*
X4383357Y-16066100D02*
X4397643Y-16051814D01*
X4426214Y-16008957D01*
X4440500Y-15980386D01*
X4454786Y-15937529D01*
X4469071Y-15866100D01*
X4469071Y-15808957D01*
X4454786Y-15737529D01*
X4440500Y-15694671D01*
X4426214Y-15666100D01*
X4397643Y-15623243D01*
X4383357Y-15608957D01*
X4926214Y-16066100D02*
X4911928Y-16051814D01*
X4883357Y-16008957D01*
X4869071Y-15980386D01*
X4854786Y-15937529D01*
X4840500Y-15866100D01*
X4840500Y-15808957D01*
X4854786Y-15737529D01*
X4869071Y-15694671D01*
X4883357Y-15666100D01*
X4911928Y-15623243D01*
X4926214Y-15608957D01*
X5040500Y-15751814D02*
X5040500Y-15951814D01*
X5040500Y-15780386D02*
X5054786Y-15766100D01*
X5083357Y-15751814D01*
X5126214Y-15751814D01*
X5154786Y-15766100D01*
X5169071Y-15794671D01*
X5169071Y-15951814D01*
X5354786Y-15951814D02*
X5326214Y-15937529D01*
X5311928Y-15923243D01*
X5297643Y-15894671D01*
X5297643Y-15808957D01*
X5311928Y-15780386D01*
X5326214Y-15766100D01*
X5354786Y-15751814D01*
X5397643Y-15751814D01*
X5426214Y-15766100D01*
X5440500Y-15780386D01*
X5454786Y-15808957D01*
X5454786Y-15894671D01*
X5440500Y-15923243D01*
X5426214Y-15937529D01*
X5397643Y-15951814D01*
X5354786Y-15951814D01*
X5540500Y-15751814D02*
X5654786Y-15751814D01*
X5583357Y-15651814D02*
X5583357Y-15908957D01*
X5597643Y-15937529D01*
X5626214Y-15951814D01*
X5654786Y-15951814D01*
X5983357Y-15751814D02*
X5983357Y-16051814D01*
X5983357Y-15766100D02*
X6011928Y-15751814D01*
X6069071Y-15751814D01*
X6097643Y-15766100D01*
X6111928Y-15780386D01*
X6126214Y-15808957D01*
X6126214Y-15894671D01*
X6111928Y-15923243D01*
X6097643Y-15937529D01*
X6069071Y-15951814D01*
X6011928Y-15951814D01*
X5983357Y-15937529D01*
X6297643Y-15951814D02*
X6269071Y-15937529D01*
X6254786Y-15908957D01*
X6254786Y-15651814D01*
X6540500Y-15951814D02*
X6540500Y-15794671D01*
X6526214Y-15766100D01*
X6497643Y-15751814D01*
X6440500Y-15751814D01*
X6411928Y-15766100D01*
X6540500Y-15937529D02*
X6511928Y-15951814D01*
X6440500Y-15951814D01*
X6411928Y-15937529D01*
X6397643Y-15908957D01*
X6397643Y-15880386D01*
X6411928Y-15851814D01*
X6440500Y-15837529D01*
X6511928Y-15837529D01*
X6540500Y-15823243D01*
X6640500Y-15751814D02*
X6754786Y-15751814D01*
X6683357Y-15651814D02*
X6683357Y-15908957D01*
X6697643Y-15937529D01*
X6726214Y-15951814D01*
X6754786Y-15951814D01*
X6969071Y-15937529D02*
X6940500Y-15951814D01*
X6883357Y-15951814D01*
X6854786Y-15937529D01*
X6840500Y-15908957D01*
X6840500Y-15794671D01*
X6854786Y-15766100D01*
X6883357Y-15751814D01*
X6940500Y-15751814D01*
X6969071Y-15766100D01*
X6983357Y-15794671D01*
X6983357Y-15823243D01*
X6840500Y-15851814D01*
X7240500Y-15951814D02*
X7240500Y-15651814D01*
X7240500Y-15937529D02*
X7211928Y-15951814D01*
X7154786Y-15951814D01*
X7126214Y-15937529D01*
X7111928Y-15923243D01*
X7097643Y-15894671D01*
X7097643Y-15808957D01*
X7111928Y-15780386D01*
X7126214Y-15766100D01*
X7154786Y-15751814D01*
X7211928Y-15751814D01*
X7240500Y-15766100D01*
X7354786Y-16066100D02*
X7369071Y-16051814D01*
X7397643Y-16008957D01*
X7411928Y-15980386D01*
X7426214Y-15937529D01*
X7440500Y-15866100D01*
X7440500Y-15808957D01*
X7426214Y-15737529D01*
X7411928Y-15694671D01*
X7397643Y-15666100D01*
X7369071Y-15623243D01*
X7354786Y-15608957D01*
X-2826900Y-16059700D02*
X-2826900Y-16364500D01*
X-2979300Y-16212100D02*
X-2674500Y-16212100D01*
X-2416643Y-16047814D02*
X-2230929Y-16047814D01*
X-2330929Y-16162100D01*
X-2288072Y-16162100D01*
X-2259500Y-16176386D01*
X-2245214Y-16190671D01*
X-2230929Y-16219243D01*
X-2230929Y-16290671D01*
X-2245214Y-16319243D01*
X-2259500Y-16333529D01*
X-2288072Y-16347814D01*
X-2373786Y-16347814D01*
X-2402357Y-16333529D01*
X-2416643Y-16319243D01*
X-2102357Y-16319243D02*
X-2088071Y-16333529D01*
X-2102357Y-16347814D01*
X-2116643Y-16333529D01*
X-2102357Y-16319243D01*
X-2102357Y-16347814D01*
X-1902357Y-16047814D02*
X-1873786Y-16047814D01*
X-1845214Y-16062100D01*
X-1830929Y-16076386D01*
X-1816643Y-16104957D01*
X-1802357Y-16162100D01*
X-1802357Y-16233529D01*
X-1816643Y-16290671D01*
X-1830929Y-16319243D01*
X-1845214Y-16333529D01*
X-1873786Y-16347814D01*
X-1902357Y-16347814D01*
X-1930929Y-16333529D01*
X-1945214Y-16319243D01*
X-1959500Y-16290671D01*
X-1973786Y-16233529D01*
X-1973786Y-16162100D01*
X-1959500Y-16104957D01*
X-1945214Y-16076386D01*
X-1930929Y-16062100D01*
X-1902357Y-16047814D01*
X-1530929Y-16047814D02*
X-1673786Y-16047814D01*
X-1688071Y-16190671D01*
X-1673786Y-16176386D01*
X-1645214Y-16162100D01*
X-1573786Y-16162100D01*
X-1545214Y-16176386D01*
X-1530929Y-16190671D01*
X-1516643Y-16219243D01*
X-1516643Y-16290671D01*
X-1530929Y-16319243D01*
X-1545214Y-16333529D01*
X-1573786Y-16347814D01*
X-1645214Y-16347814D01*
X-1673786Y-16333529D01*
X-1688071Y-16319243D01*
X-1388072Y-16347814D02*
X-1388072Y-16147814D01*
X-1388072Y-16176386D02*
X-1373786Y-16162100D01*
X-1345214Y-16147814D01*
X-1302357Y-16147814D01*
X-1273786Y-16162100D01*
X-1259500Y-16190671D01*
X-1259500Y-16347814D01*
X-1259500Y-16190671D02*
X-1245214Y-16162100D01*
X-1216643Y-16147814D01*
X-1173786Y-16147814D01*
X-1145214Y-16162100D01*
X-1130929Y-16190671D01*
X-1130929Y-16347814D01*
X-988071Y-16347814D02*
X-988071Y-16147814D01*
X-988071Y-16176386D02*
X-973786Y-16162100D01*
X-945214Y-16147814D01*
X-902357Y-16147814D01*
X-873786Y-16162100D01*
X-859500Y-16190671D01*
X-859500Y-16347814D01*
X-859500Y-16190671D02*
X-845214Y-16162100D01*
X-816643Y-16147814D01*
X-773786Y-16147814D01*
X-745214Y-16162100D01*
X-730929Y-16190671D01*
X-730929Y-16347814D01*
X-145214Y-16033529D02*
X-402357Y-16419243D01*
X240500Y-16047814D02*
X269071Y-16047814D01*
X297643Y-16062100D01*
X311928Y-16076386D01*
X326214Y-16104957D01*
X340500Y-16162100D01*
X340500Y-16233529D01*
X326214Y-16290671D01*
X311928Y-16319243D01*
X297643Y-16333529D01*
X269071Y-16347814D01*
X240500Y-16347814D01*
X211928Y-16333529D01*
X197643Y-16319243D01*
X183357Y-16290671D01*
X169071Y-16233529D01*
X169071Y-16162100D01*
X183357Y-16104957D01*
X197643Y-16076386D01*
X211928Y-16062100D01*
X240500Y-16047814D01*
X469071Y-16319243D02*
X483357Y-16333529D01*
X469071Y-16347814D01*
X454786Y-16333529D01*
X469071Y-16319243D01*
X469071Y-16347814D01*
X769071Y-16347814D02*
X597643Y-16347814D01*
X683357Y-16347814D02*
X683357Y-16047814D01*
X654786Y-16090671D01*
X626214Y-16119243D01*
X597643Y-16133529D01*
X883357Y-16076386D02*
X897643Y-16062100D01*
X926214Y-16047814D01*
X997643Y-16047814D01*
X1026214Y-16062100D01*
X1040500Y-16076386D01*
X1054786Y-16104957D01*
X1054786Y-16133529D01*
X1040500Y-16176386D01*
X869071Y-16347814D01*
X1054786Y-16347814D01*
X1240500Y-16047814D02*
X1269071Y-16047814D01*
X1297643Y-16062100D01*
X1311928Y-16076386D01*
X1326214Y-16104957D01*
X1340500Y-16162100D01*
X1340500Y-16233529D01*
X1326214Y-16290671D01*
X1311928Y-16319243D01*
X1297643Y-16333529D01*
X1269071Y-16347814D01*
X1240500Y-16347814D01*
X1211928Y-16333529D01*
X1197643Y-16319243D01*
X1183357Y-16290671D01*
X1169071Y-16233529D01*
X1169071Y-16162100D01*
X1183357Y-16104957D01*
X1197643Y-16076386D01*
X1211928Y-16062100D01*
X1240500Y-16047814D01*
X1454786Y-16047814D02*
X1454786Y-16104957D01*
X1569071Y-16047814D02*
X1569071Y-16104957D01*
X2011928Y-16462100D02*
X1997643Y-16447814D01*
X1969071Y-16404957D01*
X1954786Y-16376386D01*
X1940500Y-16333529D01*
X1926214Y-16262100D01*
X1926214Y-16204957D01*
X1940500Y-16133529D01*
X1954786Y-16090671D01*
X1969071Y-16062100D01*
X1997643Y-16019243D01*
X2011928Y-16004957D01*
X2254786Y-16147814D02*
X2254786Y-16347814D01*
X2183357Y-16033529D02*
X2111928Y-16247814D01*
X2297643Y-16247814D01*
X2640500Y-16347814D02*
X2640500Y-16047814D01*
X2769071Y-16347814D02*
X2769071Y-16190671D01*
X2754786Y-16162100D01*
X2726214Y-16147814D01*
X2683357Y-16147814D01*
X2654786Y-16162100D01*
X2640500Y-16176386D01*
X2954786Y-16347814D02*
X2926214Y-16333529D01*
X2911928Y-16319243D01*
X2897643Y-16290671D01*
X2897643Y-16204957D01*
X2911928Y-16176386D01*
X2926214Y-16162100D01*
X2954786Y-16147814D01*
X2997643Y-16147814D01*
X3026214Y-16162100D01*
X3040500Y-16176386D01*
X3054786Y-16204957D01*
X3054786Y-16290671D01*
X3040500Y-16319243D01*
X3026214Y-16333529D01*
X2997643Y-16347814D01*
X2954786Y-16347814D01*
X3226214Y-16347814D02*
X3197643Y-16333529D01*
X3183357Y-16304957D01*
X3183357Y-16047814D01*
X3454786Y-16333529D02*
X3426214Y-16347814D01*
X3369071Y-16347814D01*
X3340500Y-16333529D01*
X3326214Y-16304957D01*
X3326214Y-16190671D01*
X3340500Y-16162100D01*
X3369071Y-16147814D01*
X3426214Y-16147814D01*
X3454786Y-16162100D01*
X3469071Y-16190671D01*
X3469071Y-16219243D01*
X3326214Y-16247814D01*
X3583357Y-16333529D02*
X3611928Y-16347814D01*
X3669071Y-16347814D01*
X3697643Y-16333529D01*
X3711928Y-16304957D01*
X3711928Y-16290671D01*
X3697643Y-16262100D01*
X3669071Y-16247814D01*
X3626214Y-16247814D01*
X3597643Y-16233529D01*
X3583357Y-16204957D01*
X3583357Y-16190671D01*
X3597643Y-16162100D01*
X3626214Y-16147814D01*
X3669071Y-16147814D01*
X3697643Y-16162100D01*
X3811928Y-16462100D02*
X3826214Y-16447814D01*
X3854786Y-16404957D01*
X3869071Y-16376386D01*
X3883357Y-16333529D01*
X3897643Y-16262100D01*
X3897643Y-16204957D01*
X3883357Y-16133529D01*
X3869071Y-16090671D01*
X3854786Y-16062100D01*
X3826214Y-16019243D01*
X3811928Y-16004957D01*
X4354786Y-16462100D02*
X4340500Y-16447814D01*
X4311928Y-16404957D01*
X4297643Y-16376386D01*
X4283357Y-16333529D01*
X4269071Y-16262100D01*
X4269071Y-16204957D01*
X4283357Y-16133529D01*
X4297643Y-16090671D01*
X4311928Y-16062100D01*
X4340500Y-16019243D01*
X4354786Y-16004957D01*
X4469071Y-16147814D02*
X4469071Y-16347814D01*
X4469071Y-16176386D02*
X4483357Y-16162100D01*
X4511928Y-16147814D01*
X4554786Y-16147814D01*
X4583357Y-16162100D01*
X4597643Y-16190671D01*
X4597643Y-16347814D01*
X4783357Y-16347814D02*
X4754786Y-16333529D01*
X4740500Y-16319243D01*
X4726214Y-16290671D01*
X4726214Y-16204957D01*
X4740500Y-16176386D01*
X4754786Y-16162100D01*
X4783357Y-16147814D01*
X4826214Y-16147814D01*
X4854786Y-16162100D01*
X4869071Y-16176386D01*
X4883357Y-16204957D01*
X4883357Y-16290671D01*
X4869071Y-16319243D01*
X4854786Y-16333529D01*
X4826214Y-16347814D01*
X4783357Y-16347814D01*
X4969071Y-16147814D02*
X5083357Y-16147814D01*
X5011928Y-16047814D02*
X5011928Y-16304957D01*
X5026214Y-16333529D01*
X5054786Y-16347814D01*
X5083357Y-16347814D01*
X5411928Y-16147814D02*
X5411928Y-16447814D01*
X5411928Y-16162100D02*
X5440500Y-16147814D01*
X5497643Y-16147814D01*
X5526214Y-16162100D01*
X5540500Y-16176386D01*
X5554786Y-16204957D01*
X5554786Y-16290671D01*
X5540500Y-16319243D01*
X5526214Y-16333529D01*
X5497643Y-16347814D01*
X5440500Y-16347814D01*
X5411928Y-16333529D01*
X5726214Y-16347814D02*
X5697643Y-16333529D01*
X5683357Y-16304957D01*
X5683357Y-16047814D01*
X5969071Y-16347814D02*
X5969071Y-16190671D01*
X5954786Y-16162100D01*
X5926214Y-16147814D01*
X5869071Y-16147814D01*
X5840500Y-16162100D01*
X5969071Y-16333529D02*
X5940500Y-16347814D01*
X5869071Y-16347814D01*
X5840500Y-16333529D01*
X5826214Y-16304957D01*
X5826214Y-16276386D01*
X5840500Y-16247814D01*
X5869071Y-16233529D01*
X5940500Y-16233529D01*
X5969071Y-16219243D01*
X6069071Y-16147814D02*
X6183357Y-16147814D01*
X6111928Y-16047814D02*
X6111928Y-16304957D01*
X6126214Y-16333529D01*
X6154786Y-16347814D01*
X6183357Y-16347814D01*
X6397643Y-16333529D02*
X6369071Y-16347814D01*
X6311928Y-16347814D01*
X6283357Y-16333529D01*
X6269071Y-16304957D01*
X6269071Y-16190671D01*
X6283357Y-16162100D01*
X6311928Y-16147814D01*
X6369071Y-16147814D01*
X6397643Y-16162100D01*
X6411928Y-16190671D01*
X6411928Y-16219243D01*
X6269071Y-16247814D01*
X6669071Y-16347814D02*
X6669071Y-16047814D01*
X6669071Y-16333529D02*
X6640500Y-16347814D01*
X6583357Y-16347814D01*
X6554786Y-16333529D01*
X6540500Y-16319243D01*
X6526214Y-16290671D01*
X6526214Y-16204957D01*
X6540500Y-16176386D01*
X6554786Y-16162100D01*
X6583357Y-16147814D01*
X6640500Y-16147814D01*
X6669071Y-16162100D01*
X6783357Y-16462100D02*
X6797643Y-16447814D01*
X6826214Y-16404957D01*
X6840500Y-16376386D01*
X6854786Y-16333529D01*
X6869071Y-16262100D01*
X6869071Y-16204957D01*
X6854786Y-16133529D01*
X6840500Y-16090671D01*
X6826214Y-16062100D01*
X6797643Y-16019243D01*
X6783357Y-16004957D01*
X-2732899Y-16787892D02*
X-2732899Y-16505909D01*
X-3014881Y-16505909D01*
X-3014881Y-16787892D01*
X-2732899Y-16787892D01*
X-2416643Y-16482614D02*
X-2230929Y-16482614D01*
X-2330929Y-16596900D01*
X-2288072Y-16596900D01*
X-2259500Y-16611186D01*
X-2245214Y-16625471D01*
X-2230929Y-16654043D01*
X-2230929Y-16725471D01*
X-2245214Y-16754043D01*
X-2259500Y-16768329D01*
X-2288072Y-16782614D01*
X-2373786Y-16782614D01*
X-2402357Y-16768329D01*
X-2416643Y-16754043D01*
X-2102357Y-16754043D02*
X-2088071Y-16768329D01*
X-2102357Y-16782614D01*
X-2116643Y-16768329D01*
X-2102357Y-16754043D01*
X-2102357Y-16782614D01*
X-1945214Y-16782614D02*
X-1888071Y-16782614D01*
X-1859500Y-16768329D01*
X-1845214Y-16754043D01*
X-1816643Y-16711186D01*
X-1802357Y-16654043D01*
X-1802357Y-16539757D01*
X-1816643Y-16511186D01*
X-1830929Y-16496900D01*
X-1859500Y-16482614D01*
X-1916643Y-16482614D01*
X-1945214Y-16496900D01*
X-1959500Y-16511186D01*
X-1973786Y-16539757D01*
X-1973786Y-16611186D01*
X-1959500Y-16639757D01*
X-1945214Y-16654043D01*
X-1916643Y-16668329D01*
X-1859500Y-16668329D01*
X-1830929Y-16654043D01*
X-1816643Y-16639757D01*
X-1802357Y-16611186D01*
X-1659500Y-16782614D02*
X-1602357Y-16782614D01*
X-1573786Y-16768329D01*
X-1559500Y-16754043D01*
X-1530929Y-16711186D01*
X-1516643Y-16654043D01*
X-1516643Y-16539757D01*
X-1530929Y-16511186D01*
X-1545214Y-16496900D01*
X-1573786Y-16482614D01*
X-1630929Y-16482614D01*
X-1659500Y-16496900D01*
X-1673786Y-16511186D01*
X-1688071Y-16539757D01*
X-1688071Y-16611186D01*
X-1673786Y-16639757D01*
X-1659500Y-16654043D01*
X-1630929Y-16668329D01*
X-1573786Y-16668329D01*
X-1545214Y-16654043D01*
X-1530929Y-16639757D01*
X-1516643Y-16611186D01*
X-1388072Y-16782614D02*
X-1388072Y-16582614D01*
X-1388072Y-16611186D02*
X-1373786Y-16596900D01*
X-1345214Y-16582614D01*
X-1302357Y-16582614D01*
X-1273786Y-16596900D01*
X-1259500Y-16625471D01*
X-1259500Y-16782614D01*
X-1259500Y-16625471D02*
X-1245214Y-16596900D01*
X-1216643Y-16582614D01*
X-1173786Y-16582614D01*
X-1145214Y-16596900D01*
X-1130929Y-16625471D01*
X-1130929Y-16782614D01*
X-988071Y-16782614D02*
X-988071Y-16582614D01*
X-988071Y-16611186D02*
X-973786Y-16596900D01*
X-945214Y-16582614D01*
X-902357Y-16582614D01*
X-873786Y-16596900D01*
X-859500Y-16625471D01*
X-859500Y-16782614D01*
X-859500Y-16625471D02*
X-845214Y-16596900D01*
X-816643Y-16582614D01*
X-773786Y-16582614D01*
X-745214Y-16596900D01*
X-730929Y-16625471D01*
X-730929Y-16782614D01*
X-145214Y-16468329D02*
X-402357Y-16854043D01*
X240500Y-16482614D02*
X269071Y-16482614D01*
X297643Y-16496900D01*
X311928Y-16511186D01*
X326214Y-16539757D01*
X340500Y-16596900D01*
X340500Y-16668329D01*
X326214Y-16725471D01*
X311928Y-16754043D01*
X297643Y-16768329D01*
X269071Y-16782614D01*
X240500Y-16782614D01*
X211928Y-16768329D01*
X197643Y-16754043D01*
X183357Y-16725471D01*
X169071Y-16668329D01*
X169071Y-16596900D01*
X183357Y-16539757D01*
X197643Y-16511186D01*
X211928Y-16496900D01*
X240500Y-16482614D01*
X469071Y-16754043D02*
X483357Y-16768329D01*
X469071Y-16782614D01*
X454786Y-16768329D01*
X469071Y-16754043D01*
X469071Y-16782614D01*
X769071Y-16782614D02*
X597643Y-16782614D01*
X683357Y-16782614D02*
X683357Y-16482614D01*
X654786Y-16525471D01*
X626214Y-16554043D01*
X597643Y-16568329D01*
X1040500Y-16482614D02*
X897643Y-16482614D01*
X883357Y-16625471D01*
X897643Y-16611186D01*
X926214Y-16596900D01*
X997643Y-16596900D01*
X1026214Y-16611186D01*
X1040500Y-16625471D01*
X1054786Y-16654043D01*
X1054786Y-16725471D01*
X1040500Y-16754043D01*
X1026214Y-16768329D01*
X997643Y-16782614D01*
X926214Y-16782614D01*
X897643Y-16768329D01*
X883357Y-16754043D01*
X1154786Y-16482614D02*
X1354786Y-16482614D01*
X1226214Y-16782614D01*
X1454786Y-16482614D02*
X1454786Y-16539757D01*
X1569071Y-16482614D02*
X1569071Y-16539757D01*
X2011928Y-16896900D02*
X1997643Y-16882614D01*
X1969071Y-16839757D01*
X1954786Y-16811186D01*
X1940500Y-16768329D01*
X1926214Y-16696900D01*
X1926214Y-16639757D01*
X1940500Y-16568329D01*
X1954786Y-16525471D01*
X1969071Y-16496900D01*
X1997643Y-16454043D01*
X2011928Y-16439757D01*
X2254786Y-16482614D02*
X2197643Y-16482614D01*
X2169071Y-16496900D01*
X2154786Y-16511186D01*
X2126214Y-16554043D01*
X2111928Y-16611186D01*
X2111928Y-16725471D01*
X2126214Y-16754043D01*
X2140500Y-16768329D01*
X2169071Y-16782614D01*
X2226214Y-16782614D01*
X2254786Y-16768329D01*
X2269071Y-16754043D01*
X2283357Y-16725471D01*
X2283357Y-16654043D01*
X2269071Y-16625471D01*
X2254786Y-16611186D01*
X2226214Y-16596900D01*
X2169071Y-16596900D01*
X2140500Y-16611186D01*
X2126214Y-16625471D01*
X2111928Y-16654043D01*
X2454786Y-16611186D02*
X2426214Y-16596900D01*
X2411928Y-16582614D01*
X2397643Y-16554043D01*
X2397643Y-16539757D01*
X2411928Y-16511186D01*
X2426214Y-16496900D01*
X2454786Y-16482614D01*
X2511928Y-16482614D01*
X2540500Y-16496900D01*
X2554786Y-16511186D01*
X2569071Y-16539757D01*
X2569071Y-16554043D01*
X2554786Y-16582614D01*
X2540500Y-16596900D01*
X2511928Y-16611186D01*
X2454786Y-16611186D01*
X2426214Y-16625471D01*
X2411928Y-16639757D01*
X2397643Y-16668329D01*
X2397643Y-16725471D01*
X2411928Y-16754043D01*
X2426214Y-16768329D01*
X2454786Y-16782614D01*
X2511928Y-16782614D01*
X2540500Y-16768329D01*
X2554786Y-16754043D01*
X2569071Y-16725471D01*
X2569071Y-16668329D01*
X2554786Y-16639757D01*
X2540500Y-16625471D01*
X2511928Y-16611186D01*
X2926214Y-16782614D02*
X2926214Y-16482614D01*
X3054786Y-16782614D02*
X3054786Y-16625471D01*
X3040500Y-16596900D01*
X3011928Y-16582614D01*
X2969071Y-16582614D01*
X2940500Y-16596900D01*
X2926214Y-16611186D01*
X3240500Y-16782614D02*
X3211928Y-16768329D01*
X3197643Y-16754043D01*
X3183357Y-16725471D01*
X3183357Y-16639757D01*
X3197643Y-16611186D01*
X3211928Y-16596900D01*
X3240500Y-16582614D01*
X3283357Y-16582614D01*
X3311928Y-16596900D01*
X3326214Y-16611186D01*
X3340500Y-16639757D01*
X3340500Y-16725471D01*
X3326214Y-16754043D01*
X3311928Y-16768329D01*
X3283357Y-16782614D01*
X3240500Y-16782614D01*
X3511928Y-16782614D02*
X3483357Y-16768329D01*
X3469071Y-16739757D01*
X3469071Y-16482614D01*
X3740500Y-16768329D02*
X3711928Y-16782614D01*
X3654786Y-16782614D01*
X3626214Y-16768329D01*
X3611928Y-16739757D01*
X3611928Y-16625471D01*
X3626214Y-16596900D01*
X3654786Y-16582614D01*
X3711928Y-16582614D01*
X3740500Y-16596900D01*
X3754786Y-16625471D01*
X3754786Y-16654043D01*
X3611928Y-16682614D01*
X3869071Y-16768329D02*
X3897643Y-16782614D01*
X3954786Y-16782614D01*
X3983357Y-16768329D01*
X3997643Y-16739757D01*
X3997643Y-16725471D01*
X3983357Y-16696900D01*
X3954786Y-16682614D01*
X3911928Y-16682614D01*
X3883357Y-16668329D01*
X3869071Y-16639757D01*
X3869071Y-16625471D01*
X3883357Y-16596900D01*
X3911928Y-16582614D01*
X3954786Y-16582614D01*
X3983357Y-16596900D01*
X4097643Y-16896900D02*
X4111928Y-16882614D01*
X4140500Y-16839757D01*
X4154786Y-16811186D01*
X4169071Y-16768329D01*
X4183357Y-16696900D01*
X4183357Y-16639757D01*
X4169071Y-16568329D01*
X4154786Y-16525471D01*
X4140500Y-16496900D01*
X4111928Y-16454043D01*
X4097643Y-16439757D01*
X4640500Y-16896900D02*
X4626214Y-16882614D01*
X4597643Y-16839757D01*
X4583357Y-16811186D01*
X4569071Y-16768329D01*
X4554786Y-16696900D01*
X4554786Y-16639757D01*
X4569071Y-16568329D01*
X4583357Y-16525471D01*
X4597643Y-16496900D01*
X4626214Y-16454043D01*
X4640500Y-16439757D01*
X4754786Y-16582614D02*
X4754786Y-16782614D01*
X4754786Y-16611186D02*
X4769071Y-16596900D01*
X4797643Y-16582614D01*
X4840500Y-16582614D01*
X4869071Y-16596900D01*
X4883357Y-16625471D01*
X4883357Y-16782614D01*
X5069071Y-16782614D02*
X5040500Y-16768329D01*
X5026214Y-16754043D01*
X5011928Y-16725471D01*
X5011928Y-16639757D01*
X5026214Y-16611186D01*
X5040500Y-16596900D01*
X5069071Y-16582614D01*
X5111928Y-16582614D01*
X5140500Y-16596900D01*
X5154786Y-16611186D01*
X5169071Y-16639757D01*
X5169071Y-16725471D01*
X5154786Y-16754043D01*
X5140500Y-16768329D01*
X5111928Y-16782614D01*
X5069071Y-16782614D01*
X5254786Y-16582614D02*
X5369071Y-16582614D01*
X5297643Y-16482614D02*
X5297643Y-16739757D01*
X5311928Y-16768329D01*
X5340500Y-16782614D01*
X5369071Y-16782614D01*
X5697643Y-16582614D02*
X5697643Y-16882614D01*
X5697643Y-16596900D02*
X5726214Y-16582614D01*
X5783357Y-16582614D01*
X5811928Y-16596900D01*
X5826214Y-16611186D01*
X5840500Y-16639757D01*
X5840500Y-16725471D01*
X5826214Y-16754043D01*
X5811928Y-16768329D01*
X5783357Y-16782614D01*
X5726214Y-16782614D01*
X5697643Y-16768329D01*
X6011928Y-16782614D02*
X5983357Y-16768329D01*
X5969071Y-16739757D01*
X5969071Y-16482614D01*
X6254786Y-16782614D02*
X6254786Y-16625471D01*
X6240500Y-16596900D01*
X6211928Y-16582614D01*
X6154786Y-16582614D01*
X6126214Y-16596900D01*
X6254786Y-16768329D02*
X6226214Y-16782614D01*
X6154786Y-16782614D01*
X6126214Y-16768329D01*
X6111928Y-16739757D01*
X6111928Y-16711186D01*
X6126214Y-16682614D01*
X6154786Y-16668329D01*
X6226214Y-16668329D01*
X6254786Y-16654043D01*
X6354786Y-16582614D02*
X6469071Y-16582614D01*
X6397643Y-16482614D02*
X6397643Y-16739757D01*
X6411928Y-16768329D01*
X6440500Y-16782614D01*
X6469071Y-16782614D01*
X6683357Y-16768329D02*
X6654786Y-16782614D01*
X6597643Y-16782614D01*
X6569071Y-16768329D01*
X6554786Y-16739757D01*
X6554786Y-16625471D01*
X6569071Y-16596900D01*
X6597643Y-16582614D01*
X6654786Y-16582614D01*
X6683357Y-16596900D01*
X6697643Y-16625471D01*
X6697643Y-16654043D01*
X6554786Y-16682614D01*
X6954786Y-16782614D02*
X6954786Y-16482614D01*
X6954786Y-16768329D02*
X6926214Y-16782614D01*
X6869071Y-16782614D01*
X6840500Y-16768329D01*
X6826214Y-16754043D01*
X6811928Y-16725471D01*
X6811928Y-16639757D01*
X6826214Y-16611186D01*
X6840500Y-16596900D01*
X6869071Y-16582614D01*
X6926214Y-16582614D01*
X6954786Y-16596900D01*
X7069071Y-16896900D02*
X7083357Y-16882614D01*
X7111928Y-16839757D01*
X7126214Y-16811186D01*
X7140500Y-16768329D01*
X7154786Y-16696900D01*
X7154786Y-16639757D01*
X7140500Y-16568329D01*
X7126214Y-16525471D01*
X7111928Y-16496900D01*
X7083357Y-16454043D01*
X7069071Y-16439757D01*
M02*
