%FSLAX45Y45*%
G04 Gerber Fmt 4.5, Leading zero omitted, Abs format (unit mm)*
G04 Created by KiCad (PCBNEW 5.0.2+dfsg1-1) date Mon 11 May 2020 02:21:16 AM PDT*
%MOMM*%
%LPD*%
G01*
G04 APERTURE LIST*
%ADD10C,0.200000*%
%ADD11C,0.150000*%
%ADD12C,0.300000*%
G04 APERTURE END LIST*
D10*
X7770000Y-12471400D02*
G75*
G03X7770000Y-12471400I-150000J0D01*
G01*
X17295000Y-10566400D02*
G75*
G03X17295000Y-10566400I-150000J0D01*
G01*
X17295000Y-6756400D02*
G75*
G03X17295000Y-6756400I-150000J0D01*
G01*
X1623200Y-10564000D02*
G75*
G03X1623200Y-10564000I-150000J0D01*
G01*
X9675000Y-10566400D02*
G75*
G03X9675000Y-10566400I-150000J0D01*
G01*
X24915000Y-10566400D02*
G75*
G03X24915000Y-10566400I-150000J0D01*
G01*
X7770000Y-6756400D02*
G75*
G03X7770000Y-6756400I-150000J0D01*
G01*
X18133200Y-14020800D02*
G75*
G03X18133200Y-14020800I-150000J0D01*
G01*
X-2034400Y-13970000D02*
G75*
G03X-2034400Y-13970000I-150000J0D01*
G01*
X30960200Y-13970000D02*
G75*
G03X30960200Y-13970000I-150000J0D01*
G01*
X-2034400Y-6654800D02*
G75*
G03X-2034400Y-6654800I-150000J0D01*
G01*
X30962600Y-6654800D02*
G75*
G03X30962600Y-6654800I-150000J0D01*
G01*
D11*
X-2032000Y-14452600D02*
G75*
G02X-2667000Y-13817600I0J635000D01*
G01*
X-2641600Y-6832600D02*
G75*
G02X-2006600Y-6197600I635000J0D01*
G01*
X30632400Y-6223000D02*
G75*
G02X31267400Y-6858000I0J-635000D01*
G01*
X31242000Y-13792200D02*
G75*
G02X30607000Y-14427200I-635000J0D01*
G01*
X-2032000Y-14452600D02*
X30607000Y-14427200D01*
X-2641600Y-6832600D02*
X-2667000Y-13817600D01*
X30632400Y-6223000D02*
X-2006600Y-6197600D01*
X31242000Y-13792200D02*
X31267400Y-6858000D01*
D10*
X12807000Y-14204000D02*
X12847000Y-14244000D01*
X12847000Y-14204000D02*
X12807000Y-14244000D01*
X13061000Y-13539901D02*
X13101000Y-13579901D01*
X13101000Y-13539901D02*
X13061000Y-13579901D01*
X13061000Y-13639902D02*
X13101000Y-13679902D01*
X13101000Y-13639902D02*
X13061000Y-13679902D01*
X13061000Y-13746800D02*
X13101000Y-13786800D01*
X13101000Y-13746800D02*
X13061000Y-13786800D01*
X13061000Y-13873800D02*
X13101000Y-13913800D01*
X13101000Y-13873800D02*
X13061000Y-13913800D01*
X13061000Y-14102400D02*
X13101000Y-14142400D01*
X13101000Y-14102400D02*
X13061000Y-14142400D01*
X13061466Y-14000334D02*
X13101466Y-14040334D01*
X13101466Y-14000334D02*
X13061466Y-14040334D01*
X13188000Y-12349800D02*
X13228000Y-12389800D01*
X13228000Y-12349800D02*
X13188000Y-12389800D01*
X13238799Y-14102400D02*
X13278799Y-14142400D01*
X13278799Y-14102400D02*
X13238799Y-14142400D01*
X13365800Y-14102400D02*
X13405800Y-14142400D01*
X13405800Y-14102400D02*
X13365800Y-14142400D01*
X13467400Y-12349800D02*
X13507400Y-12389800D01*
X13507400Y-12349800D02*
X13467400Y-12389800D01*
X13492800Y-14026200D02*
X13532800Y-14066200D01*
X13532800Y-14026200D02*
X13492800Y-14066200D01*
X13696000Y-14026200D02*
X13736000Y-14066200D01*
X13736000Y-14026200D02*
X13696000Y-14066200D01*
X13720933Y-12908135D02*
X13760933Y-12948135D01*
X13760933Y-12908135D02*
X13720933Y-12948135D01*
X13721400Y-12375200D02*
X13761400Y-12415200D01*
X13761400Y-12375200D02*
X13721400Y-12415200D01*
X13772200Y-13238800D02*
X13812200Y-13278800D01*
X13812200Y-13238800D02*
X13772200Y-13278800D01*
X13848400Y-11892600D02*
X13888400Y-11932600D01*
X13888400Y-11892600D02*
X13848400Y-11932600D01*
X13848400Y-12197400D02*
X13888400Y-12237400D01*
X13888400Y-12197400D02*
X13848400Y-12237400D01*
X13848400Y-13162600D02*
X13888400Y-13202600D01*
X13888400Y-13162600D02*
X13848400Y-13202600D01*
X13975400Y-12781600D02*
X14015400Y-12821600D01*
X14015400Y-12781600D02*
X13975400Y-12821600D01*
X13975400Y-13162600D02*
X14015400Y-13202600D01*
X14015400Y-13162600D02*
X13975400Y-13202600D01*
X14051600Y-13975400D02*
X14091600Y-14015400D01*
X14091600Y-13975400D02*
X14051600Y-14015400D01*
X14077000Y-13162600D02*
X14117000Y-13202600D01*
X14117000Y-13162600D02*
X14077000Y-13202600D01*
X14178600Y-13162600D02*
X14218600Y-13202600D01*
X14218600Y-13162600D02*
X14178600Y-13202600D01*
X14189672Y-12186328D02*
X14229672Y-12226328D01*
X14229672Y-12186328D02*
X14189672Y-12226328D01*
X14204000Y-12756200D02*
X14244000Y-12796200D01*
X14244000Y-12756200D02*
X14204000Y-12796200D01*
X14280200Y-12832400D02*
X14320200Y-12872400D01*
X14320200Y-12832400D02*
X14280200Y-12872400D01*
X14305600Y-13264200D02*
X14345600Y-13304200D01*
X14345600Y-13264200D02*
X14305600Y-13304200D01*
X14355934Y-13162134D02*
X14395934Y-13202134D01*
X14395934Y-13162134D02*
X14355934Y-13202134D01*
X14432135Y-13010665D02*
X14472135Y-13050665D01*
X14472135Y-13010665D02*
X14432135Y-13050665D01*
X14458000Y-13162600D02*
X14498000Y-13202600D01*
X14498000Y-13162600D02*
X14458000Y-13202600D01*
X14762800Y-11892600D02*
X14802800Y-11932600D01*
X14802800Y-11892600D02*
X14762800Y-11932600D01*
X14762800Y-12172000D02*
X14802800Y-12212000D01*
X14802800Y-12172000D02*
X14762800Y-12212000D01*
X14966000Y-8057200D02*
X15006000Y-8097200D01*
X15006000Y-8057200D02*
X14966000Y-8097200D01*
X14966000Y-8387400D02*
X15006000Y-8427400D01*
X15006000Y-8387400D02*
X14966000Y-8427400D01*
X14991400Y-12502200D02*
X15031400Y-12542200D01*
X15031400Y-12502200D02*
X14991400Y-12542200D01*
X15067600Y-12984800D02*
X15107600Y-13024800D01*
X15107600Y-12984800D02*
X15067600Y-13024800D01*
X15081928Y-13249872D02*
X15121928Y-13289872D01*
X15121928Y-13249872D02*
X15081928Y-13289872D01*
X15118400Y-12502200D02*
X15158400Y-12542200D01*
X15158400Y-12502200D02*
X15118400Y-12542200D01*
X15143800Y-12324400D02*
X15183800Y-12364400D01*
X15183800Y-12324400D02*
X15143800Y-12364400D01*
X15205672Y-13126128D02*
X15245672Y-13166128D01*
X15245672Y-13126128D02*
X15205672Y-13166128D01*
X15220000Y-8229375D02*
X15260000Y-8269375D01*
X15260000Y-8229375D02*
X15220000Y-8269375D01*
X15245401Y-13619799D02*
X15285401Y-13659799D01*
X15285401Y-13619799D02*
X15245401Y-13659799D01*
X15296200Y-12324400D02*
X15336200Y-12364400D01*
X15336200Y-12324400D02*
X15296200Y-12364400D01*
X15474000Y-8057200D02*
X15514000Y-8097200D01*
X15514000Y-8057200D02*
X15474000Y-8097200D01*
X15474000Y-8387400D02*
X15514000Y-8427400D01*
X15514000Y-8387400D02*
X15474000Y-8427400D01*
X15696250Y-10134375D02*
X15736250Y-10174375D01*
X15736250Y-10134375D02*
X15696250Y-10174375D01*
X16032800Y-9987600D02*
X16072800Y-10027600D01*
X16072800Y-9987600D02*
X16032800Y-10027600D01*
X16032800Y-10292400D02*
X16072800Y-10332400D01*
X16072800Y-10292400D02*
X16032800Y-10332400D01*
X16134400Y-12299000D02*
X16174400Y-12339000D01*
X16174400Y-12299000D02*
X16134400Y-12339000D01*
X16388400Y-12299000D02*
X16428400Y-12339000D01*
X16428400Y-12299000D02*
X16388400Y-12339000D01*
X17353600Y-9962200D02*
X17393600Y-10002200D01*
X17393600Y-9962200D02*
X17353600Y-10002200D01*
X17353600Y-10292400D02*
X17393600Y-10332400D01*
X17393600Y-10292400D02*
X17353600Y-10332400D01*
X28377200Y-7444800D02*
X28417200Y-7484800D01*
X28417200Y-7444800D02*
X28377200Y-7484800D01*
X28631200Y-6685600D02*
X28671200Y-6725600D01*
X28671200Y-6685600D02*
X28631200Y-6725600D01*
X28707400Y-6609400D02*
X28747400Y-6649400D01*
X28747400Y-6609400D02*
X28707400Y-6649400D01*
X28274600Y-6483000D02*
G75*
G03X28274600Y-6483000I-30000J0D01*
G01*
X28224600Y-6453000D02*
X28224600Y-6513000D01*
X28264600Y-6453000D02*
X28264600Y-6513000D01*
X28224600Y-6513000D02*
G75*
G03X28264600Y-6513000I20000J0D01*
G01*
X28264600Y-6453000D02*
G75*
G03X28224600Y-6453000I-20000J0D01*
G01*
X28274600Y-6901000D02*
G75*
G03X28274600Y-6901000I-30000J0D01*
G01*
X28224600Y-6846000D02*
X28224600Y-6956000D01*
X28264600Y-6846000D02*
X28264600Y-6956000D01*
X28224600Y-6956000D02*
G75*
G03X28264600Y-6956000I20000J0D01*
G01*
X28264600Y-6846000D02*
G75*
G03X28224600Y-6846000I-20000J0D01*
G01*
X29138600Y-6483000D02*
G75*
G03X29138600Y-6483000I-30000J0D01*
G01*
X29088600Y-6453000D02*
X29088600Y-6513000D01*
X29128600Y-6453000D02*
X29128600Y-6513000D01*
X29088600Y-6513000D02*
G75*
G03X29128600Y-6513000I20000J0D01*
G01*
X29128600Y-6453000D02*
G75*
G03X29088600Y-6453000I-20000J0D01*
G01*
X29138600Y-6901000D02*
G75*
G03X29138600Y-6901000I-30000J0D01*
G01*
X29088600Y-6846000D02*
X29088600Y-6956000D01*
X29128600Y-6846000D02*
X29128600Y-6956000D01*
X29088600Y-6956000D02*
G75*
G03X29128600Y-6956000I20000J0D01*
G01*
X29128600Y-6846000D02*
G75*
G03X29088600Y-6846000I-20000J0D01*
G01*
X15429597Y-12653897D02*
X15429597Y-12718897D01*
X15397097Y-12686397D02*
X15462097Y-12686397D01*
X15519400Y-12743700D02*
X15519400Y-12808700D01*
X15486900Y-12776200D02*
X15551900Y-12776200D01*
X2329120Y-8006020D02*
X2329120Y-7932480D01*
X2255580Y-7932480D01*
X2255580Y-8006020D01*
X2329120Y-8006020D01*
X2583120Y-8006020D02*
X2583120Y-7932480D01*
X2509580Y-7932480D01*
X2509580Y-8006020D01*
X2583120Y-8006020D01*
X18007270Y-11816020D02*
X18007270Y-11742480D01*
X17933730Y-11742480D01*
X17933730Y-11816020D01*
X18007270Y-11816020D01*
X18261270Y-11816020D02*
X18261270Y-11742480D01*
X18187730Y-11742480D01*
X18187730Y-11816020D01*
X18261270Y-11816020D01*
X12768520Y-9911020D02*
X12768520Y-9837480D01*
X12694980Y-9837480D01*
X12694980Y-9911020D01*
X12768520Y-9911020D01*
X13022520Y-9911020D02*
X13022520Y-9837480D01*
X12948980Y-9837480D01*
X12948980Y-9911020D01*
X13022520Y-9911020D01*
X16102270Y-11816020D02*
X16102270Y-11742480D01*
X16028730Y-11742480D01*
X16028730Y-11816020D01*
X16102270Y-11816020D01*
X16356270Y-11816020D02*
X16356270Y-11742480D01*
X16282730Y-11742480D01*
X16282730Y-11816020D01*
X16356270Y-11816020D01*
X6815395Y-9911020D02*
X6815395Y-9837480D01*
X6741855Y-9837480D01*
X6741855Y-9911020D01*
X6815395Y-9911020D01*
X7069395Y-9911020D02*
X7069395Y-9837480D01*
X6995855Y-9837480D01*
X6995855Y-9911020D01*
X7069395Y-9911020D01*
X10863520Y-9911020D02*
X10863520Y-9837480D01*
X10789980Y-9837480D01*
X10789980Y-9911020D01*
X10863520Y-9911020D01*
X11117520Y-9911020D02*
X11117520Y-9837480D01*
X11043980Y-9837480D01*
X11043980Y-9911020D01*
X11117520Y-9911020D01*
X16102270Y-8006020D02*
X16102270Y-7932480D01*
X16028730Y-7932480D01*
X16028730Y-8006020D01*
X16102270Y-8006020D01*
X16356270Y-8006020D02*
X16356270Y-7932480D01*
X16282730Y-7932480D01*
X16282730Y-8006020D01*
X16356270Y-8006020D01*
X424120Y-9911020D02*
X424120Y-9837480D01*
X350580Y-9837480D01*
X350580Y-9911020D01*
X424120Y-9911020D01*
X678120Y-9911020D02*
X678120Y-9837480D01*
X604580Y-9837480D01*
X604580Y-9911020D01*
X678120Y-9911020D01*
X20388520Y-9911020D02*
X20388520Y-9837480D01*
X20314980Y-9837480D01*
X20314980Y-9911020D01*
X20388520Y-9911020D01*
X20642520Y-9911020D02*
X20642520Y-9837480D01*
X20568980Y-9837480D01*
X20568980Y-9911020D01*
X20642520Y-9911020D01*
X20626645Y-13721020D02*
X20626645Y-13647480D01*
X20553105Y-13647480D01*
X20553105Y-13721020D01*
X20626645Y-13721020D01*
X20880645Y-13721020D02*
X20880645Y-13647480D01*
X20807105Y-13647480D01*
X20807105Y-13721020D01*
X20880645Y-13721020D01*
X14197270Y-8006020D02*
X14197270Y-7932480D01*
X14123730Y-7932480D01*
X14123730Y-8006020D01*
X14197270Y-8006020D01*
X14451270Y-8006020D02*
X14451270Y-7932480D01*
X14377730Y-7932480D01*
X14377730Y-8006020D01*
X14451270Y-8006020D01*
X424120Y-11816020D02*
X424120Y-11742480D01*
X350580Y-11742480D01*
X350580Y-11816020D01*
X424120Y-11816020D01*
X678120Y-11816020D02*
X678120Y-11742480D01*
X604580Y-11742480D01*
X604580Y-11816020D01*
X678120Y-11816020D01*
X7529770Y-11816020D02*
X7529770Y-11742480D01*
X7456230Y-11742480D01*
X7456230Y-11816020D01*
X7529770Y-11816020D01*
X7783770Y-11816020D02*
X7783770Y-11742480D01*
X7710230Y-11742480D01*
X7710230Y-11816020D01*
X7783770Y-11816020D01*
X27532270Y-8006020D02*
X27532270Y-7932480D01*
X27458730Y-7932480D01*
X27458730Y-8006020D01*
X27532270Y-8006020D01*
X27786270Y-8006020D02*
X27786270Y-7932480D01*
X27712730Y-7932480D01*
X27712730Y-8006020D01*
X27786270Y-8006020D01*
X29913520Y-13721020D02*
X29913520Y-13647480D01*
X29839980Y-13647480D01*
X29839980Y-13721020D01*
X29913520Y-13721020D01*
X30167520Y-13721020D02*
X30167520Y-13647480D01*
X30093980Y-13647480D01*
X30093980Y-13721020D01*
X30167520Y-13721020D01*
X28008520Y-13721020D02*
X28008520Y-13647480D01*
X27934980Y-13647480D01*
X27934980Y-13721020D01*
X28008520Y-13721020D01*
X28262520Y-13721020D02*
X28262520Y-13647480D01*
X28188980Y-13647480D01*
X28188980Y-13721020D01*
X28262520Y-13721020D01*
X8482270Y-13721020D02*
X8482270Y-13647480D01*
X8408730Y-13647480D01*
X8408730Y-13721020D01*
X8482270Y-13721020D01*
X8736270Y-13721020D02*
X8736270Y-13647480D01*
X8662730Y-13647480D01*
X8662730Y-13721020D01*
X8736270Y-13721020D01*
X2329120Y-13721020D02*
X2329120Y-13647480D01*
X2255580Y-13647480D01*
X2255580Y-13721020D01*
X2329120Y-13721020D01*
X2583120Y-13721020D02*
X2583120Y-13647480D01*
X2509580Y-13647480D01*
X2509580Y-13721020D01*
X2583120Y-13721020D01*
X2329120Y-11816020D02*
X2329120Y-11742480D01*
X2255580Y-11742480D01*
X2255580Y-11816020D01*
X2329120Y-11816020D01*
X2583120Y-11816020D02*
X2583120Y-11742480D01*
X2509580Y-11742480D01*
X2509580Y-11816020D01*
X2583120Y-11816020D01*
X2329120Y-9911020D02*
X2329120Y-9837480D01*
X2255580Y-9837480D01*
X2255580Y-9911020D01*
X2329120Y-9911020D01*
X2583120Y-9911020D02*
X2583120Y-9837480D01*
X2509580Y-9837480D01*
X2509580Y-9911020D01*
X2583120Y-9911020D01*
X12292270Y-8006020D02*
X12292270Y-7932480D01*
X12218730Y-7932480D01*
X12218730Y-8006020D01*
X12292270Y-8006020D01*
X12546270Y-8006020D02*
X12546270Y-7932480D01*
X12472730Y-7932480D01*
X12472730Y-8006020D01*
X12546270Y-8006020D01*
X12530395Y-13721020D02*
X12530395Y-13647480D01*
X12456855Y-13647480D01*
X12456855Y-13721020D01*
X12530395Y-13721020D01*
X12784395Y-13721020D02*
X12784395Y-13647480D01*
X12710855Y-13647480D01*
X12710855Y-13721020D01*
X12784395Y-13721020D01*
X14197270Y-11816020D02*
X14197270Y-11742480D01*
X14123730Y-11742480D01*
X14123730Y-11816020D01*
X14197270Y-11816020D01*
X14451270Y-11816020D02*
X14451270Y-11742480D01*
X14377730Y-11742480D01*
X14377730Y-11816020D01*
X14451270Y-11816020D01*
X14673520Y-9911020D02*
X14673520Y-9837480D01*
X14599980Y-9837480D01*
X14599980Y-9911020D01*
X14673520Y-9911020D01*
X14927520Y-9911020D02*
X14927520Y-9837480D01*
X14853980Y-9837480D01*
X14853980Y-9911020D01*
X14927520Y-9911020D01*
X23722270Y-8006020D02*
X23722270Y-7932480D01*
X23648730Y-7932480D01*
X23648730Y-8006020D01*
X23722270Y-8006020D01*
X23976270Y-8006020D02*
X23976270Y-7932480D01*
X23902730Y-7932480D01*
X23902730Y-8006020D01*
X23976270Y-8006020D01*
X4234120Y-13721020D02*
X4234120Y-13647480D01*
X4160580Y-13647480D01*
X4160580Y-13721020D01*
X4234120Y-13721020D01*
X4488120Y-13721020D02*
X4488120Y-13647480D01*
X4414580Y-13647480D01*
X4414580Y-13721020D01*
X4488120Y-13721020D01*
X4234120Y-11816020D02*
X4234120Y-11742480D01*
X4160580Y-11742480D01*
X4160580Y-11816020D01*
X4234120Y-11816020D01*
X4488120Y-11816020D02*
X4488120Y-11742480D01*
X4414580Y-11742480D01*
X4414580Y-11816020D01*
X4488120Y-11816020D01*
X25627270Y-8006020D02*
X25627270Y-7932480D01*
X25553730Y-7932480D01*
X25553730Y-8006020D01*
X25627270Y-8006020D01*
X25881270Y-8006020D02*
X25881270Y-7932480D01*
X25807730Y-7932480D01*
X25807730Y-8006020D01*
X25881270Y-8006020D01*
X8958520Y-9911020D02*
X8958520Y-9837480D01*
X8884980Y-9837480D01*
X8884980Y-9911020D01*
X8958520Y-9911020D01*
X9212520Y-9911020D02*
X9212520Y-9837480D01*
X9138980Y-9837480D01*
X9138980Y-9911020D01*
X9212520Y-9911020D01*
X8482270Y-8006020D02*
X8482270Y-7932480D01*
X8408730Y-7932480D01*
X8408730Y-8006020D01*
X8482270Y-8006020D01*
X8736270Y-8006020D02*
X8736270Y-7932480D01*
X8662730Y-7932480D01*
X8662730Y-8006020D01*
X8736270Y-8006020D01*
X29675395Y-8006020D02*
X29675395Y-7932480D01*
X29601855Y-7932480D01*
X29601855Y-8006020D01*
X29675395Y-8006020D01*
X29929395Y-8006020D02*
X29929395Y-7932480D01*
X29855855Y-7932480D01*
X29855855Y-8006020D01*
X29929395Y-8006020D01*
X6577270Y-13721020D02*
X6577270Y-13647480D01*
X6503730Y-13647480D01*
X6503730Y-13721020D01*
X6577270Y-13721020D01*
X6831270Y-13721020D02*
X6831270Y-13647480D01*
X6757730Y-13647480D01*
X6757730Y-13721020D01*
X6831270Y-13721020D01*
X29913520Y-9911020D02*
X29913520Y-9837480D01*
X29839980Y-9837480D01*
X29839980Y-9911020D01*
X29913520Y-9911020D01*
X30167520Y-9911020D02*
X30167520Y-9837480D01*
X30093980Y-9837480D01*
X30093980Y-9911020D01*
X30167520Y-9911020D01*
X6577270Y-8006020D02*
X6577270Y-7932480D01*
X6503730Y-7932480D01*
X6503730Y-8006020D01*
X6577270Y-8006020D01*
X6831270Y-8006020D02*
X6831270Y-7932480D01*
X6757730Y-7932480D01*
X6757730Y-8006020D01*
X6831270Y-8006020D01*
X18483520Y-9911020D02*
X18483520Y-9837480D01*
X18409980Y-9837480D01*
X18409980Y-9911020D01*
X18483520Y-9911020D01*
X18737520Y-9911020D02*
X18737520Y-9837480D01*
X18663980Y-9837480D01*
X18663980Y-9911020D01*
X18737520Y-9911020D01*
X10387270Y-11816020D02*
X10387270Y-11742480D01*
X10313730Y-11742480D01*
X10313730Y-11816020D01*
X10387270Y-11816020D01*
X10641270Y-11816020D02*
X10641270Y-11742480D01*
X10567730Y-11742480D01*
X10567730Y-11816020D01*
X10641270Y-11816020D01*
X12292270Y-11816020D02*
X12292270Y-11742480D01*
X12218730Y-11742480D01*
X12218730Y-11816020D01*
X12292270Y-11816020D01*
X12546270Y-11816020D02*
X12546270Y-11742480D01*
X12472730Y-11742480D01*
X12472730Y-11816020D01*
X12546270Y-11816020D01*
X-1480880Y-9911020D02*
X-1480880Y-9837480D01*
X-1554420Y-9837480D01*
X-1554420Y-9911020D01*
X-1480880Y-9911020D01*
X-1226880Y-9911020D02*
X-1226880Y-9837480D01*
X-1300420Y-9837480D01*
X-1300420Y-9911020D01*
X-1226880Y-9911020D01*
X16578520Y-13721020D02*
X16578520Y-13647480D01*
X16504980Y-13647480D01*
X16504980Y-13721020D01*
X16578520Y-13721020D01*
X16832520Y-13721020D02*
X16832520Y-13647480D01*
X16758980Y-13647480D01*
X16758980Y-13721020D01*
X16832520Y-13721020D01*
X19912270Y-8006020D02*
X19912270Y-7932480D01*
X19838730Y-7932480D01*
X19838730Y-8006020D01*
X19912270Y-8006020D01*
X20166270Y-8006020D02*
X20166270Y-7932480D01*
X20092730Y-7932480D01*
X20092730Y-8006020D01*
X20166270Y-8006020D01*
X22293520Y-9911020D02*
X22293520Y-9837480D01*
X22219980Y-9837480D01*
X22219980Y-9911020D01*
X22293520Y-9911020D01*
X22547520Y-9911020D02*
X22547520Y-9837480D01*
X22473980Y-9837480D01*
X22473980Y-9911020D01*
X22547520Y-9911020D01*
X10387270Y-8006020D02*
X10387270Y-7932480D01*
X10313730Y-7932480D01*
X10313730Y-8006020D01*
X10387270Y-8006020D01*
X10641270Y-8006020D02*
X10641270Y-7932480D01*
X10567730Y-7932480D01*
X10567730Y-8006020D01*
X10641270Y-8006020D01*
X24198520Y-9911020D02*
X24198520Y-9837480D01*
X24124980Y-9837480D01*
X24124980Y-9911020D01*
X24198520Y-9911020D01*
X24452520Y-9911020D02*
X24452520Y-9837480D01*
X24378980Y-9837480D01*
X24378980Y-9911020D01*
X24452520Y-9911020D01*
X28008520Y-9911020D02*
X28008520Y-9837480D01*
X27934980Y-9837480D01*
X27934980Y-9911020D01*
X28008520Y-9911020D01*
X28262520Y-9911020D02*
X28262520Y-9837480D01*
X28188980Y-9837480D01*
X28188980Y-9911020D01*
X28262520Y-9911020D01*
X26103520Y-13721020D02*
X26103520Y-13647480D01*
X26029980Y-13647480D01*
X26029980Y-13721020D01*
X26103520Y-13721020D01*
X26357520Y-13721020D02*
X26357520Y-13647480D01*
X26283980Y-13647480D01*
X26283980Y-13721020D01*
X26357520Y-13721020D01*
X424120Y-8006020D02*
X424120Y-7932480D01*
X350580Y-7932480D01*
X350580Y-8006020D01*
X424120Y-8006020D01*
X678120Y-8006020D02*
X678120Y-7932480D01*
X604580Y-7932480D01*
X604580Y-8006020D01*
X678120Y-8006020D01*
X424120Y-13721020D02*
X424120Y-13647480D01*
X350580Y-13647480D01*
X350580Y-13721020D01*
X424120Y-13721020D01*
X678120Y-13721020D02*
X678120Y-13647480D01*
X604580Y-13647480D01*
X604580Y-13721020D01*
X678120Y-13721020D01*
X10387270Y-13721020D02*
X10387270Y-13647480D01*
X10313730Y-13647480D01*
X10313730Y-13721020D01*
X10387270Y-13721020D01*
X10641270Y-13721020D02*
X10641270Y-13647480D01*
X10567730Y-13647480D01*
X10567730Y-13721020D01*
X10641270Y-13721020D01*
X4234120Y-8006020D02*
X4234120Y-7932480D01*
X4160580Y-7932480D01*
X4160580Y-8006020D01*
X4234120Y-8006020D01*
X4488120Y-8006020D02*
X4488120Y-7932480D01*
X4414580Y-7932480D01*
X4414580Y-8006020D01*
X4488120Y-8006020D01*
X23484145Y-13721020D02*
X23484145Y-13647480D01*
X23410605Y-13647480D01*
X23410605Y-13721020D01*
X23484145Y-13721020D01*
X23738145Y-13721020D02*
X23738145Y-13647480D01*
X23664605Y-13647480D01*
X23664605Y-13721020D01*
X23738145Y-13721020D01*
X-1480880Y-8006020D02*
X-1480880Y-7932480D01*
X-1554420Y-7932480D01*
X-1554420Y-8006020D01*
X-1480880Y-8006020D01*
X-1226880Y-8006020D02*
X-1226880Y-7932480D01*
X-1300420Y-7932480D01*
X-1300420Y-8006020D01*
X-1226880Y-8006020D01*
X21817270Y-11816020D02*
X21817270Y-11742480D01*
X21743730Y-11742480D01*
X21743730Y-11816020D01*
X21817270Y-11816020D01*
X22071270Y-11816020D02*
X22071270Y-11742480D01*
X21997730Y-11742480D01*
X21997730Y-11816020D01*
X22071270Y-11816020D01*
X21817270Y-8006020D02*
X21817270Y-7932480D01*
X21743730Y-7932480D01*
X21743730Y-8006020D01*
X21817270Y-8006020D01*
X22071270Y-8006020D02*
X22071270Y-7932480D01*
X21997730Y-7932480D01*
X21997730Y-8006020D01*
X22071270Y-8006020D01*
X18007270Y-8006020D02*
X18007270Y-7932480D01*
X17933730Y-7932480D01*
X17933730Y-8006020D01*
X18007270Y-8006020D01*
X18261270Y-8006020D02*
X18261270Y-7932480D01*
X18187730Y-7932480D01*
X18187730Y-8006020D01*
X18261270Y-8006020D01*
X-1480880Y-11816020D02*
X-1480880Y-11742480D01*
X-1554420Y-11742480D01*
X-1554420Y-11816020D01*
X-1480880Y-11816020D01*
X-1226880Y-11816020D02*
X-1226880Y-11742480D01*
X-1300420Y-11742480D01*
X-1300420Y-11816020D01*
X-1226880Y-11816020D01*
X29675395Y-11816020D02*
X29675395Y-11742480D01*
X29601855Y-11742480D01*
X29601855Y-11816020D01*
X29675395Y-11816020D01*
X29929395Y-11816020D02*
X29929395Y-11742480D01*
X29855855Y-11742480D01*
X29855855Y-11816020D01*
X29929395Y-11816020D01*
X16578520Y-9911020D02*
X16578520Y-9837480D01*
X16504980Y-9837480D01*
X16504980Y-9911020D01*
X16578520Y-9911020D01*
X16832520Y-9911020D02*
X16832520Y-9837480D01*
X16758980Y-9837480D01*
X16758980Y-9911020D01*
X16832520Y-9911020D01*
X26103520Y-9911020D02*
X26103520Y-9837480D01*
X26029980Y-9837480D01*
X26029980Y-9911020D01*
X26103520Y-9911020D01*
X26357520Y-9911020D02*
X26357520Y-9837480D01*
X26283980Y-9837480D01*
X26283980Y-9911020D01*
X26357520Y-9911020D01*
X19912270Y-11816020D02*
X19912270Y-11742480D01*
X19838730Y-11742480D01*
X19838730Y-11816020D01*
X19912270Y-11816020D01*
X20166270Y-11816020D02*
X20166270Y-11742480D01*
X20092730Y-11742480D01*
X20092730Y-11816020D01*
X20166270Y-11816020D01*
X4234120Y-9911020D02*
X4234120Y-9837480D01*
X4160580Y-9837480D01*
X4160580Y-9911020D01*
X4234120Y-9911020D01*
X4488120Y-9911020D02*
X4488120Y-9837480D01*
X4414580Y-9837480D01*
X4414580Y-9911020D01*
X4488120Y-9911020D01*
X25627270Y-11816020D02*
X25627270Y-11742480D01*
X25553730Y-11742480D01*
X25553730Y-11816020D01*
X25627270Y-11816020D01*
X25881270Y-11816020D02*
X25881270Y-11742480D01*
X25807730Y-11742480D01*
X25807730Y-11816020D01*
X25881270Y-11816020D01*
X27532270Y-11816020D02*
X27532270Y-11742480D01*
X27458730Y-11742480D01*
X27458730Y-11816020D01*
X27532270Y-11816020D01*
X27786270Y-11816020D02*
X27786270Y-11742480D01*
X27712730Y-11742480D01*
X27712730Y-11816020D01*
X27786270Y-11816020D01*
X-1480880Y-13721020D02*
X-1480880Y-13647480D01*
X-1554420Y-13647480D01*
X-1554420Y-13721020D01*
X-1480880Y-13721020D01*
X-1226880Y-13721020D02*
X-1226880Y-13647480D01*
X-1300420Y-13647480D01*
X-1300420Y-13721020D01*
X-1226880Y-13721020D01*
X23722270Y-11816020D02*
X23722270Y-11742480D01*
X23648730Y-11742480D01*
X23648730Y-11816020D01*
X23722270Y-11816020D01*
X23976270Y-11816020D02*
X23976270Y-11742480D01*
X23902730Y-11742480D01*
X23902730Y-11816020D01*
X23976270Y-11816020D01*
X25812750Y-9185750D02*
X25886250Y-9112250D01*
X25812750Y-9038750D01*
X25739250Y-9112250D01*
X25812750Y-9185750D01*
X25943750Y-9039750D02*
X26017250Y-8966250D01*
X25943750Y-8892750D01*
X25870250Y-8966250D01*
X25943750Y-9039750D01*
X26443750Y-8989750D02*
X26517250Y-8916250D01*
X26443750Y-8842750D01*
X26370250Y-8916250D01*
X26443750Y-8989750D01*
X26447750Y-8931750D02*
X26521250Y-8858250D01*
X26447750Y-8784750D01*
X26374250Y-8858250D01*
X26447750Y-8931750D01*
X19621500Y-11090750D02*
X19695000Y-11017250D01*
X19621500Y-10943750D01*
X19548000Y-11017250D01*
X19621500Y-11090750D01*
X19752500Y-10944750D02*
X19826000Y-10871250D01*
X19752500Y-10797750D01*
X19679000Y-10871250D01*
X19752500Y-10944750D01*
X20252500Y-10894750D02*
X20326000Y-10821250D01*
X20252500Y-10747750D01*
X20179000Y-10821250D01*
X20252500Y-10894750D01*
X20256500Y-10836750D02*
X20330000Y-10763250D01*
X20256500Y-10689750D01*
X20183000Y-10763250D01*
X20256500Y-10836750D01*
X3943350Y-9185750D02*
X4016850Y-9112250D01*
X3943350Y-9038750D01*
X3869850Y-9112250D01*
X3943350Y-9185750D01*
X4074350Y-9039750D02*
X4147850Y-8966250D01*
X4074350Y-8892750D01*
X4000850Y-8966250D01*
X4074350Y-9039750D01*
X4574350Y-8989750D02*
X4647850Y-8916250D01*
X4574350Y-8842750D01*
X4500850Y-8916250D01*
X4574350Y-8989750D01*
X4578350Y-8931750D02*
X4651850Y-8858250D01*
X4578350Y-8784750D01*
X4504850Y-8858250D01*
X4578350Y-8931750D01*
X25336500Y-11090750D02*
X25410000Y-11017250D01*
X25336500Y-10943750D01*
X25263000Y-11017250D01*
X25336500Y-11090750D01*
X25467500Y-10944750D02*
X25541000Y-10871250D01*
X25467500Y-10797750D01*
X25394000Y-10871250D01*
X25467500Y-10944750D01*
X25967500Y-10894750D02*
X26041000Y-10821250D01*
X25967500Y-10747750D01*
X25894000Y-10821250D01*
X25967500Y-10894750D01*
X25971500Y-10836750D02*
X26045000Y-10763250D01*
X25971500Y-10689750D01*
X25898000Y-10763250D01*
X25971500Y-10836750D01*
X27241500Y-11090750D02*
X27315000Y-11017250D01*
X27241500Y-10943750D01*
X27168000Y-11017250D01*
X27241500Y-11090750D01*
X27372500Y-10944750D02*
X27446000Y-10871250D01*
X27372500Y-10797750D01*
X27299000Y-10871250D01*
X27372500Y-10944750D01*
X27872500Y-10894750D02*
X27946000Y-10821250D01*
X27872500Y-10747750D01*
X27799000Y-10821250D01*
X27872500Y-10894750D01*
X27876500Y-10836750D02*
X27950000Y-10763250D01*
X27876500Y-10689750D01*
X27803000Y-10763250D01*
X27876500Y-10836750D01*
X-1771650Y-12995750D02*
X-1698150Y-12922250D01*
X-1771650Y-12848750D01*
X-1845150Y-12922250D01*
X-1771650Y-12995750D01*
X-1640650Y-12849750D02*
X-1567150Y-12776250D01*
X-1640650Y-12702750D01*
X-1714150Y-12776250D01*
X-1640650Y-12849750D01*
X-1140650Y-12799750D02*
X-1067150Y-12726250D01*
X-1140650Y-12652750D01*
X-1214150Y-12726250D01*
X-1140650Y-12799750D01*
X-1136650Y-12741750D02*
X-1063150Y-12668250D01*
X-1136650Y-12594750D01*
X-1210150Y-12668250D01*
X-1136650Y-12741750D01*
X23431500Y-11090750D02*
X23505000Y-11017250D01*
X23431500Y-10943750D01*
X23358000Y-11017250D01*
X23431500Y-11090750D01*
X23562500Y-10944750D02*
X23636000Y-10871250D01*
X23562500Y-10797750D01*
X23489000Y-10871250D01*
X23562500Y-10944750D01*
X24062500Y-10894750D02*
X24136000Y-10821250D01*
X24062500Y-10747750D01*
X23989000Y-10821250D01*
X24062500Y-10894750D01*
X24066500Y-10836750D02*
X24140000Y-10763250D01*
X24066500Y-10689750D01*
X23993000Y-10763250D01*
X24066500Y-10836750D01*
X2038350Y-7280750D02*
X2111850Y-7207250D01*
X2038350Y-7133750D01*
X1964850Y-7207250D01*
X2038350Y-7280750D01*
X2169350Y-7134750D02*
X2242850Y-7061250D01*
X2169350Y-6987750D01*
X2095850Y-7061250D01*
X2169350Y-7134750D01*
X2669350Y-7084750D02*
X2742850Y-7011250D01*
X2669350Y-6937750D01*
X2595850Y-7011250D01*
X2669350Y-7084750D01*
X2673350Y-7026750D02*
X2746850Y-6953250D01*
X2673350Y-6879750D01*
X2599850Y-6953250D01*
X2673350Y-7026750D01*
X17716500Y-11090750D02*
X17790000Y-11017250D01*
X17716500Y-10943750D01*
X17643000Y-11017250D01*
X17716500Y-11090750D01*
X17847500Y-10944750D02*
X17921000Y-10871250D01*
X17847500Y-10797750D01*
X17774000Y-10871250D01*
X17847500Y-10944750D01*
X18347500Y-10894750D02*
X18421000Y-10821250D01*
X18347500Y-10747750D01*
X18274000Y-10821250D01*
X18347500Y-10894750D01*
X18351500Y-10836750D02*
X18425000Y-10763250D01*
X18351500Y-10689750D01*
X18278000Y-10763250D01*
X18351500Y-10836750D01*
X12477750Y-9185750D02*
X12551250Y-9112250D01*
X12477750Y-9038750D01*
X12404250Y-9112250D01*
X12477750Y-9185750D01*
X12608750Y-9039750D02*
X12682250Y-8966250D01*
X12608750Y-8892750D01*
X12535250Y-8966250D01*
X12608750Y-9039750D01*
X13108750Y-8989750D02*
X13182250Y-8916250D01*
X13108750Y-8842750D01*
X13035250Y-8916250D01*
X13108750Y-8989750D01*
X13112750Y-8931750D02*
X13186250Y-8858250D01*
X13112750Y-8784750D01*
X13039250Y-8858250D01*
X13112750Y-8931750D01*
X15811500Y-11090750D02*
X15885000Y-11017250D01*
X15811500Y-10943750D01*
X15738000Y-11017250D01*
X15811500Y-11090750D01*
X15942500Y-10944750D02*
X16016000Y-10871250D01*
X15942500Y-10797750D01*
X15869000Y-10871250D01*
X15942500Y-10944750D01*
X16442500Y-10894750D02*
X16516000Y-10821250D01*
X16442500Y-10747750D01*
X16369000Y-10821250D01*
X16442500Y-10894750D01*
X16446500Y-10836750D02*
X16520000Y-10763250D01*
X16446500Y-10689750D01*
X16373000Y-10763250D01*
X16446500Y-10836750D01*
X6524625Y-9185750D02*
X6598125Y-9112250D01*
X6524625Y-9038750D01*
X6451125Y-9112250D01*
X6524625Y-9185750D01*
X6655625Y-9039750D02*
X6729125Y-8966250D01*
X6655625Y-8892750D01*
X6582125Y-8966250D01*
X6655625Y-9039750D01*
X7155625Y-8989750D02*
X7229125Y-8916250D01*
X7155625Y-8842750D01*
X7082125Y-8916250D01*
X7155625Y-8989750D01*
X7159625Y-8931750D02*
X7233125Y-8858250D01*
X7159625Y-8784750D01*
X7086125Y-8858250D01*
X7159625Y-8931750D01*
X10572750Y-9185750D02*
X10646250Y-9112250D01*
X10572750Y-9038750D01*
X10499250Y-9112250D01*
X10572750Y-9185750D01*
X10703750Y-9039750D02*
X10777250Y-8966250D01*
X10703750Y-8892750D01*
X10630250Y-8966250D01*
X10703750Y-9039750D01*
X11203750Y-8989750D02*
X11277250Y-8916250D01*
X11203750Y-8842750D01*
X11130250Y-8916250D01*
X11203750Y-8989750D01*
X11207750Y-8931750D02*
X11281250Y-8858250D01*
X11207750Y-8784750D01*
X11134250Y-8858250D01*
X11207750Y-8931750D01*
X15811500Y-7280750D02*
X15885000Y-7207250D01*
X15811500Y-7133750D01*
X15738000Y-7207250D01*
X15811500Y-7280750D01*
X15942500Y-7134750D02*
X16016000Y-7061250D01*
X15942500Y-6987750D01*
X15869000Y-7061250D01*
X15942500Y-7134750D01*
X16442500Y-7084750D02*
X16516000Y-7011250D01*
X16442500Y-6937750D01*
X16369000Y-7011250D01*
X16442500Y-7084750D01*
X16446500Y-7026750D02*
X16520000Y-6953250D01*
X16446500Y-6879750D01*
X16373000Y-6953250D01*
X16446500Y-7026750D01*
X133350Y-9185750D02*
X206850Y-9112250D01*
X133350Y-9038750D01*
X59850Y-9112250D01*
X133350Y-9185750D01*
X264350Y-9039750D02*
X337850Y-8966250D01*
X264350Y-8892750D01*
X190850Y-8966250D01*
X264350Y-9039750D01*
X764350Y-8989750D02*
X837850Y-8916250D01*
X764350Y-8842750D01*
X690850Y-8916250D01*
X764350Y-8989750D01*
X768350Y-8931750D02*
X841850Y-8858250D01*
X768350Y-8784750D01*
X694850Y-8858250D01*
X768350Y-8931750D01*
X20097750Y-9185750D02*
X20171250Y-9112250D01*
X20097750Y-9038750D01*
X20024250Y-9112250D01*
X20097750Y-9185750D01*
X20228750Y-9039750D02*
X20302250Y-8966250D01*
X20228750Y-8892750D01*
X20155250Y-8966250D01*
X20228750Y-9039750D01*
X20728750Y-8989750D02*
X20802250Y-8916250D01*
X20728750Y-8842750D01*
X20655250Y-8916250D01*
X20728750Y-8989750D01*
X20732750Y-8931750D02*
X20806250Y-8858250D01*
X20732750Y-8784750D01*
X20659250Y-8858250D01*
X20732750Y-8931750D01*
X20335875Y-12995750D02*
X20409375Y-12922250D01*
X20335875Y-12848750D01*
X20262375Y-12922250D01*
X20335875Y-12995750D01*
X20466875Y-12849750D02*
X20540375Y-12776250D01*
X20466875Y-12702750D01*
X20393375Y-12776250D01*
X20466875Y-12849750D01*
X20966875Y-12799750D02*
X21040375Y-12726250D01*
X20966875Y-12652750D01*
X20893375Y-12726250D01*
X20966875Y-12799750D01*
X20970875Y-12741750D02*
X21044375Y-12668250D01*
X20970875Y-12594750D01*
X20897375Y-12668250D01*
X20970875Y-12741750D01*
X13906500Y-7280750D02*
X13980000Y-7207250D01*
X13906500Y-7133750D01*
X13833000Y-7207250D01*
X13906500Y-7280750D01*
X14037500Y-7134750D02*
X14111000Y-7061250D01*
X14037500Y-6987750D01*
X13964000Y-7061250D01*
X14037500Y-7134750D01*
X14537500Y-7084750D02*
X14611000Y-7011250D01*
X14537500Y-6937750D01*
X14464000Y-7011250D01*
X14537500Y-7084750D01*
X14541500Y-7026750D02*
X14615000Y-6953250D01*
X14541500Y-6879750D01*
X14468000Y-6953250D01*
X14541500Y-7026750D01*
X133350Y-11090750D02*
X206850Y-11017250D01*
X133350Y-10943750D01*
X59850Y-11017250D01*
X133350Y-11090750D01*
X264350Y-10944750D02*
X337850Y-10871250D01*
X264350Y-10797750D01*
X190850Y-10871250D01*
X264350Y-10944750D01*
X764350Y-10894750D02*
X837850Y-10821250D01*
X764350Y-10747750D01*
X690850Y-10821250D01*
X764350Y-10894750D01*
X768350Y-10836750D02*
X841850Y-10763250D01*
X768350Y-10689750D01*
X694850Y-10763250D01*
X768350Y-10836750D01*
X7239000Y-11090750D02*
X7312500Y-11017250D01*
X7239000Y-10943750D01*
X7165500Y-11017250D01*
X7239000Y-11090750D01*
X7370000Y-10944750D02*
X7443500Y-10871250D01*
X7370000Y-10797750D01*
X7296500Y-10871250D01*
X7370000Y-10944750D01*
X7870000Y-10894750D02*
X7943500Y-10821250D01*
X7870000Y-10747750D01*
X7796500Y-10821250D01*
X7870000Y-10894750D01*
X7874000Y-10836750D02*
X7947500Y-10763250D01*
X7874000Y-10689750D01*
X7800500Y-10763250D01*
X7874000Y-10836750D01*
X27241500Y-7280750D02*
X27315000Y-7207250D01*
X27241500Y-7133750D01*
X27168000Y-7207250D01*
X27241500Y-7280750D01*
X27372500Y-7134750D02*
X27446000Y-7061250D01*
X27372500Y-6987750D01*
X27299000Y-7061250D01*
X27372500Y-7134750D01*
X27872500Y-7084750D02*
X27946000Y-7011250D01*
X27872500Y-6937750D01*
X27799000Y-7011250D01*
X27872500Y-7084750D01*
X27876500Y-7026750D02*
X27950000Y-6953250D01*
X27876500Y-6879750D01*
X27803000Y-6953250D01*
X27876500Y-7026750D01*
X29622750Y-12995750D02*
X29696250Y-12922250D01*
X29622750Y-12848750D01*
X29549250Y-12922250D01*
X29622750Y-12995750D01*
X29753750Y-12849750D02*
X29827250Y-12776250D01*
X29753750Y-12702750D01*
X29680250Y-12776250D01*
X29753750Y-12849750D01*
X30253750Y-12799750D02*
X30327250Y-12726250D01*
X30253750Y-12652750D01*
X30180250Y-12726250D01*
X30253750Y-12799750D01*
X30257750Y-12741750D02*
X30331250Y-12668250D01*
X30257750Y-12594750D01*
X30184250Y-12668250D01*
X30257750Y-12741750D01*
X27717750Y-12995750D02*
X27791250Y-12922250D01*
X27717750Y-12848750D01*
X27644250Y-12922250D01*
X27717750Y-12995750D01*
X27848750Y-12849750D02*
X27922250Y-12776250D01*
X27848750Y-12702750D01*
X27775250Y-12776250D01*
X27848750Y-12849750D01*
X28348750Y-12799750D02*
X28422250Y-12726250D01*
X28348750Y-12652750D01*
X28275250Y-12726250D01*
X28348750Y-12799750D01*
X28352750Y-12741750D02*
X28426250Y-12668250D01*
X28352750Y-12594750D01*
X28279250Y-12668250D01*
X28352750Y-12741750D01*
X8191500Y-12995750D02*
X8265000Y-12922250D01*
X8191500Y-12848750D01*
X8118000Y-12922250D01*
X8191500Y-12995750D01*
X8322500Y-12849750D02*
X8396000Y-12776250D01*
X8322500Y-12702750D01*
X8249000Y-12776250D01*
X8322500Y-12849750D01*
X8822500Y-12799750D02*
X8896000Y-12726250D01*
X8822500Y-12652750D01*
X8749000Y-12726250D01*
X8822500Y-12799750D01*
X8826500Y-12741750D02*
X8900000Y-12668250D01*
X8826500Y-12594750D01*
X8753000Y-12668250D01*
X8826500Y-12741750D01*
X2038350Y-12995750D02*
X2111850Y-12922250D01*
X2038350Y-12848750D01*
X1964850Y-12922250D01*
X2038350Y-12995750D01*
X2169350Y-12849750D02*
X2242850Y-12776250D01*
X2169350Y-12702750D01*
X2095850Y-12776250D01*
X2169350Y-12849750D01*
X2669350Y-12799750D02*
X2742850Y-12726250D01*
X2669350Y-12652750D01*
X2595850Y-12726250D01*
X2669350Y-12799750D01*
X2673350Y-12741750D02*
X2746850Y-12668250D01*
X2673350Y-12594750D01*
X2599850Y-12668250D01*
X2673350Y-12741750D01*
X2038350Y-11090750D02*
X2111850Y-11017250D01*
X2038350Y-10943750D01*
X1964850Y-11017250D01*
X2038350Y-11090750D01*
X2169350Y-10944750D02*
X2242850Y-10871250D01*
X2169350Y-10797750D01*
X2095850Y-10871250D01*
X2169350Y-10944750D01*
X2669350Y-10894750D02*
X2742850Y-10821250D01*
X2669350Y-10747750D01*
X2595850Y-10821250D01*
X2669350Y-10894750D01*
X2673350Y-10836750D02*
X2746850Y-10763250D01*
X2673350Y-10689750D01*
X2599850Y-10763250D01*
X2673350Y-10836750D01*
X2038350Y-9185750D02*
X2111850Y-9112250D01*
X2038350Y-9038750D01*
X1964850Y-9112250D01*
X2038350Y-9185750D01*
X2169350Y-9039750D02*
X2242850Y-8966250D01*
X2169350Y-8892750D01*
X2095850Y-8966250D01*
X2169350Y-9039750D01*
X2669350Y-8989750D02*
X2742850Y-8916250D01*
X2669350Y-8842750D01*
X2595850Y-8916250D01*
X2669350Y-8989750D01*
X2673350Y-8931750D02*
X2746850Y-8858250D01*
X2673350Y-8784750D01*
X2599850Y-8858250D01*
X2673350Y-8931750D01*
X12001500Y-7280750D02*
X12075000Y-7207250D01*
X12001500Y-7133750D01*
X11928000Y-7207250D01*
X12001500Y-7280750D01*
X12132500Y-7134750D02*
X12206000Y-7061250D01*
X12132500Y-6987750D01*
X12059000Y-7061250D01*
X12132500Y-7134750D01*
X12632500Y-7084750D02*
X12706000Y-7011250D01*
X12632500Y-6937750D01*
X12559000Y-7011250D01*
X12632500Y-7084750D01*
X12636500Y-7026750D02*
X12710000Y-6953250D01*
X12636500Y-6879750D01*
X12563000Y-6953250D01*
X12636500Y-7026750D01*
X12239625Y-12995750D02*
X12313125Y-12922250D01*
X12239625Y-12848750D01*
X12166125Y-12922250D01*
X12239625Y-12995750D01*
X12370625Y-12849750D02*
X12444125Y-12776250D01*
X12370625Y-12702750D01*
X12297125Y-12776250D01*
X12370625Y-12849750D01*
X12870625Y-12799750D02*
X12944125Y-12726250D01*
X12870625Y-12652750D01*
X12797125Y-12726250D01*
X12870625Y-12799750D01*
X12874625Y-12741750D02*
X12948125Y-12668250D01*
X12874625Y-12594750D01*
X12801125Y-12668250D01*
X12874625Y-12741750D01*
X13906500Y-11090750D02*
X13980000Y-11017250D01*
X13906500Y-10943750D01*
X13833000Y-11017250D01*
X13906500Y-11090750D01*
X14037500Y-10944750D02*
X14111000Y-10871250D01*
X14037500Y-10797750D01*
X13964000Y-10871250D01*
X14037500Y-10944750D01*
X14537500Y-10894750D02*
X14611000Y-10821250D01*
X14537500Y-10747750D01*
X14464000Y-10821250D01*
X14537500Y-10894750D01*
X14541500Y-10836750D02*
X14615000Y-10763250D01*
X14541500Y-10689750D01*
X14468000Y-10763250D01*
X14541500Y-10836750D01*
X14382750Y-9185750D02*
X14456250Y-9112250D01*
X14382750Y-9038750D01*
X14309250Y-9112250D01*
X14382750Y-9185750D01*
X14513750Y-9039750D02*
X14587250Y-8966250D01*
X14513750Y-8892750D01*
X14440250Y-8966250D01*
X14513750Y-9039750D01*
X15013750Y-8989750D02*
X15087250Y-8916250D01*
X15013750Y-8842750D01*
X14940250Y-8916250D01*
X15013750Y-8989750D01*
X15017750Y-8931750D02*
X15091250Y-8858250D01*
X15017750Y-8784750D01*
X14944250Y-8858250D01*
X15017750Y-8931750D01*
X23431500Y-7280750D02*
X23505000Y-7207250D01*
X23431500Y-7133750D01*
X23358000Y-7207250D01*
X23431500Y-7280750D01*
X23562500Y-7134750D02*
X23636000Y-7061250D01*
X23562500Y-6987750D01*
X23489000Y-7061250D01*
X23562500Y-7134750D01*
X24062500Y-7084750D02*
X24136000Y-7011250D01*
X24062500Y-6937750D01*
X23989000Y-7011250D01*
X24062500Y-7084750D01*
X24066500Y-7026750D02*
X24140000Y-6953250D01*
X24066500Y-6879750D01*
X23993000Y-6953250D01*
X24066500Y-7026750D01*
X3943350Y-12995750D02*
X4016850Y-12922250D01*
X3943350Y-12848750D01*
X3869850Y-12922250D01*
X3943350Y-12995750D01*
X4074350Y-12849750D02*
X4147850Y-12776250D01*
X4074350Y-12702750D01*
X4000850Y-12776250D01*
X4074350Y-12849750D01*
X4574350Y-12799750D02*
X4647850Y-12726250D01*
X4574350Y-12652750D01*
X4500850Y-12726250D01*
X4574350Y-12799750D01*
X4578350Y-12741750D02*
X4651850Y-12668250D01*
X4578350Y-12594750D01*
X4504850Y-12668250D01*
X4578350Y-12741750D01*
X3943350Y-11090750D02*
X4016850Y-11017250D01*
X3943350Y-10943750D01*
X3869850Y-11017250D01*
X3943350Y-11090750D01*
X4074350Y-10944750D02*
X4147850Y-10871250D01*
X4074350Y-10797750D01*
X4000850Y-10871250D01*
X4074350Y-10944750D01*
X4574350Y-10894750D02*
X4647850Y-10821250D01*
X4574350Y-10747750D01*
X4500850Y-10821250D01*
X4574350Y-10894750D01*
X4578350Y-10836750D02*
X4651850Y-10763250D01*
X4578350Y-10689750D01*
X4504850Y-10763250D01*
X4578350Y-10836750D01*
X25336500Y-7280750D02*
X25410000Y-7207250D01*
X25336500Y-7133750D01*
X25263000Y-7207250D01*
X25336500Y-7280750D01*
X25467500Y-7134750D02*
X25541000Y-7061250D01*
X25467500Y-6987750D01*
X25394000Y-7061250D01*
X25467500Y-7134750D01*
X25967500Y-7084750D02*
X26041000Y-7011250D01*
X25967500Y-6937750D01*
X25894000Y-7011250D01*
X25967500Y-7084750D01*
X25971500Y-7026750D02*
X26045000Y-6953250D01*
X25971500Y-6879750D01*
X25898000Y-6953250D01*
X25971500Y-7026750D01*
X8667750Y-9185750D02*
X8741250Y-9112250D01*
X8667750Y-9038750D01*
X8594250Y-9112250D01*
X8667750Y-9185750D01*
X8798750Y-9039750D02*
X8872250Y-8966250D01*
X8798750Y-8892750D01*
X8725250Y-8966250D01*
X8798750Y-9039750D01*
X9298750Y-8989750D02*
X9372250Y-8916250D01*
X9298750Y-8842750D01*
X9225250Y-8916250D01*
X9298750Y-8989750D01*
X9302750Y-8931750D02*
X9376250Y-8858250D01*
X9302750Y-8784750D01*
X9229250Y-8858250D01*
X9302750Y-8931750D01*
X8191500Y-7280750D02*
X8265000Y-7207250D01*
X8191500Y-7133750D01*
X8118000Y-7207250D01*
X8191500Y-7280750D01*
X8322500Y-7134750D02*
X8396000Y-7061250D01*
X8322500Y-6987750D01*
X8249000Y-7061250D01*
X8322500Y-7134750D01*
X8822500Y-7084750D02*
X8896000Y-7011250D01*
X8822500Y-6937750D01*
X8749000Y-7011250D01*
X8822500Y-7084750D01*
X8826500Y-7026750D02*
X8900000Y-6953250D01*
X8826500Y-6879750D01*
X8753000Y-6953250D01*
X8826500Y-7026750D01*
X29384625Y-7280750D02*
X29458125Y-7207250D01*
X29384625Y-7133750D01*
X29311125Y-7207250D01*
X29384625Y-7280750D01*
X29515625Y-7134750D02*
X29589125Y-7061250D01*
X29515625Y-6987750D01*
X29442125Y-7061250D01*
X29515625Y-7134750D01*
X30015625Y-7084750D02*
X30089125Y-7011250D01*
X30015625Y-6937750D01*
X29942125Y-7011250D01*
X30015625Y-7084750D01*
X30019625Y-7026750D02*
X30093125Y-6953250D01*
X30019625Y-6879750D01*
X29946125Y-6953250D01*
X30019625Y-7026750D01*
X6286500Y-12995750D02*
X6360000Y-12922250D01*
X6286500Y-12848750D01*
X6213000Y-12922250D01*
X6286500Y-12995750D01*
X6417500Y-12849750D02*
X6491000Y-12776250D01*
X6417500Y-12702750D01*
X6344000Y-12776250D01*
X6417500Y-12849750D01*
X6917500Y-12799750D02*
X6991000Y-12726250D01*
X6917500Y-12652750D01*
X6844000Y-12726250D01*
X6917500Y-12799750D01*
X6921500Y-12741750D02*
X6995000Y-12668250D01*
X6921500Y-12594750D01*
X6848000Y-12668250D01*
X6921500Y-12741750D01*
X29622750Y-9185750D02*
X29696250Y-9112250D01*
X29622750Y-9038750D01*
X29549250Y-9112250D01*
X29622750Y-9185750D01*
X29753750Y-9039750D02*
X29827250Y-8966250D01*
X29753750Y-8892750D01*
X29680250Y-8966250D01*
X29753750Y-9039750D01*
X30253750Y-8989750D02*
X30327250Y-8916250D01*
X30253750Y-8842750D01*
X30180250Y-8916250D01*
X30253750Y-8989750D01*
X30257750Y-8931750D02*
X30331250Y-8858250D01*
X30257750Y-8784750D01*
X30184250Y-8858250D01*
X30257750Y-8931750D01*
X6286500Y-7280750D02*
X6360000Y-7207250D01*
X6286500Y-7133750D01*
X6213000Y-7207250D01*
X6286500Y-7280750D01*
X6417500Y-7134750D02*
X6491000Y-7061250D01*
X6417500Y-6987750D01*
X6344000Y-7061250D01*
X6417500Y-7134750D01*
X6917500Y-7084750D02*
X6991000Y-7011250D01*
X6917500Y-6937750D01*
X6844000Y-7011250D01*
X6917500Y-7084750D01*
X6921500Y-7026750D02*
X6995000Y-6953250D01*
X6921500Y-6879750D01*
X6848000Y-6953250D01*
X6921500Y-7026750D01*
X18192750Y-9185750D02*
X18266250Y-9112250D01*
X18192750Y-9038750D01*
X18119250Y-9112250D01*
X18192750Y-9185750D01*
X18323750Y-9039750D02*
X18397250Y-8966250D01*
X18323750Y-8892750D01*
X18250250Y-8966250D01*
X18323750Y-9039750D01*
X18823750Y-8989750D02*
X18897250Y-8916250D01*
X18823750Y-8842750D01*
X18750250Y-8916250D01*
X18823750Y-8989750D01*
X18827750Y-8931750D02*
X18901250Y-8858250D01*
X18827750Y-8784750D01*
X18754250Y-8858250D01*
X18827750Y-8931750D01*
X10096500Y-11090750D02*
X10170000Y-11017250D01*
X10096500Y-10943750D01*
X10023000Y-11017250D01*
X10096500Y-11090750D01*
X10227500Y-10944750D02*
X10301000Y-10871250D01*
X10227500Y-10797750D01*
X10154000Y-10871250D01*
X10227500Y-10944750D01*
X10727500Y-10894750D02*
X10801000Y-10821250D01*
X10727500Y-10747750D01*
X10654000Y-10821250D01*
X10727500Y-10894750D01*
X10731500Y-10836750D02*
X10805000Y-10763250D01*
X10731500Y-10689750D01*
X10658000Y-10763250D01*
X10731500Y-10836750D01*
X12001500Y-11090750D02*
X12075000Y-11017250D01*
X12001500Y-10943750D01*
X11928000Y-11017250D01*
X12001500Y-11090750D01*
X12132500Y-10944750D02*
X12206000Y-10871250D01*
X12132500Y-10797750D01*
X12059000Y-10871250D01*
X12132500Y-10944750D01*
X12632500Y-10894750D02*
X12706000Y-10821250D01*
X12632500Y-10747750D01*
X12559000Y-10821250D01*
X12632500Y-10894750D01*
X12636500Y-10836750D02*
X12710000Y-10763250D01*
X12636500Y-10689750D01*
X12563000Y-10763250D01*
X12636500Y-10836750D01*
X-1771650Y-9185750D02*
X-1698150Y-9112250D01*
X-1771650Y-9038750D01*
X-1845150Y-9112250D01*
X-1771650Y-9185750D01*
X-1640650Y-9039750D02*
X-1567150Y-8966250D01*
X-1640650Y-8892750D01*
X-1714150Y-8966250D01*
X-1640650Y-9039750D01*
X-1140650Y-8989750D02*
X-1067150Y-8916250D01*
X-1140650Y-8842750D01*
X-1214150Y-8916250D01*
X-1140650Y-8989750D01*
X-1136650Y-8931750D02*
X-1063150Y-8858250D01*
X-1136650Y-8784750D01*
X-1210150Y-8858250D01*
X-1136650Y-8931750D01*
X16287750Y-12995750D02*
X16361250Y-12922250D01*
X16287750Y-12848750D01*
X16214250Y-12922250D01*
X16287750Y-12995750D01*
X16418750Y-12849750D02*
X16492250Y-12776250D01*
X16418750Y-12702750D01*
X16345250Y-12776250D01*
X16418750Y-12849750D01*
X16918750Y-12799750D02*
X16992250Y-12726250D01*
X16918750Y-12652750D01*
X16845250Y-12726250D01*
X16918750Y-12799750D01*
X16922750Y-12741750D02*
X16996250Y-12668250D01*
X16922750Y-12594750D01*
X16849250Y-12668250D01*
X16922750Y-12741750D01*
X19621500Y-7280750D02*
X19695000Y-7207250D01*
X19621500Y-7133750D01*
X19548000Y-7207250D01*
X19621500Y-7280750D01*
X19752500Y-7134750D02*
X19826000Y-7061250D01*
X19752500Y-6987750D01*
X19679000Y-7061250D01*
X19752500Y-7134750D01*
X20252500Y-7084750D02*
X20326000Y-7011250D01*
X20252500Y-6937750D01*
X20179000Y-7011250D01*
X20252500Y-7084750D01*
X20256500Y-7026750D02*
X20330000Y-6953250D01*
X20256500Y-6879750D01*
X20183000Y-6953250D01*
X20256500Y-7026750D01*
X22002750Y-9185750D02*
X22076250Y-9112250D01*
X22002750Y-9038750D01*
X21929250Y-9112250D01*
X22002750Y-9185750D01*
X22133750Y-9039750D02*
X22207250Y-8966250D01*
X22133750Y-8892750D01*
X22060250Y-8966250D01*
X22133750Y-9039750D01*
X22633750Y-8989750D02*
X22707250Y-8916250D01*
X22633750Y-8842750D01*
X22560250Y-8916250D01*
X22633750Y-8989750D01*
X22637750Y-8931750D02*
X22711250Y-8858250D01*
X22637750Y-8784750D01*
X22564250Y-8858250D01*
X22637750Y-8931750D01*
X10096500Y-7280750D02*
X10170000Y-7207250D01*
X10096500Y-7133750D01*
X10023000Y-7207250D01*
X10096500Y-7280750D01*
X10227500Y-7134750D02*
X10301000Y-7061250D01*
X10227500Y-6987750D01*
X10154000Y-7061250D01*
X10227500Y-7134750D01*
X10727500Y-7084750D02*
X10801000Y-7011250D01*
X10727500Y-6937750D01*
X10654000Y-7011250D01*
X10727500Y-7084750D01*
X10731500Y-7026750D02*
X10805000Y-6953250D01*
X10731500Y-6879750D01*
X10658000Y-6953250D01*
X10731500Y-7026750D01*
X23907750Y-9185750D02*
X23981250Y-9112250D01*
X23907750Y-9038750D01*
X23834250Y-9112250D01*
X23907750Y-9185750D01*
X24038750Y-9039750D02*
X24112250Y-8966250D01*
X24038750Y-8892750D01*
X23965250Y-8966250D01*
X24038750Y-9039750D01*
X24538750Y-8989750D02*
X24612250Y-8916250D01*
X24538750Y-8842750D01*
X24465250Y-8916250D01*
X24538750Y-8989750D01*
X24542750Y-8931750D02*
X24616250Y-8858250D01*
X24542750Y-8784750D01*
X24469250Y-8858250D01*
X24542750Y-8931750D01*
X27717750Y-9185750D02*
X27791250Y-9112250D01*
X27717750Y-9038750D01*
X27644250Y-9112250D01*
X27717750Y-9185750D01*
X27848750Y-9039750D02*
X27922250Y-8966250D01*
X27848750Y-8892750D01*
X27775250Y-8966250D01*
X27848750Y-9039750D01*
X28348750Y-8989750D02*
X28422250Y-8916250D01*
X28348750Y-8842750D01*
X28275250Y-8916250D01*
X28348750Y-8989750D01*
X28352750Y-8931750D02*
X28426250Y-8858250D01*
X28352750Y-8784750D01*
X28279250Y-8858250D01*
X28352750Y-8931750D01*
X25812750Y-12995750D02*
X25886250Y-12922250D01*
X25812750Y-12848750D01*
X25739250Y-12922250D01*
X25812750Y-12995750D01*
X25943750Y-12849750D02*
X26017250Y-12776250D01*
X25943750Y-12702750D01*
X25870250Y-12776250D01*
X25943750Y-12849750D01*
X26443750Y-12799750D02*
X26517250Y-12726250D01*
X26443750Y-12652750D01*
X26370250Y-12726250D01*
X26443750Y-12799750D01*
X26447750Y-12741750D02*
X26521250Y-12668250D01*
X26447750Y-12594750D01*
X26374250Y-12668250D01*
X26447750Y-12741750D01*
X133350Y-7280750D02*
X206850Y-7207250D01*
X133350Y-7133750D01*
X59850Y-7207250D01*
X133350Y-7280750D01*
X264350Y-7134750D02*
X337850Y-7061250D01*
X264350Y-6987750D01*
X190850Y-7061250D01*
X264350Y-7134750D01*
X764350Y-7084750D02*
X837850Y-7011250D01*
X764350Y-6937750D01*
X690850Y-7011250D01*
X764350Y-7084750D01*
X768350Y-7026750D02*
X841850Y-6953250D01*
X768350Y-6879750D01*
X694850Y-6953250D01*
X768350Y-7026750D01*
X133350Y-12995750D02*
X206850Y-12922250D01*
X133350Y-12848750D01*
X59850Y-12922250D01*
X133350Y-12995750D01*
X264350Y-12849750D02*
X337850Y-12776250D01*
X264350Y-12702750D01*
X190850Y-12776250D01*
X264350Y-12849750D01*
X764350Y-12799750D02*
X837850Y-12726250D01*
X764350Y-12652750D01*
X690850Y-12726250D01*
X764350Y-12799750D01*
X768350Y-12741750D02*
X841850Y-12668250D01*
X768350Y-12594750D01*
X694850Y-12668250D01*
X768350Y-12741750D01*
X10096500Y-12995750D02*
X10170000Y-12922250D01*
X10096500Y-12848750D01*
X10023000Y-12922250D01*
X10096500Y-12995750D01*
X10227500Y-12849750D02*
X10301000Y-12776250D01*
X10227500Y-12702750D01*
X10154000Y-12776250D01*
X10227500Y-12849750D01*
X10727500Y-12799750D02*
X10801000Y-12726250D01*
X10727500Y-12652750D01*
X10654000Y-12726250D01*
X10727500Y-12799750D01*
X10731500Y-12741750D02*
X10805000Y-12668250D01*
X10731500Y-12594750D01*
X10658000Y-12668250D01*
X10731500Y-12741750D01*
X3943350Y-7280750D02*
X4016850Y-7207250D01*
X3943350Y-7133750D01*
X3869850Y-7207250D01*
X3943350Y-7280750D01*
X4074350Y-7134750D02*
X4147850Y-7061250D01*
X4074350Y-6987750D01*
X4000850Y-7061250D01*
X4074350Y-7134750D01*
X4574350Y-7084750D02*
X4647850Y-7011250D01*
X4574350Y-6937750D01*
X4500850Y-7011250D01*
X4574350Y-7084750D01*
X4578350Y-7026750D02*
X4651850Y-6953250D01*
X4578350Y-6879750D01*
X4504850Y-6953250D01*
X4578350Y-7026750D01*
X23193375Y-12995750D02*
X23266875Y-12922250D01*
X23193375Y-12848750D01*
X23119875Y-12922250D01*
X23193375Y-12995750D01*
X23324375Y-12849750D02*
X23397875Y-12776250D01*
X23324375Y-12702750D01*
X23250875Y-12776250D01*
X23324375Y-12849750D01*
X23824375Y-12799750D02*
X23897875Y-12726250D01*
X23824375Y-12652750D01*
X23750875Y-12726250D01*
X23824375Y-12799750D01*
X23828375Y-12741750D02*
X23901875Y-12668250D01*
X23828375Y-12594750D01*
X23754875Y-12668250D01*
X23828375Y-12741750D01*
X-1771650Y-7280750D02*
X-1698150Y-7207250D01*
X-1771650Y-7133750D01*
X-1845150Y-7207250D01*
X-1771650Y-7280750D01*
X-1640650Y-7134750D02*
X-1567150Y-7061250D01*
X-1640650Y-6987750D01*
X-1714150Y-7061250D01*
X-1640650Y-7134750D01*
X-1140650Y-7084750D02*
X-1067150Y-7011250D01*
X-1140650Y-6937750D01*
X-1214150Y-7011250D01*
X-1140650Y-7084750D01*
X-1136650Y-7026750D02*
X-1063150Y-6953250D01*
X-1136650Y-6879750D01*
X-1210150Y-6953250D01*
X-1136650Y-7026750D01*
X21526500Y-11090750D02*
X21600000Y-11017250D01*
X21526500Y-10943750D01*
X21453000Y-11017250D01*
X21526500Y-11090750D01*
X21657500Y-10944750D02*
X21731000Y-10871250D01*
X21657500Y-10797750D01*
X21584000Y-10871250D01*
X21657500Y-10944750D01*
X22157500Y-10894750D02*
X22231000Y-10821250D01*
X22157500Y-10747750D01*
X22084000Y-10821250D01*
X22157500Y-10894750D01*
X22161500Y-10836750D02*
X22235000Y-10763250D01*
X22161500Y-10689750D01*
X22088000Y-10763250D01*
X22161500Y-10836750D01*
X21526500Y-7280750D02*
X21600000Y-7207250D01*
X21526500Y-7133750D01*
X21453000Y-7207250D01*
X21526500Y-7280750D01*
X21657500Y-7134750D02*
X21731000Y-7061250D01*
X21657500Y-6987750D01*
X21584000Y-7061250D01*
X21657500Y-7134750D01*
X22157500Y-7084750D02*
X22231000Y-7011250D01*
X22157500Y-6937750D01*
X22084000Y-7011250D01*
X22157500Y-7084750D01*
X22161500Y-7026750D02*
X22235000Y-6953250D01*
X22161500Y-6879750D01*
X22088000Y-6953250D01*
X22161500Y-7026750D01*
X17716500Y-7280750D02*
X17790000Y-7207250D01*
X17716500Y-7133750D01*
X17643000Y-7207250D01*
X17716500Y-7280750D01*
X17847500Y-7134750D02*
X17921000Y-7061250D01*
X17847500Y-6987750D01*
X17774000Y-7061250D01*
X17847500Y-7134750D01*
X18347500Y-7084750D02*
X18421000Y-7011250D01*
X18347500Y-6937750D01*
X18274000Y-7011250D01*
X18347500Y-7084750D01*
X18351500Y-7026750D02*
X18425000Y-6953250D01*
X18351500Y-6879750D01*
X18278000Y-6953250D01*
X18351500Y-7026750D01*
X-1771650Y-11090750D02*
X-1698150Y-11017250D01*
X-1771650Y-10943750D01*
X-1845150Y-11017250D01*
X-1771650Y-11090750D01*
X-1640650Y-10944750D02*
X-1567150Y-10871250D01*
X-1640650Y-10797750D01*
X-1714150Y-10871250D01*
X-1640650Y-10944750D01*
X-1140650Y-10894750D02*
X-1067150Y-10821250D01*
X-1140650Y-10747750D01*
X-1214150Y-10821250D01*
X-1140650Y-10894750D01*
X-1136650Y-10836750D02*
X-1063150Y-10763250D01*
X-1136650Y-10689750D01*
X-1210150Y-10763250D01*
X-1136650Y-10836750D01*
X29384625Y-11090750D02*
X29458125Y-11017250D01*
X29384625Y-10943750D01*
X29311125Y-11017250D01*
X29384625Y-11090750D01*
X29515625Y-10944750D02*
X29589125Y-10871250D01*
X29515625Y-10797750D01*
X29442125Y-10871250D01*
X29515625Y-10944750D01*
X30015625Y-10894750D02*
X30089125Y-10821250D01*
X30015625Y-10747750D01*
X29942125Y-10821250D01*
X30015625Y-10894750D01*
X30019625Y-10836750D02*
X30093125Y-10763250D01*
X30019625Y-10689750D01*
X29946125Y-10763250D01*
X30019625Y-10836750D01*
X16287750Y-9185750D02*
X16361250Y-9112250D01*
X16287750Y-9038750D01*
X16214250Y-9112250D01*
X16287750Y-9185750D01*
X16418750Y-9039750D02*
X16492250Y-8966250D01*
X16418750Y-8892750D01*
X16345250Y-8966250D01*
X16418750Y-9039750D01*
X16918750Y-8989750D02*
X16992250Y-8916250D01*
X16918750Y-8842750D01*
X16845250Y-8916250D01*
X16918750Y-8989750D01*
X16922750Y-8931750D02*
X16996250Y-8858250D01*
X16922750Y-8784750D01*
X16849250Y-8858250D01*
X16922750Y-8931750D01*
D12*
X-2388072Y-14925814D02*
X-2388072Y-14625814D01*
X-2316643Y-14625814D01*
X-2273786Y-14640100D01*
X-2245214Y-14668671D01*
X-2230929Y-14697243D01*
X-2216643Y-14754386D01*
X-2216643Y-14797243D01*
X-2230929Y-14854386D01*
X-2245214Y-14882957D01*
X-2273786Y-14911529D01*
X-2316643Y-14925814D01*
X-2388072Y-14925814D01*
X-2088071Y-14925814D02*
X-2088071Y-14725814D01*
X-2088071Y-14782957D02*
X-2073786Y-14754386D01*
X-2059500Y-14740100D01*
X-2030929Y-14725814D01*
X-2002357Y-14725814D01*
X-1902357Y-14925814D02*
X-1902357Y-14725814D01*
X-1902357Y-14625814D02*
X-1916643Y-14640100D01*
X-1902357Y-14654386D01*
X-1888071Y-14640100D01*
X-1902357Y-14625814D01*
X-1902357Y-14654386D01*
X-1716643Y-14925814D02*
X-1745214Y-14911529D01*
X-1759500Y-14882957D01*
X-1759500Y-14625814D01*
X-1559500Y-14925814D02*
X-1588071Y-14911529D01*
X-1602357Y-14882957D01*
X-1602357Y-14625814D01*
X-1216643Y-14925814D02*
X-1216643Y-14625814D01*
X-1116643Y-14840100D01*
X-1016643Y-14625814D01*
X-1016643Y-14925814D01*
X-745214Y-14925814D02*
X-745214Y-14768671D01*
X-759500Y-14740100D01*
X-788071Y-14725814D01*
X-845214Y-14725814D01*
X-873786Y-14740100D01*
X-745214Y-14911529D02*
X-773786Y-14925814D01*
X-845214Y-14925814D01*
X-873786Y-14911529D01*
X-888071Y-14882957D01*
X-888071Y-14854386D01*
X-873786Y-14825814D01*
X-845214Y-14811529D01*
X-773786Y-14811529D01*
X-745214Y-14797243D01*
X-602357Y-14725814D02*
X-602357Y-15025814D01*
X-602357Y-14740100D02*
X-573786Y-14725814D01*
X-516643Y-14725814D01*
X-488071Y-14740100D01*
X-473786Y-14754386D01*
X-459500Y-14782957D01*
X-459500Y-14868671D01*
X-473786Y-14897243D01*
X-488071Y-14911529D01*
X-516643Y-14925814D01*
X-573786Y-14925814D01*
X-602357Y-14911529D01*
X-330929Y-14897243D02*
X-316643Y-14911529D01*
X-330929Y-14925814D01*
X-345214Y-14911529D01*
X-330929Y-14897243D01*
X-330929Y-14925814D01*
X-330929Y-14740100D02*
X-316643Y-14754386D01*
X-330929Y-14768671D01*
X-345214Y-14754386D01*
X-330929Y-14740100D01*
X-330929Y-14768671D01*
X-2714500Y-15400100D02*
X-2674500Y-15440100D01*
X-2674500Y-15400100D02*
X-2714500Y-15440100D01*
X-2330929Y-15255814D02*
X-2302357Y-15255814D01*
X-2273786Y-15270100D01*
X-2259500Y-15284386D01*
X-2245214Y-15312957D01*
X-2230929Y-15370100D01*
X-2230929Y-15441529D01*
X-2245214Y-15498671D01*
X-2259500Y-15527243D01*
X-2273786Y-15541529D01*
X-2302357Y-15555814D01*
X-2330929Y-15555814D01*
X-2359500Y-15541529D01*
X-2373786Y-15527243D01*
X-2388072Y-15498671D01*
X-2402357Y-15441529D01*
X-2402357Y-15370100D01*
X-2388072Y-15312957D01*
X-2373786Y-15284386D01*
X-2359500Y-15270100D01*
X-2330929Y-15255814D01*
X-2102357Y-15527243D02*
X-2088071Y-15541529D01*
X-2102357Y-15555814D01*
X-2116643Y-15541529D01*
X-2102357Y-15527243D01*
X-2102357Y-15555814D01*
X-1830929Y-15355814D02*
X-1830929Y-15555814D01*
X-1902357Y-15241529D02*
X-1973786Y-15455814D01*
X-1788071Y-15455814D01*
X-1616643Y-15255814D02*
X-1588071Y-15255814D01*
X-1559500Y-15270100D01*
X-1545214Y-15284386D01*
X-1530929Y-15312957D01*
X-1516643Y-15370100D01*
X-1516643Y-15441529D01*
X-1530929Y-15498671D01*
X-1545214Y-15527243D01*
X-1559500Y-15541529D01*
X-1588071Y-15555814D01*
X-1616643Y-15555814D01*
X-1645214Y-15541529D01*
X-1659500Y-15527243D01*
X-1673786Y-15498671D01*
X-1688071Y-15441529D01*
X-1688071Y-15370100D01*
X-1673786Y-15312957D01*
X-1659500Y-15284386D01*
X-1645214Y-15270100D01*
X-1616643Y-15255814D01*
X-1388072Y-15555814D02*
X-1388072Y-15355814D01*
X-1388072Y-15384386D02*
X-1373786Y-15370100D01*
X-1345214Y-15355814D01*
X-1302357Y-15355814D01*
X-1273786Y-15370100D01*
X-1259500Y-15398671D01*
X-1259500Y-15555814D01*
X-1259500Y-15398671D02*
X-1245214Y-15370100D01*
X-1216643Y-15355814D01*
X-1173786Y-15355814D01*
X-1145214Y-15370100D01*
X-1130929Y-15398671D01*
X-1130929Y-15555814D01*
X-988071Y-15555814D02*
X-988071Y-15355814D01*
X-988071Y-15384386D02*
X-973786Y-15370100D01*
X-945214Y-15355814D01*
X-902357Y-15355814D01*
X-873786Y-15370100D01*
X-859500Y-15398671D01*
X-859500Y-15555814D01*
X-859500Y-15398671D02*
X-845214Y-15370100D01*
X-816643Y-15355814D01*
X-773786Y-15355814D01*
X-745214Y-15370100D01*
X-730929Y-15398671D01*
X-730929Y-15555814D01*
X-145214Y-15241529D02*
X-402357Y-15627243D01*
X240500Y-15255814D02*
X269071Y-15255814D01*
X297643Y-15270100D01*
X311928Y-15284386D01*
X326214Y-15312957D01*
X340500Y-15370100D01*
X340500Y-15441529D01*
X326214Y-15498671D01*
X311928Y-15527243D01*
X297643Y-15541529D01*
X269071Y-15555814D01*
X240500Y-15555814D01*
X211928Y-15541529D01*
X197643Y-15527243D01*
X183357Y-15498671D01*
X169071Y-15441529D01*
X169071Y-15370100D01*
X183357Y-15312957D01*
X197643Y-15284386D01*
X211928Y-15270100D01*
X240500Y-15255814D01*
X469071Y-15527243D02*
X483357Y-15541529D01*
X469071Y-15555814D01*
X454786Y-15541529D01*
X469071Y-15527243D01*
X469071Y-15555814D01*
X669071Y-15255814D02*
X697643Y-15255814D01*
X726214Y-15270100D01*
X740500Y-15284386D01*
X754786Y-15312957D01*
X769071Y-15370100D01*
X769071Y-15441529D01*
X754786Y-15498671D01*
X740500Y-15527243D01*
X726214Y-15541529D01*
X697643Y-15555814D01*
X669071Y-15555814D01*
X640500Y-15541529D01*
X626214Y-15527243D01*
X611928Y-15498671D01*
X597643Y-15441529D01*
X597643Y-15370100D01*
X611928Y-15312957D01*
X626214Y-15284386D01*
X640500Y-15270100D01*
X669071Y-15255814D01*
X1054786Y-15555814D02*
X883357Y-15555814D01*
X969071Y-15555814D02*
X969071Y-15255814D01*
X940500Y-15298671D01*
X911928Y-15327243D01*
X883357Y-15341529D01*
X1311928Y-15255814D02*
X1254786Y-15255814D01*
X1226214Y-15270100D01*
X1211928Y-15284386D01*
X1183357Y-15327243D01*
X1169071Y-15384386D01*
X1169071Y-15498671D01*
X1183357Y-15527243D01*
X1197643Y-15541529D01*
X1226214Y-15555814D01*
X1283357Y-15555814D01*
X1311928Y-15541529D01*
X1326214Y-15527243D01*
X1340500Y-15498671D01*
X1340500Y-15427243D01*
X1326214Y-15398671D01*
X1311928Y-15384386D01*
X1283357Y-15370100D01*
X1226214Y-15370100D01*
X1197643Y-15384386D01*
X1183357Y-15398671D01*
X1169071Y-15427243D01*
X1454786Y-15255814D02*
X1454786Y-15312957D01*
X1569071Y-15255814D02*
X1569071Y-15312957D01*
X2011928Y-15670100D02*
X1997643Y-15655814D01*
X1969071Y-15612957D01*
X1954786Y-15584386D01*
X1940500Y-15541529D01*
X1926214Y-15470100D01*
X1926214Y-15412957D01*
X1940500Y-15341529D01*
X1954786Y-15298671D01*
X1969071Y-15270100D01*
X1997643Y-15227243D01*
X2011928Y-15212957D01*
X2269071Y-15255814D02*
X2126214Y-15255814D01*
X2111928Y-15398671D01*
X2126214Y-15384386D01*
X2154786Y-15370100D01*
X2226214Y-15370100D01*
X2254786Y-15384386D01*
X2269071Y-15398671D01*
X2283357Y-15427243D01*
X2283357Y-15498671D01*
X2269071Y-15527243D01*
X2254786Y-15541529D01*
X2226214Y-15555814D01*
X2154786Y-15555814D01*
X2126214Y-15541529D01*
X2111928Y-15527243D01*
X2540500Y-15255814D02*
X2483357Y-15255814D01*
X2454786Y-15270100D01*
X2440500Y-15284386D01*
X2411928Y-15327243D01*
X2397643Y-15384386D01*
X2397643Y-15498671D01*
X2411928Y-15527243D01*
X2426214Y-15541529D01*
X2454786Y-15555814D01*
X2511928Y-15555814D01*
X2540500Y-15541529D01*
X2554786Y-15527243D01*
X2569071Y-15498671D01*
X2569071Y-15427243D01*
X2554786Y-15398671D01*
X2540500Y-15384386D01*
X2511928Y-15370100D01*
X2454786Y-15370100D01*
X2426214Y-15384386D01*
X2411928Y-15398671D01*
X2397643Y-15427243D01*
X2926214Y-15555814D02*
X2926214Y-15255814D01*
X3054786Y-15555814D02*
X3054786Y-15398671D01*
X3040500Y-15370100D01*
X3011928Y-15355814D01*
X2969071Y-15355814D01*
X2940500Y-15370100D01*
X2926214Y-15384386D01*
X3240500Y-15555814D02*
X3211928Y-15541529D01*
X3197643Y-15527243D01*
X3183357Y-15498671D01*
X3183357Y-15412957D01*
X3197643Y-15384386D01*
X3211928Y-15370100D01*
X3240500Y-15355814D01*
X3283357Y-15355814D01*
X3311928Y-15370100D01*
X3326214Y-15384386D01*
X3340500Y-15412957D01*
X3340500Y-15498671D01*
X3326214Y-15527243D01*
X3311928Y-15541529D01*
X3283357Y-15555814D01*
X3240500Y-15555814D01*
X3511928Y-15555814D02*
X3483357Y-15541529D01*
X3469071Y-15512957D01*
X3469071Y-15255814D01*
X3740500Y-15541529D02*
X3711928Y-15555814D01*
X3654786Y-15555814D01*
X3626214Y-15541529D01*
X3611928Y-15512957D01*
X3611928Y-15398671D01*
X3626214Y-15370100D01*
X3654786Y-15355814D01*
X3711928Y-15355814D01*
X3740500Y-15370100D01*
X3754786Y-15398671D01*
X3754786Y-15427243D01*
X3611928Y-15455814D01*
X3869071Y-15541529D02*
X3897643Y-15555814D01*
X3954786Y-15555814D01*
X3983357Y-15541529D01*
X3997643Y-15512957D01*
X3997643Y-15498671D01*
X3983357Y-15470100D01*
X3954786Y-15455814D01*
X3911928Y-15455814D01*
X3883357Y-15441529D01*
X3869071Y-15412957D01*
X3869071Y-15398671D01*
X3883357Y-15370100D01*
X3911928Y-15355814D01*
X3954786Y-15355814D01*
X3983357Y-15370100D01*
X4097643Y-15670100D02*
X4111928Y-15655814D01*
X4140500Y-15612957D01*
X4154786Y-15584386D01*
X4169071Y-15541529D01*
X4183357Y-15470100D01*
X4183357Y-15412957D01*
X4169071Y-15341529D01*
X4154786Y-15298671D01*
X4140500Y-15270100D01*
X4111928Y-15227243D01*
X4097643Y-15212957D01*
X-2674500Y-15816100D02*
G75*
G03X-2674500Y-15816100I-30000J0D01*
G01*
X-2330929Y-15651814D02*
X-2302357Y-15651814D01*
X-2273786Y-15666100D01*
X-2259500Y-15680386D01*
X-2245214Y-15708957D01*
X-2230929Y-15766100D01*
X-2230929Y-15837529D01*
X-2245214Y-15894671D01*
X-2259500Y-15923243D01*
X-2273786Y-15937529D01*
X-2302357Y-15951814D01*
X-2330929Y-15951814D01*
X-2359500Y-15937529D01*
X-2373786Y-15923243D01*
X-2388072Y-15894671D01*
X-2402357Y-15837529D01*
X-2402357Y-15766100D01*
X-2388072Y-15708957D01*
X-2373786Y-15680386D01*
X-2359500Y-15666100D01*
X-2330929Y-15651814D01*
X-2102357Y-15923243D02*
X-2088071Y-15937529D01*
X-2102357Y-15951814D01*
X-2116643Y-15937529D01*
X-2102357Y-15923243D01*
X-2102357Y-15951814D01*
X-1830929Y-15651814D02*
X-1888071Y-15651814D01*
X-1916643Y-15666100D01*
X-1930929Y-15680386D01*
X-1959500Y-15723243D01*
X-1973786Y-15780386D01*
X-1973786Y-15894671D01*
X-1959500Y-15923243D01*
X-1945214Y-15937529D01*
X-1916643Y-15951814D01*
X-1859500Y-15951814D01*
X-1830929Y-15937529D01*
X-1816643Y-15923243D01*
X-1802357Y-15894671D01*
X-1802357Y-15823243D01*
X-1816643Y-15794671D01*
X-1830929Y-15780386D01*
X-1859500Y-15766100D01*
X-1916643Y-15766100D01*
X-1945214Y-15780386D01*
X-1959500Y-15794671D01*
X-1973786Y-15823243D01*
X-1616643Y-15651814D02*
X-1588071Y-15651814D01*
X-1559500Y-15666100D01*
X-1545214Y-15680386D01*
X-1530929Y-15708957D01*
X-1516643Y-15766100D01*
X-1516643Y-15837529D01*
X-1530929Y-15894671D01*
X-1545214Y-15923243D01*
X-1559500Y-15937529D01*
X-1588071Y-15951814D01*
X-1616643Y-15951814D01*
X-1645214Y-15937529D01*
X-1659500Y-15923243D01*
X-1673786Y-15894671D01*
X-1688071Y-15837529D01*
X-1688071Y-15766100D01*
X-1673786Y-15708957D01*
X-1659500Y-15680386D01*
X-1645214Y-15666100D01*
X-1616643Y-15651814D01*
X-1388072Y-15951814D02*
X-1388072Y-15751814D01*
X-1388072Y-15780386D02*
X-1373786Y-15766100D01*
X-1345214Y-15751814D01*
X-1302357Y-15751814D01*
X-1273786Y-15766100D01*
X-1259500Y-15794671D01*
X-1259500Y-15951814D01*
X-1259500Y-15794671D02*
X-1245214Y-15766100D01*
X-1216643Y-15751814D01*
X-1173786Y-15751814D01*
X-1145214Y-15766100D01*
X-1130929Y-15794671D01*
X-1130929Y-15951814D01*
X-988071Y-15951814D02*
X-988071Y-15751814D01*
X-988071Y-15780386D02*
X-973786Y-15766100D01*
X-945214Y-15751814D01*
X-902357Y-15751814D01*
X-873786Y-15766100D01*
X-859500Y-15794671D01*
X-859500Y-15951814D01*
X-859500Y-15794671D02*
X-845214Y-15766100D01*
X-816643Y-15751814D01*
X-773786Y-15751814D01*
X-745214Y-15766100D01*
X-730929Y-15794671D01*
X-730929Y-15951814D01*
X-145214Y-15637529D02*
X-402357Y-16023243D01*
X240500Y-15651814D02*
X269071Y-15651814D01*
X297643Y-15666100D01*
X311928Y-15680386D01*
X326214Y-15708957D01*
X340500Y-15766100D01*
X340500Y-15837529D01*
X326214Y-15894671D01*
X311928Y-15923243D01*
X297643Y-15937529D01*
X269071Y-15951814D01*
X240500Y-15951814D01*
X211928Y-15937529D01*
X197643Y-15923243D01*
X183357Y-15894671D01*
X169071Y-15837529D01*
X169071Y-15766100D01*
X183357Y-15708957D01*
X197643Y-15680386D01*
X211928Y-15666100D01*
X240500Y-15651814D01*
X469071Y-15923243D02*
X483357Y-15937529D01*
X469071Y-15951814D01*
X454786Y-15937529D01*
X469071Y-15923243D01*
X469071Y-15951814D01*
X669071Y-15651814D02*
X697643Y-15651814D01*
X726214Y-15666100D01*
X740500Y-15680386D01*
X754786Y-15708957D01*
X769071Y-15766100D01*
X769071Y-15837529D01*
X754786Y-15894671D01*
X740500Y-15923243D01*
X726214Y-15937529D01*
X697643Y-15951814D01*
X669071Y-15951814D01*
X640500Y-15937529D01*
X626214Y-15923243D01*
X611928Y-15894671D01*
X597643Y-15837529D01*
X597643Y-15766100D01*
X611928Y-15708957D01*
X626214Y-15680386D01*
X640500Y-15666100D01*
X669071Y-15651814D01*
X883357Y-15680386D02*
X897643Y-15666100D01*
X926214Y-15651814D01*
X997643Y-15651814D01*
X1026214Y-15666100D01*
X1040500Y-15680386D01*
X1054786Y-15708957D01*
X1054786Y-15737529D01*
X1040500Y-15780386D01*
X869071Y-15951814D01*
X1054786Y-15951814D01*
X1311928Y-15751814D02*
X1311928Y-15951814D01*
X1240500Y-15637529D02*
X1169071Y-15851814D01*
X1354786Y-15851814D01*
X1454786Y-15651814D02*
X1454786Y-15708957D01*
X1569071Y-15651814D02*
X1569071Y-15708957D01*
X2011928Y-16066100D02*
X1997643Y-16051814D01*
X1969071Y-16008957D01*
X1954786Y-15980386D01*
X1940500Y-15937529D01*
X1926214Y-15866100D01*
X1926214Y-15808957D01*
X1940500Y-15737529D01*
X1954786Y-15694671D01*
X1969071Y-15666100D01*
X1997643Y-15623243D01*
X2011928Y-15608957D01*
X2183357Y-15651814D02*
X2211928Y-15651814D01*
X2240500Y-15666100D01*
X2254786Y-15680386D01*
X2269071Y-15708957D01*
X2283357Y-15766100D01*
X2283357Y-15837529D01*
X2269071Y-15894671D01*
X2254786Y-15923243D01*
X2240500Y-15937529D01*
X2211928Y-15951814D01*
X2183357Y-15951814D01*
X2154786Y-15937529D01*
X2140500Y-15923243D01*
X2126214Y-15894671D01*
X2111928Y-15837529D01*
X2111928Y-15766100D01*
X2126214Y-15708957D01*
X2140500Y-15680386D01*
X2154786Y-15666100D01*
X2183357Y-15651814D01*
X2640500Y-15951814D02*
X2640500Y-15651814D01*
X2769071Y-15951814D02*
X2769071Y-15794671D01*
X2754786Y-15766100D01*
X2726214Y-15751814D01*
X2683357Y-15751814D01*
X2654786Y-15766100D01*
X2640500Y-15780386D01*
X2954786Y-15951814D02*
X2926214Y-15937529D01*
X2911928Y-15923243D01*
X2897643Y-15894671D01*
X2897643Y-15808957D01*
X2911928Y-15780386D01*
X2926214Y-15766100D01*
X2954786Y-15751814D01*
X2997643Y-15751814D01*
X3026214Y-15766100D01*
X3040500Y-15780386D01*
X3054786Y-15808957D01*
X3054786Y-15894671D01*
X3040500Y-15923243D01*
X3026214Y-15937529D01*
X2997643Y-15951814D01*
X2954786Y-15951814D01*
X3226214Y-15951814D02*
X3197643Y-15937529D01*
X3183357Y-15908957D01*
X3183357Y-15651814D01*
X3454786Y-15937529D02*
X3426214Y-15951814D01*
X3369071Y-15951814D01*
X3340500Y-15937529D01*
X3326214Y-15908957D01*
X3326214Y-15794671D01*
X3340500Y-15766100D01*
X3369071Y-15751814D01*
X3426214Y-15751814D01*
X3454786Y-15766100D01*
X3469071Y-15794671D01*
X3469071Y-15823243D01*
X3326214Y-15851814D01*
X3583357Y-15937529D02*
X3611928Y-15951814D01*
X3669071Y-15951814D01*
X3697643Y-15937529D01*
X3711928Y-15908957D01*
X3711928Y-15894671D01*
X3697643Y-15866100D01*
X3669071Y-15851814D01*
X3626214Y-15851814D01*
X3597643Y-15837529D01*
X3583357Y-15808957D01*
X3583357Y-15794671D01*
X3597643Y-15766100D01*
X3626214Y-15751814D01*
X3669071Y-15751814D01*
X3697643Y-15766100D01*
X4069071Y-15837529D02*
X4297643Y-15837529D01*
X4183357Y-15951814D02*
X4183357Y-15723243D01*
X4797643Y-15751814D02*
X4797643Y-15951814D01*
X4726214Y-15637529D02*
X4654786Y-15851814D01*
X4840500Y-15851814D01*
X5169071Y-15937529D02*
X5197643Y-15951814D01*
X5254786Y-15951814D01*
X5283357Y-15937529D01*
X5297643Y-15908957D01*
X5297643Y-15894671D01*
X5283357Y-15866100D01*
X5254786Y-15851814D01*
X5211928Y-15851814D01*
X5183357Y-15837529D01*
X5169071Y-15808957D01*
X5169071Y-15794671D01*
X5183357Y-15766100D01*
X5211928Y-15751814D01*
X5254786Y-15751814D01*
X5283357Y-15766100D01*
X5469071Y-15951814D02*
X5440500Y-15937529D01*
X5426214Y-15908957D01*
X5426214Y-15651814D01*
X5626214Y-15951814D02*
X5597643Y-15937529D01*
X5583357Y-15923243D01*
X5569071Y-15894671D01*
X5569071Y-15808957D01*
X5583357Y-15780386D01*
X5597643Y-15766100D01*
X5626214Y-15751814D01*
X5669071Y-15751814D01*
X5697643Y-15766100D01*
X5711928Y-15780386D01*
X5726214Y-15808957D01*
X5726214Y-15894671D01*
X5711928Y-15923243D01*
X5697643Y-15937529D01*
X5669071Y-15951814D01*
X5626214Y-15951814D01*
X5811928Y-15751814D02*
X5926214Y-15751814D01*
X5854786Y-15651814D02*
X5854786Y-15908957D01*
X5869071Y-15937529D01*
X5897643Y-15951814D01*
X5926214Y-15951814D01*
X6011928Y-15937529D02*
X6040500Y-15951814D01*
X6097643Y-15951814D01*
X6126214Y-15937529D01*
X6140500Y-15908957D01*
X6140500Y-15894671D01*
X6126214Y-15866100D01*
X6097643Y-15851814D01*
X6054786Y-15851814D01*
X6026214Y-15837529D01*
X6011928Y-15808957D01*
X6011928Y-15794671D01*
X6026214Y-15766100D01*
X6054786Y-15751814D01*
X6097643Y-15751814D01*
X6126214Y-15766100D01*
X6240500Y-16066100D02*
X6254786Y-16051814D01*
X6283357Y-16008957D01*
X6297643Y-15980386D01*
X6311928Y-15937529D01*
X6326214Y-15866100D01*
X6326214Y-15808957D01*
X6311928Y-15737529D01*
X6297643Y-15694671D01*
X6283357Y-15666100D01*
X6254786Y-15623243D01*
X6240500Y-15608957D01*
X-2707000Y-16179600D02*
X-2707000Y-16244600D01*
X-2739500Y-16212100D02*
X-2674500Y-16212100D01*
X-2330929Y-16047814D02*
X-2302357Y-16047814D01*
X-2273786Y-16062100D01*
X-2259500Y-16076386D01*
X-2245214Y-16104957D01*
X-2230929Y-16162100D01*
X-2230929Y-16233529D01*
X-2245214Y-16290671D01*
X-2259500Y-16319243D01*
X-2273786Y-16333529D01*
X-2302357Y-16347814D01*
X-2330929Y-16347814D01*
X-2359500Y-16333529D01*
X-2373786Y-16319243D01*
X-2388072Y-16290671D01*
X-2402357Y-16233529D01*
X-2402357Y-16162100D01*
X-2388072Y-16104957D01*
X-2373786Y-16076386D01*
X-2359500Y-16062100D01*
X-2330929Y-16047814D01*
X-2102357Y-16319243D02*
X-2088071Y-16333529D01*
X-2102357Y-16347814D01*
X-2116643Y-16333529D01*
X-2102357Y-16319243D01*
X-2102357Y-16347814D01*
X-1830929Y-16047814D02*
X-1888071Y-16047814D01*
X-1916643Y-16062100D01*
X-1930929Y-16076386D01*
X-1959500Y-16119243D01*
X-1973786Y-16176386D01*
X-1973786Y-16290671D01*
X-1959500Y-16319243D01*
X-1945214Y-16333529D01*
X-1916643Y-16347814D01*
X-1859500Y-16347814D01*
X-1830929Y-16333529D01*
X-1816643Y-16319243D01*
X-1802357Y-16290671D01*
X-1802357Y-16219243D01*
X-1816643Y-16190671D01*
X-1830929Y-16176386D01*
X-1859500Y-16162100D01*
X-1916643Y-16162100D01*
X-1945214Y-16176386D01*
X-1959500Y-16190671D01*
X-1973786Y-16219243D01*
X-1530929Y-16047814D02*
X-1673786Y-16047814D01*
X-1688071Y-16190671D01*
X-1673786Y-16176386D01*
X-1645214Y-16162100D01*
X-1573786Y-16162100D01*
X-1545214Y-16176386D01*
X-1530929Y-16190671D01*
X-1516643Y-16219243D01*
X-1516643Y-16290671D01*
X-1530929Y-16319243D01*
X-1545214Y-16333529D01*
X-1573786Y-16347814D01*
X-1645214Y-16347814D01*
X-1673786Y-16333529D01*
X-1688071Y-16319243D01*
X-1388072Y-16347814D02*
X-1388072Y-16147814D01*
X-1388072Y-16176386D02*
X-1373786Y-16162100D01*
X-1345214Y-16147814D01*
X-1302357Y-16147814D01*
X-1273786Y-16162100D01*
X-1259500Y-16190671D01*
X-1259500Y-16347814D01*
X-1259500Y-16190671D02*
X-1245214Y-16162100D01*
X-1216643Y-16147814D01*
X-1173786Y-16147814D01*
X-1145214Y-16162100D01*
X-1130929Y-16190671D01*
X-1130929Y-16347814D01*
X-988071Y-16347814D02*
X-988071Y-16147814D01*
X-988071Y-16176386D02*
X-973786Y-16162100D01*
X-945214Y-16147814D01*
X-902357Y-16147814D01*
X-873786Y-16162100D01*
X-859500Y-16190671D01*
X-859500Y-16347814D01*
X-859500Y-16190671D02*
X-845214Y-16162100D01*
X-816643Y-16147814D01*
X-773786Y-16147814D01*
X-745214Y-16162100D01*
X-730929Y-16190671D01*
X-730929Y-16347814D01*
X-145214Y-16033529D02*
X-402357Y-16419243D01*
X240500Y-16047814D02*
X269071Y-16047814D01*
X297643Y-16062100D01*
X311928Y-16076386D01*
X326214Y-16104957D01*
X340500Y-16162100D01*
X340500Y-16233529D01*
X326214Y-16290671D01*
X311928Y-16319243D01*
X297643Y-16333529D01*
X269071Y-16347814D01*
X240500Y-16347814D01*
X211928Y-16333529D01*
X197643Y-16319243D01*
X183357Y-16290671D01*
X169071Y-16233529D01*
X169071Y-16162100D01*
X183357Y-16104957D01*
X197643Y-16076386D01*
X211928Y-16062100D01*
X240500Y-16047814D01*
X469071Y-16319243D02*
X483357Y-16333529D01*
X469071Y-16347814D01*
X454786Y-16333529D01*
X469071Y-16319243D01*
X469071Y-16347814D01*
X669071Y-16047814D02*
X697643Y-16047814D01*
X726214Y-16062100D01*
X740500Y-16076386D01*
X754786Y-16104957D01*
X769071Y-16162100D01*
X769071Y-16233529D01*
X754786Y-16290671D01*
X740500Y-16319243D01*
X726214Y-16333529D01*
X697643Y-16347814D01*
X669071Y-16347814D01*
X640500Y-16333529D01*
X626214Y-16319243D01*
X611928Y-16290671D01*
X597643Y-16233529D01*
X597643Y-16162100D01*
X611928Y-16104957D01*
X626214Y-16076386D01*
X640500Y-16062100D01*
X669071Y-16047814D01*
X883357Y-16076386D02*
X897643Y-16062100D01*
X926214Y-16047814D01*
X997643Y-16047814D01*
X1026214Y-16062100D01*
X1040500Y-16076386D01*
X1054786Y-16104957D01*
X1054786Y-16133529D01*
X1040500Y-16176386D01*
X869071Y-16347814D01*
X1054786Y-16347814D01*
X1311928Y-16047814D02*
X1254786Y-16047814D01*
X1226214Y-16062100D01*
X1211928Y-16076386D01*
X1183357Y-16119243D01*
X1169071Y-16176386D01*
X1169071Y-16290671D01*
X1183357Y-16319243D01*
X1197643Y-16333529D01*
X1226214Y-16347814D01*
X1283357Y-16347814D01*
X1311928Y-16333529D01*
X1326214Y-16319243D01*
X1340500Y-16290671D01*
X1340500Y-16219243D01*
X1326214Y-16190671D01*
X1311928Y-16176386D01*
X1283357Y-16162100D01*
X1226214Y-16162100D01*
X1197643Y-16176386D01*
X1183357Y-16190671D01*
X1169071Y-16219243D01*
X1454786Y-16047814D02*
X1454786Y-16104957D01*
X1569071Y-16047814D02*
X1569071Y-16104957D01*
X2011928Y-16462100D02*
X1997643Y-16447814D01*
X1969071Y-16404957D01*
X1954786Y-16376386D01*
X1940500Y-16333529D01*
X1926214Y-16262100D01*
X1926214Y-16204957D01*
X1940500Y-16133529D01*
X1954786Y-16090671D01*
X1969071Y-16062100D01*
X1997643Y-16019243D01*
X2011928Y-16004957D01*
X2111928Y-16076386D02*
X2126214Y-16062100D01*
X2154786Y-16047814D01*
X2226214Y-16047814D01*
X2254786Y-16062100D01*
X2269071Y-16076386D01*
X2283357Y-16104957D01*
X2283357Y-16133529D01*
X2269071Y-16176386D01*
X2097643Y-16347814D01*
X2283357Y-16347814D01*
X2640500Y-16347814D02*
X2640500Y-16047814D01*
X2769071Y-16347814D02*
X2769071Y-16190671D01*
X2754786Y-16162100D01*
X2726214Y-16147814D01*
X2683357Y-16147814D01*
X2654786Y-16162100D01*
X2640500Y-16176386D01*
X2954786Y-16347814D02*
X2926214Y-16333529D01*
X2911928Y-16319243D01*
X2897643Y-16290671D01*
X2897643Y-16204957D01*
X2911928Y-16176386D01*
X2926214Y-16162100D01*
X2954786Y-16147814D01*
X2997643Y-16147814D01*
X3026214Y-16162100D01*
X3040500Y-16176386D01*
X3054786Y-16204957D01*
X3054786Y-16290671D01*
X3040500Y-16319243D01*
X3026214Y-16333529D01*
X2997643Y-16347814D01*
X2954786Y-16347814D01*
X3226214Y-16347814D02*
X3197643Y-16333529D01*
X3183357Y-16304957D01*
X3183357Y-16047814D01*
X3454786Y-16333529D02*
X3426214Y-16347814D01*
X3369071Y-16347814D01*
X3340500Y-16333529D01*
X3326214Y-16304957D01*
X3326214Y-16190671D01*
X3340500Y-16162100D01*
X3369071Y-16147814D01*
X3426214Y-16147814D01*
X3454786Y-16162100D01*
X3469071Y-16190671D01*
X3469071Y-16219243D01*
X3326214Y-16247814D01*
X3583357Y-16333529D02*
X3611928Y-16347814D01*
X3669071Y-16347814D01*
X3697643Y-16333529D01*
X3711928Y-16304957D01*
X3711928Y-16290671D01*
X3697643Y-16262100D01*
X3669071Y-16247814D01*
X3626214Y-16247814D01*
X3597643Y-16233529D01*
X3583357Y-16204957D01*
X3583357Y-16190671D01*
X3597643Y-16162100D01*
X3626214Y-16147814D01*
X3669071Y-16147814D01*
X3697643Y-16162100D01*
X3811928Y-16462100D02*
X3826214Y-16447814D01*
X3854786Y-16404957D01*
X3869071Y-16376386D01*
X3883357Y-16333529D01*
X3897643Y-16262100D01*
X3897643Y-16204957D01*
X3883357Y-16133529D01*
X3869071Y-16090671D01*
X3854786Y-16062100D01*
X3826214Y-16019243D01*
X3811928Y-16004957D01*
X-2689730Y-16644870D02*
X-2689730Y-16571330D01*
X-2763270Y-16571330D01*
X-2763270Y-16644870D01*
X-2689730Y-16644870D01*
X-2230929Y-16743814D02*
X-2402357Y-16743814D01*
X-2316643Y-16743814D02*
X-2316643Y-16443814D01*
X-2345214Y-16486671D01*
X-2373786Y-16515243D01*
X-2402357Y-16529529D01*
X-2102357Y-16715243D02*
X-2088071Y-16729529D01*
X-2102357Y-16743814D01*
X-2116643Y-16729529D01*
X-2102357Y-16715243D01*
X-2102357Y-16743814D01*
X-1902357Y-16443814D02*
X-1873786Y-16443814D01*
X-1845214Y-16458100D01*
X-1830929Y-16472386D01*
X-1816643Y-16500957D01*
X-1802357Y-16558100D01*
X-1802357Y-16629529D01*
X-1816643Y-16686671D01*
X-1830929Y-16715243D01*
X-1845214Y-16729529D01*
X-1873786Y-16743814D01*
X-1902357Y-16743814D01*
X-1930929Y-16729529D01*
X-1945214Y-16715243D01*
X-1959500Y-16686671D01*
X-1973786Y-16629529D01*
X-1973786Y-16558100D01*
X-1959500Y-16500957D01*
X-1945214Y-16472386D01*
X-1930929Y-16458100D01*
X-1902357Y-16443814D01*
X-1545214Y-16543814D02*
X-1545214Y-16743814D01*
X-1616643Y-16429529D02*
X-1688071Y-16643814D01*
X-1502357Y-16643814D01*
X-1388072Y-16743814D02*
X-1388072Y-16543814D01*
X-1388072Y-16572386D02*
X-1373786Y-16558100D01*
X-1345214Y-16543814D01*
X-1302357Y-16543814D01*
X-1273786Y-16558100D01*
X-1259500Y-16586671D01*
X-1259500Y-16743814D01*
X-1259500Y-16586671D02*
X-1245214Y-16558100D01*
X-1216643Y-16543814D01*
X-1173786Y-16543814D01*
X-1145214Y-16558100D01*
X-1130929Y-16586671D01*
X-1130929Y-16743814D01*
X-988071Y-16743814D02*
X-988071Y-16543814D01*
X-988071Y-16572386D02*
X-973786Y-16558100D01*
X-945214Y-16543814D01*
X-902357Y-16543814D01*
X-873786Y-16558100D01*
X-859500Y-16586671D01*
X-859500Y-16743814D01*
X-859500Y-16586671D02*
X-845214Y-16558100D01*
X-816643Y-16543814D01*
X-773786Y-16543814D01*
X-745214Y-16558100D01*
X-730929Y-16586671D01*
X-730929Y-16743814D01*
X-145214Y-16429529D02*
X-402357Y-16815243D01*
X240500Y-16443814D02*
X269071Y-16443814D01*
X297643Y-16458100D01*
X311928Y-16472386D01*
X326214Y-16500957D01*
X340500Y-16558100D01*
X340500Y-16629529D01*
X326214Y-16686671D01*
X311928Y-16715243D01*
X297643Y-16729529D01*
X269071Y-16743814D01*
X240500Y-16743814D01*
X211928Y-16729529D01*
X197643Y-16715243D01*
X183357Y-16686671D01*
X169071Y-16629529D01*
X169071Y-16558100D01*
X183357Y-16500957D01*
X197643Y-16472386D01*
X211928Y-16458100D01*
X240500Y-16443814D01*
X469071Y-16715243D02*
X483357Y-16729529D01*
X469071Y-16743814D01*
X454786Y-16729529D01*
X469071Y-16715243D01*
X469071Y-16743814D01*
X669071Y-16443814D02*
X697643Y-16443814D01*
X726214Y-16458100D01*
X740500Y-16472386D01*
X754786Y-16500957D01*
X769071Y-16558100D01*
X769071Y-16629529D01*
X754786Y-16686671D01*
X740500Y-16715243D01*
X726214Y-16729529D01*
X697643Y-16743814D01*
X669071Y-16743814D01*
X640500Y-16729529D01*
X626214Y-16715243D01*
X611928Y-16686671D01*
X597643Y-16629529D01*
X597643Y-16558100D01*
X611928Y-16500957D01*
X626214Y-16472386D01*
X640500Y-16458100D01*
X669071Y-16443814D01*
X1026214Y-16543814D02*
X1026214Y-16743814D01*
X954786Y-16429529D02*
X883357Y-16643814D01*
X1069071Y-16643814D01*
X1340500Y-16743814D02*
X1169071Y-16743814D01*
X1254786Y-16743814D02*
X1254786Y-16443814D01*
X1226214Y-16486671D01*
X1197643Y-16515243D01*
X1169071Y-16529529D01*
X1454786Y-16443814D02*
X1454786Y-16500957D01*
X1569071Y-16443814D02*
X1569071Y-16500957D01*
X2011928Y-16858100D02*
X1997643Y-16843814D01*
X1969071Y-16800957D01*
X1954786Y-16772386D01*
X1940500Y-16729529D01*
X1926214Y-16658100D01*
X1926214Y-16600957D01*
X1940500Y-16529529D01*
X1954786Y-16486671D01*
X1969071Y-16458100D01*
X1997643Y-16415243D01*
X2011928Y-16400957D01*
X2283357Y-16743814D02*
X2111928Y-16743814D01*
X2197643Y-16743814D02*
X2197643Y-16443814D01*
X2169071Y-16486671D01*
X2140500Y-16515243D01*
X2111928Y-16529529D01*
X2397643Y-16472386D02*
X2411928Y-16458100D01*
X2440500Y-16443814D01*
X2511928Y-16443814D01*
X2540500Y-16458100D01*
X2554786Y-16472386D01*
X2569071Y-16500957D01*
X2569071Y-16529529D01*
X2554786Y-16572386D01*
X2383357Y-16743814D01*
X2569071Y-16743814D01*
X2740500Y-16572386D02*
X2711928Y-16558100D01*
X2697643Y-16543814D01*
X2683357Y-16515243D01*
X2683357Y-16500957D01*
X2697643Y-16472386D01*
X2711928Y-16458100D01*
X2740500Y-16443814D01*
X2797643Y-16443814D01*
X2826214Y-16458100D01*
X2840500Y-16472386D01*
X2854786Y-16500957D01*
X2854786Y-16515243D01*
X2840500Y-16543814D01*
X2826214Y-16558100D01*
X2797643Y-16572386D01*
X2740500Y-16572386D01*
X2711928Y-16586671D01*
X2697643Y-16600957D01*
X2683357Y-16629529D01*
X2683357Y-16686671D01*
X2697643Y-16715243D01*
X2711928Y-16729529D01*
X2740500Y-16743814D01*
X2797643Y-16743814D01*
X2826214Y-16729529D01*
X2840500Y-16715243D01*
X2854786Y-16686671D01*
X2854786Y-16629529D01*
X2840500Y-16600957D01*
X2826214Y-16586671D01*
X2797643Y-16572386D01*
X3211928Y-16743814D02*
X3211928Y-16443814D01*
X3340500Y-16743814D02*
X3340500Y-16586671D01*
X3326214Y-16558100D01*
X3297643Y-16543814D01*
X3254786Y-16543814D01*
X3226214Y-16558100D01*
X3211928Y-16572386D01*
X3526214Y-16743814D02*
X3497643Y-16729529D01*
X3483357Y-16715243D01*
X3469071Y-16686671D01*
X3469071Y-16600957D01*
X3483357Y-16572386D01*
X3497643Y-16558100D01*
X3526214Y-16543814D01*
X3569071Y-16543814D01*
X3597643Y-16558100D01*
X3611928Y-16572386D01*
X3626214Y-16600957D01*
X3626214Y-16686671D01*
X3611928Y-16715243D01*
X3597643Y-16729529D01*
X3569071Y-16743814D01*
X3526214Y-16743814D01*
X3797643Y-16743814D02*
X3769071Y-16729529D01*
X3754786Y-16700957D01*
X3754786Y-16443814D01*
X4026214Y-16729529D02*
X3997643Y-16743814D01*
X3940500Y-16743814D01*
X3911928Y-16729529D01*
X3897643Y-16700957D01*
X3897643Y-16586671D01*
X3911928Y-16558100D01*
X3940500Y-16543814D01*
X3997643Y-16543814D01*
X4026214Y-16558100D01*
X4040500Y-16586671D01*
X4040500Y-16615243D01*
X3897643Y-16643814D01*
X4154786Y-16729529D02*
X4183357Y-16743814D01*
X4240500Y-16743814D01*
X4269071Y-16729529D01*
X4283357Y-16700957D01*
X4283357Y-16686671D01*
X4269071Y-16658100D01*
X4240500Y-16643814D01*
X4197643Y-16643814D01*
X4169071Y-16629529D01*
X4154786Y-16600957D01*
X4154786Y-16586671D01*
X4169071Y-16558100D01*
X4197643Y-16543814D01*
X4240500Y-16543814D01*
X4269071Y-16558100D01*
X4383357Y-16858100D02*
X4397643Y-16843814D01*
X4426214Y-16800957D01*
X4440500Y-16772386D01*
X4454786Y-16729529D01*
X4469071Y-16658100D01*
X4469071Y-16600957D01*
X4454786Y-16529529D01*
X4440500Y-16486671D01*
X4426214Y-16458100D01*
X4397643Y-16415243D01*
X4383357Y-16400957D01*
X-2748000Y-17077600D02*
X-2674500Y-17004100D01*
X-2748000Y-16930600D01*
X-2821500Y-17004100D01*
X-2748000Y-17077600D01*
X-2230929Y-17139814D02*
X-2402357Y-17139814D01*
X-2316643Y-17139814D02*
X-2316643Y-16839814D01*
X-2345214Y-16882672D01*
X-2373786Y-16911243D01*
X-2402357Y-16925529D01*
X-2102357Y-17111243D02*
X-2088071Y-17125529D01*
X-2102357Y-17139814D01*
X-2116643Y-17125529D01*
X-2102357Y-17111243D01*
X-2102357Y-17139814D01*
X-1830929Y-16939814D02*
X-1830929Y-17139814D01*
X-1902357Y-16825529D02*
X-1973786Y-17039814D01*
X-1788071Y-17039814D01*
X-1702357Y-16839814D02*
X-1502357Y-16839814D01*
X-1630929Y-17139814D01*
X-1388072Y-17139814D02*
X-1388072Y-16939814D01*
X-1388072Y-16968386D02*
X-1373786Y-16954100D01*
X-1345214Y-16939814D01*
X-1302357Y-16939814D01*
X-1273786Y-16954100D01*
X-1259500Y-16982672D01*
X-1259500Y-17139814D01*
X-1259500Y-16982672D02*
X-1245214Y-16954100D01*
X-1216643Y-16939814D01*
X-1173786Y-16939814D01*
X-1145214Y-16954100D01*
X-1130929Y-16982672D01*
X-1130929Y-17139814D01*
X-988071Y-17139814D02*
X-988071Y-16939814D01*
X-988071Y-16968386D02*
X-973786Y-16954100D01*
X-945214Y-16939814D01*
X-902357Y-16939814D01*
X-873786Y-16954100D01*
X-859500Y-16982672D01*
X-859500Y-17139814D01*
X-859500Y-16982672D02*
X-845214Y-16954100D01*
X-816643Y-16939814D01*
X-773786Y-16939814D01*
X-745214Y-16954100D01*
X-730929Y-16982672D01*
X-730929Y-17139814D01*
X-145214Y-16825529D02*
X-402357Y-17211243D01*
X240500Y-16839814D02*
X269071Y-16839814D01*
X297643Y-16854100D01*
X311928Y-16868386D01*
X326214Y-16896957D01*
X340500Y-16954100D01*
X340500Y-17025529D01*
X326214Y-17082672D01*
X311928Y-17111243D01*
X297643Y-17125529D01*
X269071Y-17139814D01*
X240500Y-17139814D01*
X211928Y-17125529D01*
X197643Y-17111243D01*
X183357Y-17082672D01*
X169071Y-17025529D01*
X169071Y-16954100D01*
X183357Y-16896957D01*
X197643Y-16868386D01*
X211928Y-16854100D01*
X240500Y-16839814D01*
X469071Y-17111243D02*
X483357Y-17125529D01*
X469071Y-17139814D01*
X454786Y-17125529D01*
X469071Y-17111243D01*
X469071Y-17139814D01*
X669071Y-16839814D02*
X697643Y-16839814D01*
X726214Y-16854100D01*
X740500Y-16868386D01*
X754786Y-16896957D01*
X769071Y-16954100D01*
X769071Y-17025529D01*
X754786Y-17082672D01*
X740500Y-17111243D01*
X726214Y-17125529D01*
X697643Y-17139814D01*
X669071Y-17139814D01*
X640500Y-17125529D01*
X626214Y-17111243D01*
X611928Y-17082672D01*
X597643Y-17025529D01*
X597643Y-16954100D01*
X611928Y-16896957D01*
X626214Y-16868386D01*
X640500Y-16854100D01*
X669071Y-16839814D01*
X1040500Y-16839814D02*
X897643Y-16839814D01*
X883357Y-16982672D01*
X897643Y-16968386D01*
X926214Y-16954100D01*
X997643Y-16954100D01*
X1026214Y-16968386D01*
X1040500Y-16982672D01*
X1054786Y-17011243D01*
X1054786Y-17082672D01*
X1040500Y-17111243D01*
X1026214Y-17125529D01*
X997643Y-17139814D01*
X926214Y-17139814D01*
X897643Y-17125529D01*
X883357Y-17111243D01*
X1226214Y-16968386D02*
X1197643Y-16954100D01*
X1183357Y-16939814D01*
X1169071Y-16911243D01*
X1169071Y-16896957D01*
X1183357Y-16868386D01*
X1197643Y-16854100D01*
X1226214Y-16839814D01*
X1283357Y-16839814D01*
X1311928Y-16854100D01*
X1326214Y-16868386D01*
X1340500Y-16896957D01*
X1340500Y-16911243D01*
X1326214Y-16939814D01*
X1311928Y-16954100D01*
X1283357Y-16968386D01*
X1226214Y-16968386D01*
X1197643Y-16982672D01*
X1183357Y-16996957D01*
X1169071Y-17025529D01*
X1169071Y-17082672D01*
X1183357Y-17111243D01*
X1197643Y-17125529D01*
X1226214Y-17139814D01*
X1283357Y-17139814D01*
X1311928Y-17125529D01*
X1326214Y-17111243D01*
X1340500Y-17082672D01*
X1340500Y-17025529D01*
X1326214Y-16996957D01*
X1311928Y-16982672D01*
X1283357Y-16968386D01*
X1454786Y-16839814D02*
X1454786Y-16896957D01*
X1569071Y-16839814D02*
X1569071Y-16896957D01*
X2011928Y-17254100D02*
X1997643Y-17239814D01*
X1969071Y-17196957D01*
X1954786Y-17168386D01*
X1940500Y-17125529D01*
X1926214Y-17054100D01*
X1926214Y-16996957D01*
X1940500Y-16925529D01*
X1954786Y-16882672D01*
X1969071Y-16854100D01*
X1997643Y-16811243D01*
X2011928Y-16796957D01*
X2111928Y-16868386D02*
X2126214Y-16854100D01*
X2154786Y-16839814D01*
X2226214Y-16839814D01*
X2254786Y-16854100D01*
X2269071Y-16868386D01*
X2283357Y-16896957D01*
X2283357Y-16925529D01*
X2269071Y-16968386D01*
X2097643Y-17139814D01*
X2283357Y-17139814D01*
X2554786Y-16839814D02*
X2411928Y-16839814D01*
X2397643Y-16982672D01*
X2411928Y-16968386D01*
X2440500Y-16954100D01*
X2511928Y-16954100D01*
X2540500Y-16968386D01*
X2554786Y-16982672D01*
X2569071Y-17011243D01*
X2569071Y-17082672D01*
X2554786Y-17111243D01*
X2540500Y-17125529D01*
X2511928Y-17139814D01*
X2440500Y-17139814D01*
X2411928Y-17125529D01*
X2397643Y-17111243D01*
X2826214Y-16839814D02*
X2769071Y-16839814D01*
X2740500Y-16854100D01*
X2726214Y-16868386D01*
X2697643Y-16911243D01*
X2683357Y-16968386D01*
X2683357Y-17082672D01*
X2697643Y-17111243D01*
X2711928Y-17125529D01*
X2740500Y-17139814D01*
X2797643Y-17139814D01*
X2826214Y-17125529D01*
X2840500Y-17111243D01*
X2854786Y-17082672D01*
X2854786Y-17011243D01*
X2840500Y-16982672D01*
X2826214Y-16968386D01*
X2797643Y-16954100D01*
X2740500Y-16954100D01*
X2711928Y-16968386D01*
X2697643Y-16982672D01*
X2683357Y-17011243D01*
X3211928Y-17139814D02*
X3211928Y-16839814D01*
X3340500Y-17139814D02*
X3340500Y-16982672D01*
X3326214Y-16954100D01*
X3297643Y-16939814D01*
X3254786Y-16939814D01*
X3226214Y-16954100D01*
X3211928Y-16968386D01*
X3526214Y-17139814D02*
X3497643Y-17125529D01*
X3483357Y-17111243D01*
X3469071Y-17082672D01*
X3469071Y-16996957D01*
X3483357Y-16968386D01*
X3497643Y-16954100D01*
X3526214Y-16939814D01*
X3569071Y-16939814D01*
X3597643Y-16954100D01*
X3611928Y-16968386D01*
X3626214Y-16996957D01*
X3626214Y-17082672D01*
X3611928Y-17111243D01*
X3597643Y-17125529D01*
X3569071Y-17139814D01*
X3526214Y-17139814D01*
X3797643Y-17139814D02*
X3769071Y-17125529D01*
X3754786Y-17096957D01*
X3754786Y-16839814D01*
X4026214Y-17125529D02*
X3997643Y-17139814D01*
X3940500Y-17139814D01*
X3911928Y-17125529D01*
X3897643Y-17096957D01*
X3897643Y-16982672D01*
X3911928Y-16954100D01*
X3940500Y-16939814D01*
X3997643Y-16939814D01*
X4026214Y-16954100D01*
X4040500Y-16982672D01*
X4040500Y-17011243D01*
X3897643Y-17039814D01*
X4154786Y-17125529D02*
X4183357Y-17139814D01*
X4240500Y-17139814D01*
X4269071Y-17125529D01*
X4283357Y-17096957D01*
X4283357Y-17082672D01*
X4269071Y-17054100D01*
X4240500Y-17039814D01*
X4197643Y-17039814D01*
X4169071Y-17025529D01*
X4154786Y-16996957D01*
X4154786Y-16982672D01*
X4169071Y-16954100D01*
X4197643Y-16939814D01*
X4240500Y-16939814D01*
X4269071Y-16954100D01*
X4383357Y-17254100D02*
X4397643Y-17239814D01*
X4426214Y-17196957D01*
X4440500Y-17168386D01*
X4454786Y-17125529D01*
X4469071Y-17054100D01*
X4469071Y-16996957D01*
X4454786Y-16925529D01*
X4440500Y-16882672D01*
X4426214Y-16854100D01*
X4397643Y-16811243D01*
X4383357Y-16796957D01*
M02*
